<svg width="142" height="237" viewBox="0 0 142 237" fill="none" xmlns="http://www.w3.org/2000/svg">
<path fill-rule="evenodd" clip-rule="evenodd" d="M119.064 0.0514199C128.521 -0.676034 136.777 6.4006 137.505 15.8575C139.454 41.1945 126.881 94.0525 68.0951 124.129C47.9032 134.46 39.3259 150.512 36.4568 167.32C33.4625 184.861 36.8927 202.83 40.9284 213.572C44.2642 222.451 39.7705 232.353 30.8916 235.688C22.0127 239.024 12.1107 234.53 8.77497 225.652C3.07887 210.49 -1.62704 186.296 2.59881 161.54C6.9499 136.05 20.9491 109.668 52.4505 93.5512C97.0508 70.7325 104.314 32.2254 103.258 18.4919C102.531 9.03494 109.607 0.778872 119.064 0.0514199Z" fill="#A7A7A7"/>
<path fill-rule="evenodd" clip-rule="evenodd" d="M17.5197 222.873C17.8113 222.499 18.3509 222.432 18.7249 222.724C20.2805 223.936 22.9453 225.185 25.8397 225.018C28.668 224.855 31.8719 223.332 34.5827 218.709C34.8226 218.3 35.3487 218.163 35.7578 218.403C36.1669 218.643 36.304 219.169 36.0641 219.578C33.1056 224.623 29.4196 226.532 25.9386 226.733C22.5238 226.93 19.46 225.474 17.669 224.078C17.295 223.787 17.2282 223.247 17.5197 222.873Z" fill="#434342"/>
<path fill-rule="evenodd" clip-rule="evenodd" d="M9.67732 195.738C10.02 195.41 10.5635 195.422 10.8914 195.765C12.2551 197.19 14.711 198.812 17.5991 199.066C20.4212 199.314 23.812 198.27 27.1632 194.089C27.4598 193.719 28.0003 193.659 28.3703 193.956C28.7403 194.252 28.7999 194.793 28.5033 195.163C24.8457 199.726 20.9221 201.082 17.4488 200.776C14.0414 200.477 11.2206 198.593 9.65059 196.952C9.32271 196.61 9.33468 196.066 9.67732 195.738Z" fill="#434342"/>
<path fill-rule="evenodd" clip-rule="evenodd" d="M10.0448 164.256C10.4668 164.04 10.9844 164.207 11.2008 164.629C12.1009 166.384 13.9917 168.639 16.6872 169.707C19.3212 170.75 22.8688 170.717 27.2741 167.667C27.664 167.397 28.1989 167.494 28.4689 167.884C28.7389 168.274 28.6417 168.809 28.2518 169.079C23.4437 172.408 19.2965 172.587 16.0548 171.303C12.8747 170.044 10.709 167.433 9.67266 165.412C9.45623 164.99 9.62286 164.473 10.0448 164.256Z" fill="#434342"/>
<path fill-rule="evenodd" clip-rule="evenodd" d="M20.2217 135.906C20.6911 135.839 21.1262 136.165 21.1936 136.634C21.4736 138.587 22.5276 141.334 24.729 143.221C26.8801 145.065 30.2453 146.188 35.4034 144.737C35.86 144.609 36.3342 144.875 36.4626 145.331C36.591 145.788 36.325 146.262 35.8685 146.39C30.2387 147.974 26.2589 146.794 23.6115 144.525C21.0143 142.299 19.816 139.126 19.4936 136.878C19.4262 136.408 19.7522 135.973 20.2217 135.906Z" fill="#434342"/>
<path fill-rule="evenodd" clip-rule="evenodd" d="M37.8249 113.151C38.2944 113.083 38.7295 113.409 38.7968 113.879C39.0769 115.831 40.1309 118.579 42.3323 120.466C44.4834 122.309 47.8485 123.433 53.0067 121.982C53.4632 121.853 53.9374 122.119 54.0659 122.576C54.1943 123.033 53.9283 123.507 53.4718 123.635C47.842 125.219 43.8622 124.039 41.2147 121.77C38.6175 119.544 37.4193 116.37 37.0969 114.123C37.0295 113.653 37.3555 113.218 37.8249 113.151Z" fill="#434342"/>
<path fill-rule="evenodd" clip-rule="evenodd" d="M68.1134 92.751C68.5769 92.8512 68.8715 93.3082 68.7713 93.7717C68.3547 95.6997 68.3871 98.6425 69.7947 101.177C71.1702 103.654 73.9344 105.878 79.2751 106.312C79.7478 106.35 80.0999 106.764 80.0615 107.237C80.023 107.71 79.6087 108.062 79.136 108.024C73.307 107.55 69.9863 105.059 68.2934 102.011C66.6326 99.0207 66.6131 95.6286 67.0927 93.409C67.1928 92.9454 67.6498 92.6509 68.1134 92.751Z" fill="#434342"/>
<path fill-rule="evenodd" clip-rule="evenodd" d="M89.7672 75.5018C90.2309 75.4019 90.6876 75.6968 90.7875 76.1604C91.2028 78.0886 92.4456 80.7564 94.773 82.4852C97.0473 84.1744 100.482 85.0611 105.527 83.2545C105.974 83.0946 106.465 83.3269 106.625 83.7734C106.785 84.2199 106.553 84.7114 106.106 84.8713C100.6 86.843 96.548 85.9429 93.749 83.8638C91.0031 81.8242 89.5868 78.742 89.1086 76.522C89.0088 76.0584 89.3036 75.6016 89.7672 75.5018Z" fill="#434342"/>
<path fill-rule="evenodd" clip-rule="evenodd" d="M103.369 51.9623C103.831 51.8557 104.292 52.1438 104.399 52.6059C104.842 54.5279 106.124 57.1771 108.476 58.8715C110.775 60.5273 114.223 61.3634 119.241 59.483C119.685 59.3166 120.18 59.5417 120.346 59.9858C120.513 60.4298 120.287 60.9248 119.843 61.0912C114.367 63.1435 110.302 62.3029 107.473 60.2651C104.697 58.266 103.236 55.2048 102.725 52.9921C102.619 52.53 102.907 52.069 103.369 51.9623Z" fill="#434342"/>
<path d="M107.401 31.5731C102.002 31.5731 97.6259 27.1965 97.6259 21.7978C97.6259 16.399 102.002 12.0225 107.401 12.0225C112.8 12.0225 117.177 16.399 117.177 21.7978C117.177 27.1965 112.8 31.5731 107.401 31.5731Z" fill="white"/>
<path d="M107.401 27.3564C104.331 27.3564 101.843 24.8678 101.843 21.7979C101.843 18.728 104.331 16.2394 107.401 16.2394C110.471 16.2394 112.96 18.728 112.96 21.7979C112.96 24.8678 110.471 27.3564 107.401 27.3564Z" fill="#1D1D1B"/>
<path d="M131.874 32.8612C126.475 32.8612 122.099 28.4847 122.099 23.0859C122.099 17.6872 126.475 13.3106 131.874 13.3106C137.273 13.3106 141.649 17.6872 141.649 23.0859C141.649 28.4847 137.273 32.8612 131.874 32.8612Z" fill="white"/>
<path d="M131.874 28.6446C128.804 28.6446 126.315 26.156 126.315 23.0861C126.315 20.0162 128.804 17.5276 131.874 17.5276C134.944 17.5276 137.432 20.0162 137.432 23.0861C137.432 26.156 134.944 28.6446 131.874 28.6446Z" fill="#1D1D1B"/>
<path d="M127.393 10.1661L114.371 8.78409C115.589 7.4742 118.713 4.88423 121.464 5.00344C124.215 5.12265 126.562 8.49487 127.393 10.1661Z" fill="#1D1D1B"/>
<path fill-rule="evenodd" clip-rule="evenodd" d="M113.921 8.95218L114.213 8.63781C114.834 7.97076 115.934 6.98315 117.229 6.17561C118.519 5.37108 120.033 4.72649 121.473 4.7889C122.931 4.85207 124.255 5.77267 125.303 6.85324C126.355 7.93873 127.162 9.21877 127.585 10.0705L127.759 10.4207L113.921 8.95218ZM114.832 8.61709L127.016 9.9102C126.579 9.1122 125.874 8.05967 124.994 7.15213C123.973 6.09899 122.748 5.27388 121.455 5.21784C120.144 5.16103 118.72 5.75182 117.456 6.53995C116.388 7.20588 115.455 7.99928 114.832 8.61709Z" fill="#1D1D1B"/>
</svg>
