<svg width="91" height="197" viewBox="0 0 91 197" fill="none" xmlns="http://www.w3.org/2000/svg">
<path fill-rule="evenodd" clip-rule="evenodd" d="M51.7558 174.651C54.6237 163.457 59.2185 129.31 51.5707 92.132C44.6152 58.3197 20.0179 38.2866 10.1049 33.1682C1.67715 28.8166 -1.62729 18.457 2.72423 10.0293C7.07575 1.6015 17.4354 -1.70293 25.8631 2.64859C42.6916 11.3377 75.6956 38.9403 85.214 85.2113C94.0401 128.117 89.0251 167.577 85.0289 183.176C82.675 192.364 73.3184 197.904 64.1302 195.55C54.9421 193.196 49.4019 183.839 51.7558 174.651Z" fill="#FD5F60"/>
<path d="M81.1976 180.861C75.7988 180.861 71.4223 176.484 71.4223 171.085C71.4223 165.687 75.7988 161.31 81.1976 161.31C86.5963 161.31 90.9729 165.687 90.9729 171.085C90.9729 176.484 86.5963 180.861 81.1976 180.861Z" fill="white"/>
<path d="M81.1976 176.644C78.1277 176.644 75.6391 174.155 75.6391 171.085C75.6391 168.016 78.1277 165.527 81.1976 165.527C84.2675 165.527 86.7561 168.016 86.7561 171.085C86.7561 174.155 84.2675 176.644 81.1976 176.644Z" fill="#1D1D1B"/>
<path d="M57.8136 180.861C52.4148 180.861 48.0383 176.484 48.0383 171.085C48.0383 165.687 52.4148 161.31 57.8136 161.31C63.2123 161.31 67.5889 165.687 67.5889 171.085C67.5889 176.484 63.2123 180.861 57.8136 180.861Z" fill="white"/>
<path d="M57.8136 176.644C54.7437 176.644 52.2551 174.155 52.2551 171.085C52.2551 168.016 54.7437 165.527 57.8136 165.527C60.8834 165.527 63.3721 168.016 63.3721 171.085C63.3721 174.155 60.8834 176.644 57.8136 176.644Z" fill="#1D1D1B"/>
<path fill-rule="evenodd" clip-rule="evenodd" d="M75.138 186.09C75.3243 186.236 75.3564 186.506 75.2097 186.692C73.8589 188.408 71.5183 190.512 68.8905 191.133C67.5618 191.447 66.1533 191.382 64.7792 190.688C63.4106 189.998 62.1172 188.704 60.9723 186.635C60.8575 186.427 60.9327 186.166 61.1401 186.051C61.3476 185.936 61.6089 186.012 61.7237 186.219C62.8114 188.185 63.9938 189.33 65.166 189.922C66.3327 190.511 67.5297 190.572 68.6931 190.297C71.0492 189.741 73.2382 187.809 74.535 186.161C74.6817 185.975 74.9517 185.943 75.138 186.09Z" fill="#1D1D1B"/>
<path fill-rule="evenodd" clip-rule="evenodd" d="M27.8568 11.8389C27.8892 12.312 27.5319 12.7218 27.0588 12.7542C25.0909 12.8888 22.2726 13.7363 20.228 15.7919C18.2302 17.8005 16.8603 21.0732 17.925 26.3247C18.0193 26.7895 17.7189 27.2426 17.2541 27.3369C16.7893 27.4311 16.3361 27.1307 16.2419 26.6659C15.0798 20.9343 16.5515 17.0529 19.0104 14.5808C21.4225 12.1557 24.676 11.1958 26.9415 11.0408C27.4147 11.0085 27.8245 11.3658 27.8568 11.8389Z" fill="#DC4748"/>
<path fill-rule="evenodd" clip-rule="evenodd" d="M47.3115 28.3055C47.2429 28.7748 46.8069 29.0996 46.3376 29.031C44.3859 28.7458 41.452 28.9772 39.0185 30.5532C36.6406 32.0931 34.6087 35.0014 34.5371 40.3593C34.5308 40.8335 34.1412 41.2128 33.667 41.2064C33.1928 41.2001 32.8135 40.8106 32.8199 40.3364C32.898 34.4887 35.1583 31.007 38.085 29.1117C40.956 27.2524 44.339 27.0034 46.5859 27.3317C47.0552 27.4003 47.38 27.8362 47.3115 28.3055Z" fill="#DC4748"/>
<path fill-rule="evenodd" clip-rule="evenodd" d="M62.6271 45.9668C62.4835 46.4188 62.0008 46.6688 61.5488 46.5253C59.6688 45.9283 56.7361 45.6824 54.0798 46.8441C51.4842 47.9794 49.0088 50.5209 48.072 55.7967C47.9891 56.2637 47.5434 56.575 47.0764 56.4921C46.6095 56.4092 46.2982 55.9634 46.3811 55.4965C47.4035 49.7383 50.1971 46.6679 53.3916 45.2707C56.5255 43.9 59.9042 44.2012 62.0685 44.8885C62.5205 45.032 62.7706 45.5148 62.6271 45.9668Z" fill="#DC4748"/>
<path fill-rule="evenodd" clip-rule="evenodd" d="M72.8845 68.1983C72.6411 68.6053 72.1139 68.7379 71.7068 68.4945C70.014 67.4821 67.2159 66.5699 64.364 67.0913C61.5771 67.6007 58.5847 69.5065 56.4624 74.4267C56.2746 74.8622 55.7693 75.0629 55.3339 74.8751C54.8984 74.6872 54.6977 74.182 54.8855 73.7465C57.2018 68.3765 60.6252 66.0289 64.0551 65.4019C67.4198 64.7868 70.6393 65.8551 72.5883 67.0206C72.9953 67.264 73.1279 67.7912 72.8845 68.1983Z" fill="#DC4748"/>
<path fill-rule="evenodd" clip-rule="evenodd" d="M79.5486 92.5191C79.2079 92.849 78.6643 92.8403 78.3344 92.4996C76.9623 91.0826 74.4968 89.4755 71.6072 89.2389C68.7837 89.0077 65.3992 90.0716 62.0728 94.2725C61.7784 94.6443 61.2384 94.707 60.8666 94.4126C60.4948 94.1182 60.432 93.5782 60.7264 93.2064C64.3569 88.6215 68.2723 87.2427 71.7474 87.5272C75.1565 87.8064 77.9884 89.6735 79.5681 91.3049C79.8981 91.6456 79.8893 92.1892 79.5486 92.5191Z" fill="#DC4748"/>
<path fill-rule="evenodd" clip-rule="evenodd" d="M81.5253 115.078C81.1139 115.314 80.5892 115.172 80.3533 114.761C79.372 113.05 77.3779 110.885 74.6354 109.945C71.9555 109.026 68.4133 109.224 64.1554 112.477C63.7786 112.765 63.2397 112.693 62.9518 112.316C62.6639 111.94 62.736 111.401 63.1128 111.113C67.7599 107.562 71.8942 107.189 75.1924 108.32C78.428 109.43 80.7134 111.936 81.843 113.906C82.079 114.318 81.9367 114.843 81.5253 115.078Z" fill="#DC4748"/>
<path fill-rule="evenodd" clip-rule="evenodd" d="M81.9545 136.116C81.5431 136.352 81.0184 136.21 80.7824 135.799C79.8012 134.088 77.8071 131.923 75.0646 130.983C72.3847 130.064 68.8425 130.262 64.5846 133.515C64.2078 133.803 63.6689 133.731 63.381 133.354C63.0931 132.978 63.1652 132.439 63.542 132.151C68.1891 128.6 72.3234 128.227 75.6216 129.358C78.8572 130.468 81.1426 132.974 82.2722 134.944C82.5082 135.356 82.3659 135.881 81.9545 136.116Z" fill="#DC4748"/>
<path d="M61.5626 186.212L74.6577 186.212C73.5843 187.643 70.7507 190.549 68.0028 190.72C65.255 190.892 62.5645 187.787 61.5626 186.212Z" fill="#1D1D1B"/>
<path fill-rule="evenodd" clip-rule="evenodd" d="M75.0869 185.998L74.8293 186.341C74.2827 187.07 73.293 188.168 72.0902 189.108C70.8919 190.044 69.4545 190.845 68.0161 190.935C66.5599 191.026 65.1464 190.25 63.9904 189.286C62.8291 188.318 61.892 187.13 61.3814 186.327L61.1714 185.998L75.0869 185.998ZM74.2165 186.427L61.9635 186.427C62.4827 187.174 63.2944 188.147 64.2653 188.956C65.392 189.896 66.6976 190.587 67.9893 190.506C69.2987 190.424 70.652 189.687 71.8259 188.769C72.8177 187.995 73.6617 187.107 74.2165 186.427Z" fill="#1D1D1B"/>
</svg>
