<svg width="551" height="208" viewBox="0 0 551 208" fill="none" xmlns="http://www.w3.org/2000/svg">
<path fill-rule="evenodd" clip-rule="evenodd" d="M103.256 0.0449601C111.525 -0.591106 118.744 5.59651 119.38 13.8654C121.084 36.0193 110.091 82.2368 58.6898 108.535C41.0346 117.568 33.5348 131.603 31.0261 146.3C28.408 161.638 31.4073 177.349 34.936 186.741C37.8527 194.505 33.9236 203.163 26.1601 206.079C18.3966 208.996 9.73859 205.067 6.82192 197.303C1.8414 184.046 -2.27331 162.892 1.42165 141.246C5.22612 118.959 17.4666 95.8908 45.0106 81.7986C84.0078 61.8465 90.359 28.177 89.4353 16.1688C88.7993 7.8999 94.9869 0.681024 103.256 0.0449601Z" fill="#FD5F60"/>
<path fill-rule="evenodd" clip-rule="evenodd" d="M14.4681 194.874C14.723 194.547 15.1948 194.489 15.5219 194.743C16.8821 195.804 19.2121 196.896 21.7429 196.75C24.2159 196.607 27.0173 195.275 29.3875 191.234C29.5972 190.876 30.0572 190.756 30.4149 190.966C30.7726 191.176 30.8925 191.636 30.6828 191.993C28.0959 196.404 24.873 198.074 21.8294 198.249C18.8436 198.421 16.1646 197.149 14.5986 195.928C14.2716 195.673 14.2132 195.201 14.4681 194.874Z" fill="#DC4748"/>
<path fill-rule="evenodd" clip-rule="evenodd" d="M7.6107 171.148C7.9103 170.861 8.38557 170.872 8.67226 171.171C9.86466 172.417 12.012 173.835 14.5373 174.057C17.0049 174.274 19.9696 173.361 22.8999 169.706C23.1592 169.382 23.6318 169.33 23.9553 169.589C24.2789 169.849 24.3309 170.321 24.0716 170.645C20.8735 174.635 17.4428 175.82 14.4059 175.553C11.4266 175.291 8.9601 173.644 7.58733 172.21C7.30064 171.91 7.31111 171.435 7.6107 171.148Z" fill="#DC4748"/>
<path fill-rule="evenodd" clip-rule="evenodd" d="M7.93212 143.621C8.30108 143.432 8.7536 143.578 8.94283 143.947C9.72992 145.481 11.3831 147.453 13.74 148.387C16.0431 149.299 19.145 149.27 22.9969 146.603C23.3378 146.367 23.8055 146.452 24.0416 146.793C24.2777 147.134 24.1927 147.602 23.8518 147.838C19.6477 150.749 16.0215 150.905 13.1871 149.783C10.4065 148.681 8.51284 146.399 7.60669 144.632C7.41745 144.263 7.56315 143.81 7.93212 143.621Z" fill="#DC4748"/>
<path fill-rule="evenodd" clip-rule="evenodd" d="M16.8306 118.832C17.2411 118.774 17.6216 119.059 17.6804 119.469C17.9253 121.176 18.8469 123.579 20.7717 125.228C22.6526 126.84 25.595 127.823 30.1052 126.554C30.5043 126.442 30.919 126.674 31.0312 127.074C31.1435 127.473 30.9109 127.887 30.5118 128C25.5893 129.384 22.1094 128.353 19.7946 126.369C17.5237 124.422 16.4759 121.648 16.194 119.682C16.1351 119.272 16.4202 118.891 16.8306 118.832Z" fill="#DC4748"/>
<path fill-rule="evenodd" clip-rule="evenodd" d="M32.2222 98.9357C32.6327 98.8768 33.0132 99.1618 33.072 99.5723C33.3169 101.279 34.2385 103.682 36.1633 105.332C38.0442 106.944 40.9866 107.926 45.4968 106.657C45.8959 106.545 46.3106 106.778 46.4228 107.177C46.5351 107.576 46.3025 107.991 45.9034 108.103C40.9809 109.488 37.501 108.456 35.1862 106.472C32.9153 104.526 31.8675 101.751 31.5856 99.7855C31.5267 99.375 31.8118 98.9945 32.2222 98.9357Z" fill="#DC4748"/>
<path fill-rule="evenodd" clip-rule="evenodd" d="M58.7058 81.099C59.1111 81.1866 59.3687 81.5861 59.2811 81.9915C58.9169 83.6772 58.9451 86.2503 60.176 88.4665C61.3787 90.6321 63.7955 92.5767 68.4654 92.9561C68.8787 92.9897 69.1865 93.352 69.1529 93.7653C69.1193 94.1786 68.7571 94.4864 68.3438 94.4528C63.247 94.0387 60.3434 91.8608 58.8632 89.1956C57.4111 86.581 57.394 83.6151 57.8134 81.6743C57.9009 81.269 58.3005 81.0114 58.7058 81.099Z" fill="#DC4748"/>
<path fill-rule="evenodd" clip-rule="evenodd" d="M77.6394 66.0167C78.0448 65.9294 78.4442 66.1872 78.5315 66.5926C78.8946 68.2786 79.9813 70.6112 82.0163 72.1228C84.0049 73.5999 87.0085 74.3751 91.4194 72.7955C91.8098 72.6557 92.2396 72.8588 92.3794 73.2492C92.5192 73.6396 92.3161 74.0694 91.9257 74.2092C87.1116 75.9332 83.5683 75.1462 81.1209 73.3283C78.72 71.5449 77.4816 68.8498 77.0635 66.9088C76.9762 66.5034 77.234 66.104 77.6394 66.0167Z" fill="#DC4748"/>
<path fill-rule="evenodd" clip-rule="evenodd" d="M89.5319 45.4344C89.936 45.3412 90.3391 45.5931 90.4324 45.9972C90.8202 47.6777 91.9409 49.9941 93.9979 51.4756C96.0079 52.9234 99.0226 53.6545 103.41 52.0103C103.798 51.8648 104.231 52.0616 104.376 52.4499C104.522 52.8382 104.325 53.2709 103.937 53.4164C99.1485 55.2109 95.5941 54.4759 93.1203 52.6941C90.6935 50.9462 89.4157 48.2696 88.9692 46.3348C88.8759 45.9308 89.1279 45.5277 89.5319 45.4344Z" fill="#DC4748"/>
<path d="M93.0582 27.6067C88.3377 27.6067 84.511 23.78 84.511 19.0595C84.511 14.3389 88.3377 10.5122 93.0582 10.5122C97.7787 10.5122 101.605 14.3389 101.605 19.0595C101.605 23.78 97.7787 27.6067 93.0582 27.6067Z" fill="white"/>
<path d="M93.0583 23.9196C90.374 23.9196 88.1981 21.7436 88.1981 19.0594C88.1981 16.3752 90.374 14.1992 93.0583 14.1992C95.7425 14.1992 97.9185 16.3752 97.9185 19.0594C97.9185 21.7436 95.7425 23.9196 93.0583 23.9196Z" fill="#1D1D1B"/>
<path d="M114.456 28.7329C109.736 28.7329 105.909 24.9062 105.909 20.1857C105.909 15.4652 109.736 11.6384 114.456 11.6384C119.177 11.6384 123.003 15.4652 123.003 20.1857C123.003 24.9062 119.177 28.7329 114.456 28.7329Z" fill="white"/>
<path d="M114.456 25.0458C111.772 25.0458 109.596 22.8699 109.596 20.1856C109.596 17.5014 111.772 15.3254 114.456 15.3254C117.14 15.3254 119.316 17.5014 119.316 20.1856C119.316 22.8699 117.14 25.0458 114.456 25.0458Z" fill="#1D1D1B"/>
<path d="M110.538 8.88891L99.1519 7.68054C100.217 6.53521 102.949 4.27062 105.354 4.37485C107.759 4.47908 109.812 7.42765 110.538 8.88891Z" fill="#1D1D1B"/>
<path fill-rule="evenodd" clip-rule="evenodd" d="M98.7588 7.82764L99.0145 7.55276C99.557 6.96951 100.519 6.10597 101.651 5.39988C102.78 4.69643 104.103 4.13281 105.362 4.18738C106.637 4.24262 107.794 5.04756 108.711 5.99238C109.631 6.9415 110.336 8.06073 110.706 8.80547L110.858 9.11171L98.7588 7.82764ZM99.5552 7.53464L110.209 8.66531C109.827 7.96756 109.211 7.04725 108.441 6.25372C107.548 5.33289 106.477 4.61143 105.346 4.56244C104.2 4.51277 102.955 5.02933 101.85 5.71845C100.916 6.30072 100.1 6.99444 99.5552 7.53464Z" fill="#1D1D1B"/>
<path fill-rule="evenodd" clip-rule="evenodd" d="M516.709 170.433C519.217 160.645 523.235 130.788 516.548 98.2804C510.466 68.7158 488.959 51.1994 480.291 46.724C472.922 42.9192 470.033 33.861 473.838 26.492C477.642 19.123 486.701 16.2337 494.07 20.0386C508.784 27.6361 537.642 51.7711 545.964 92.2291C553.682 129.745 549.297 164.247 545.803 177.886C543.744 185.92 535.563 190.764 527.529 188.706C519.495 186.648 514.651 178.467 516.709 170.433Z" fill="#7CD86E"/>
<path d="M542.453 175.862C537.732 175.862 533.905 172.036 533.905 167.315C533.905 162.595 537.732 158.768 542.453 158.768C547.173 158.768 551 162.595 551 167.315C551 172.036 547.173 175.862 542.453 175.862Z" fill="white"/>
<path d="M542.453 172.175C539.769 172.175 537.593 169.999 537.593 167.315C537.593 164.631 539.769 162.455 542.453 162.455C545.137 162.455 547.313 164.631 547.313 167.315C547.313 169.999 545.137 172.175 542.453 172.175Z" fill="#1D1D1B"/>
<path d="M522.006 175.862C517.286 175.862 513.459 172.036 513.459 167.315C513.459 162.595 517.286 158.768 522.006 158.768C526.727 158.768 530.554 162.595 530.554 167.315C530.554 172.036 526.727 175.862 522.006 175.862Z" fill="white"/>
<path d="M522.006 172.175C519.322 172.175 517.146 169.999 517.146 167.315C517.146 164.631 519.322 162.455 522.006 162.455C524.691 162.455 526.867 164.631 526.867 167.315C526.867 169.999 524.691 172.175 522.006 172.175Z" fill="#1D1D1B"/>
<path fill-rule="evenodd" clip-rule="evenodd" d="M537.154 180.434C537.317 180.563 537.345 180.799 537.217 180.961C536.036 182.462 533.989 184.301 531.692 184.844C530.53 185.118 529.298 185.062 528.097 184.455C526.9 183.852 525.769 182.721 524.768 180.911C524.668 180.73 524.733 180.501 524.915 180.401C525.096 180.3 525.325 180.366 525.425 180.548C526.376 182.267 527.41 183.268 528.435 183.785C529.455 184.3 530.502 184.354 531.519 184.113C533.579 183.627 535.493 181.937 536.627 180.497C536.755 180.334 536.991 180.306 537.154 180.434Z" fill="#1D1D1B"/>
<path fill-rule="evenodd" clip-rule="evenodd" d="M495.813 28.0744C495.841 28.4881 495.529 28.8464 495.115 28.8747C493.395 28.9924 490.93 29.7334 489.143 31.5308C487.396 33.287 486.198 36.1485 487.129 40.7403C487.211 41.1467 486.949 41.5429 486.542 41.6253C486.136 41.7077 485.74 41.4451 485.657 41.0387C484.641 36.0272 485.928 32.6333 488.078 30.4718C490.187 28.3513 493.032 27.5121 495.013 27.3765C495.427 27.3482 495.785 27.6607 495.813 28.0744Z" fill="#6ABC5E"/>
<path fill-rule="evenodd" clip-rule="evenodd" d="M512.824 42.4723C512.764 42.8826 512.383 43.1666 511.972 43.1067C510.266 42.8573 507.7 43.0596 505.573 44.4376C503.493 45.7841 501.717 48.327 501.654 53.0118C501.649 53.4264 501.308 53.7581 500.893 53.7525C500.479 53.747 500.147 53.4064 500.153 52.9917C500.221 47.8787 502.197 44.8344 504.756 43.1772C507.267 41.5515 510.225 41.3337 512.189 41.6208C512.6 41.6808 512.884 42.062 512.824 42.4723Z" fill="#6ABC5E"/>
<path fill-rule="evenodd" clip-rule="evenodd" d="M526.215 57.9148C526.09 58.31 525.668 58.5286 525.272 58.4031C523.629 57.8812 521.064 57.6661 518.742 58.6819C516.472 59.6746 514.308 61.8968 513.489 66.5098C513.416 66.9181 513.026 67.1903 512.618 67.1178C512.21 67.0453 511.938 66.6556 512.01 66.2473C512.904 61.2125 515.347 58.5278 518.14 57.3061C520.88 56.1077 523.834 56.371 525.727 56.9719C526.122 57.0974 526.341 57.5196 526.215 57.9148Z" fill="#6ABC5E"/>
<path fill-rule="evenodd" clip-rule="evenodd" d="M535.184 77.3534C534.971 77.7093 534.51 77.8253 534.154 77.6124C532.674 76.7273 530.227 75.9296 527.734 76.3855C525.297 76.8309 522.68 78.4973 520.825 82.7994C520.661 83.1801 520.219 83.3557 519.838 83.1914C519.457 83.0272 519.282 82.5854 519.446 82.2046C521.471 77.5093 524.465 75.4566 527.464 74.9083C530.406 74.3705 533.221 75.3046 534.925 76.3237C535.281 76.5365 535.397 76.9975 535.184 77.3534Z" fill="#6ABC5E"/>
<path fill-rule="evenodd" clip-rule="evenodd" d="M541.011 98.6188C540.713 98.9073 540.238 98.8996 539.949 98.6018C538.75 97.3628 536.594 95.9576 534.067 95.7507C531.599 95.5485 528.639 96.4788 525.731 100.152C525.473 100.477 525.001 100.532 524.676 100.274C524.351 100.017 524.296 99.5449 524.553 99.2198C527.728 95.2109 531.151 94.0053 534.19 94.2541C537.171 94.4981 539.647 96.1307 541.028 97.5571C541.317 97.855 541.309 98.3304 541.011 98.6188Z" fill="#6ABC5E"/>
<path fill-rule="evenodd" clip-rule="evenodd" d="M542.739 118.344C542.379 118.55 541.921 118.426 541.714 118.066C540.856 116.57 539.113 114.678 536.715 113.855C534.372 113.052 531.274 113.225 527.551 116.07C527.222 116.322 526.751 116.259 526.499 115.929C526.247 115.6 526.31 115.128 526.64 114.877C530.703 111.772 534.318 111.446 537.202 112.435C540.031 113.405 542.029 115.597 543.017 117.319C543.223 117.679 543.099 118.138 542.739 118.344Z" fill="#6ABC5E"/>
<path fill-rule="evenodd" clip-rule="evenodd" d="M543.115 136.739C542.755 136.946 542.296 136.821 542.09 136.461C541.232 134.965 539.488 133.073 537.09 132.251C534.747 131.447 531.65 131.621 527.927 134.465C527.597 134.717 527.126 134.654 526.874 134.324C526.623 133.995 526.686 133.523 527.015 133.272C531.079 130.167 534.693 129.841 537.577 130.83C540.406 131.8 542.405 133.992 543.392 135.714C543.599 136.074 543.474 136.533 543.115 136.739Z" fill="#6ABC5E"/>
<path d="M525.284 180.542L536.734 180.542C535.796 181.793 533.318 184.333 530.916 184.483C528.513 184.633 526.16 181.918 525.284 180.542Z" fill="#1D1D1B"/>
<path fill-rule="evenodd" clip-rule="evenodd" d="M537.11 180.354L536.885 180.654C536.407 181.291 535.541 182.252 534.49 183.073C533.442 183.892 532.185 184.592 530.927 184.671C529.654 184.75 528.418 184.072 527.407 183.229C526.392 182.382 525.573 181.344 525.126 180.642L524.943 180.354L537.11 180.354ZM536.349 180.729L525.635 180.729C526.089 181.383 526.799 182.233 527.648 182.941C528.633 183.762 529.775 184.367 530.904 184.296C532.049 184.224 533.232 183.579 534.259 182.778C535.126 182.1 535.864 181.324 536.349 180.729Z" fill="#1D1D1B"/>
<path fill-rule="evenodd" clip-rule="evenodd" d="M216.8 170.433C219.308 160.645 223.325 130.788 216.638 98.2804C210.557 68.7158 189.05 51.1994 180.382 46.724C173.013 42.9192 170.124 33.861 173.928 26.492C177.733 19.123 186.791 16.2337 194.16 20.0386C208.875 27.6361 237.733 51.7711 246.055 92.2291C253.772 129.745 249.388 164.247 245.893 177.886C243.835 185.92 235.654 190.764 227.62 188.706C219.586 186.648 214.742 178.467 216.8 170.433Z" fill="#5BAFE4"/>
<path d="M242.543 175.862C237.823 175.862 233.996 172.036 233.996 167.315C233.996 162.595 237.823 158.768 242.543 158.768C247.264 158.768 251.09 162.595 251.09 167.315C251.09 172.036 247.264 175.862 242.543 175.862Z" fill="white"/>
<path d="M242.543 172.175C239.859 172.175 237.683 169.999 237.683 167.315C237.683 164.631 239.859 162.455 242.543 162.455C245.227 162.455 247.403 164.631 247.403 167.315C247.403 169.999 245.227 172.175 242.543 172.175Z" fill="#1D1D1B"/>
<path d="M222.097 175.862C217.376 175.862 213.55 172.036 213.55 167.315C213.55 162.595 217.376 158.768 222.097 158.768C226.817 158.768 230.644 162.595 230.644 167.315C230.644 172.036 226.817 175.862 222.097 175.862Z" fill="white"/>
<path d="M222.097 172.175C219.413 172.175 217.237 169.999 217.237 167.315C217.237 164.631 219.413 162.455 222.097 162.455C224.781 162.455 226.957 164.631 226.957 167.315C226.957 169.999 224.781 172.175 222.097 172.175Z" fill="#1D1D1B"/>
<path fill-rule="evenodd" clip-rule="evenodd" d="M237.245 180.434C237.408 180.563 237.436 180.799 237.308 180.961C236.127 182.462 234.08 184.301 231.782 184.844C230.621 185.118 229.389 185.062 228.188 184.455C226.991 183.852 225.86 182.721 224.859 180.911C224.759 180.73 224.824 180.501 225.006 180.401C225.187 180.3 225.416 180.366 225.516 180.548C226.467 182.267 227.501 183.268 228.526 183.785C229.546 184.3 230.593 184.354 231.61 184.113C233.67 183.627 235.584 181.937 236.718 180.497C236.846 180.334 237.082 180.306 237.245 180.434Z" fill="#1D1D1B"/>
<path fill-rule="evenodd" clip-rule="evenodd" d="M195.903 28.0744C195.932 28.4881 195.619 28.8464 195.206 28.8747C193.485 28.9924 191.021 29.7334 189.233 31.5308C187.486 33.287 186.288 36.1485 187.219 40.7403C187.302 41.1467 187.039 41.5429 186.633 41.6253C186.226 41.7077 185.83 41.4451 185.748 41.0387C184.732 36.0272 186.018 32.6333 188.168 30.4718C190.277 28.3513 193.122 27.5121 195.103 27.3765C195.517 27.3482 195.875 27.6607 195.903 28.0744Z" fill="#4596CA"/>
<path fill-rule="evenodd" clip-rule="evenodd" d="M212.914 42.4723C212.854 42.8826 212.473 43.1666 212.063 43.1067C210.356 42.8573 207.791 43.0596 205.663 44.4376C203.584 45.7841 201.807 48.327 201.745 53.0118C201.739 53.4264 201.398 53.758 200.984 53.7525C200.569 53.747 200.237 53.4064 200.243 52.9917C200.311 47.8787 202.288 44.8344 204.847 43.1772C207.357 41.5515 210.315 41.3337 212.28 41.6208C212.69 41.6808 212.974 42.062 212.914 42.4723Z" fill="#4596CA"/>
<path fill-rule="evenodd" clip-rule="evenodd" d="M226.306 57.9148C226.181 58.31 225.758 58.5286 225.363 58.4031C223.719 57.8812 221.155 57.6661 218.833 58.6819C216.563 59.6746 214.399 61.8968 213.58 66.5098C213.507 66.9181 213.117 67.1903 212.709 67.1178C212.301 67.0453 212.029 66.6556 212.101 66.2473C212.995 61.2125 215.438 58.5278 218.231 57.3061C220.971 56.1077 223.925 56.371 225.818 56.9719C226.213 57.0974 226.432 57.5196 226.306 57.9148Z" fill="#4596CA"/>
<path fill-rule="evenodd" clip-rule="evenodd" d="M235.275 77.3534C235.062 77.7093 234.601 77.8253 234.245 77.6124C232.765 76.7273 230.318 75.9296 227.824 76.3855C225.388 76.8309 222.771 78.4973 220.916 82.7994C220.751 83.1801 220.31 83.3557 219.929 83.1914C219.548 83.0272 219.373 82.5854 219.537 82.2046C221.562 77.5093 224.555 75.4566 227.554 74.9083C230.496 74.3705 233.311 75.3046 235.016 76.3237C235.371 76.5365 235.487 76.9975 235.275 77.3534Z" fill="#4596CA"/>
<path fill-rule="evenodd" clip-rule="evenodd" d="M241.101 98.6188C240.804 98.9073 240.328 98.8996 240.04 98.6018C238.84 97.3628 236.684 95.9576 234.158 95.7507C231.689 95.5485 228.73 96.4788 225.821 100.152C225.564 100.477 225.091 100.532 224.766 100.274C224.441 100.017 224.386 99.5449 224.644 99.2198C227.818 95.2109 231.242 94.0053 234.28 94.2541C237.261 94.4981 239.737 96.1307 241.119 97.5571C241.407 97.855 241.399 98.3304 241.101 98.6188Z" fill="#4596CA"/>
<path fill-rule="evenodd" clip-rule="evenodd" d="M242.829 118.344C242.47 118.55 242.011 118.426 241.805 118.066C240.947 116.57 239.203 114.678 236.805 113.855C234.462 113.052 231.365 113.225 227.642 116.07C227.312 116.322 226.841 116.259 226.589 115.929C226.338 115.6 226.401 115.128 226.73 114.877C230.793 111.772 234.408 111.446 237.292 112.435C240.121 113.405 242.12 115.597 243.107 117.319C243.314 117.679 243.189 118.138 242.829 118.344Z" fill="#4596CA"/>
<path fill-rule="evenodd" clip-rule="evenodd" d="M243.205 136.739C242.845 136.945 242.386 136.821 242.18 136.461C241.322 134.965 239.579 133.073 237.181 132.25C234.837 131.447 231.74 131.62 228.017 134.465C227.688 134.717 227.217 134.654 226.965 134.324C226.713 133.995 226.776 133.523 227.106 133.272C231.169 130.167 234.784 129.841 237.668 130.83C240.497 131.8 242.495 133.992 243.483 135.714C243.689 136.074 243.565 136.533 243.205 136.739Z" fill="#4596CA"/>
<path d="M225.375 180.542L236.825 180.542C235.886 181.793 233.408 184.333 231.006 184.483C228.603 184.633 226.251 181.918 225.375 180.542Z" fill="#1D1D1B"/>
<path fill-rule="evenodd" clip-rule="evenodd" d="M237.2 180.354L236.975 180.654C236.497 181.291 235.632 182.252 234.58 183.073C233.532 183.892 232.275 184.592 231.018 184.671C229.744 184.75 228.508 184.072 227.498 183.229C226.482 182.382 225.663 181.344 225.216 180.642L225.033 180.354L237.2 180.354ZM236.439 180.729L225.725 180.729C226.179 181.383 226.889 182.233 227.738 182.941C228.723 183.762 229.865 184.367 230.994 184.296C232.139 184.224 233.322 183.579 234.349 182.778C235.216 182.1 235.954 181.324 236.439 180.729Z" fill="#1D1D1B"/>
<path fill-rule="evenodd" clip-rule="evenodd" d="M403.165 0.0449601C411.434 -0.591106 418.653 5.59651 419.289 13.8654C420.993 36.0193 410.001 82.2368 358.599 108.535C340.944 117.568 333.444 131.603 330.936 146.3C328.318 161.638 331.317 177.349 334.846 186.741C337.762 194.505 333.833 203.163 326.07 206.079C318.306 208.996 309.648 205.067 306.732 197.303C301.751 184.046 297.636 162.892 301.331 141.246C305.136 118.959 317.376 95.8908 344.92 81.7986C383.918 61.8465 390.269 28.177 389.345 16.1688C388.709 7.8999 394.897 0.681024 403.165 0.0449601Z" fill="#FFDC5B"/>
<path fill-rule="evenodd" clip-rule="evenodd" d="M314.378 194.874C314.633 194.547 315.104 194.488 315.432 194.743C316.792 195.804 319.122 196.896 321.653 196.75C324.126 196.607 326.927 195.275 329.297 191.233C329.507 190.876 329.967 190.756 330.325 190.966C330.682 191.175 330.802 191.635 330.592 191.993C328.006 196.404 324.783 198.073 321.739 198.249C318.753 198.421 316.074 197.148 314.508 195.928C314.181 195.673 314.123 195.201 314.378 194.874Z" fill="#EBC63E"/>
<path fill-rule="evenodd" clip-rule="evenodd" d="M307.52 171.148C307.82 170.861 308.295 170.872 308.582 171.171C309.774 172.417 311.922 173.835 314.447 174.057C316.915 174.274 319.879 173.361 322.81 169.706C323.069 169.382 323.541 169.33 323.865 169.589C324.189 169.849 324.241 170.321 323.981 170.645C320.783 174.635 317.353 175.82 314.316 175.553C311.336 175.291 308.87 173.644 307.497 172.21C307.21 171.91 307.221 171.435 307.52 171.148Z" fill="#EBC63E"/>
<path fill-rule="evenodd" clip-rule="evenodd" d="M307.842 143.621C308.211 143.432 308.663 143.578 308.853 143.947C309.64 145.481 311.293 147.453 313.65 148.387C315.953 149.299 319.055 149.271 322.907 146.603C323.247 146.367 323.715 146.452 323.951 146.793C324.187 147.134 324.102 147.602 323.761 147.838C319.557 150.749 315.931 150.906 313.097 149.783C310.316 148.682 308.423 146.399 307.516 144.632C307.327 144.263 307.473 143.811 307.842 143.621Z" fill="#EBC63E"/>
<path fill-rule="evenodd" clip-rule="evenodd" d="M316.74 118.832C317.151 118.774 317.531 119.059 317.59 119.469C317.835 121.176 318.757 123.579 320.681 125.228C322.562 126.84 325.505 127.823 330.015 126.554C330.414 126.442 330.829 126.674 330.941 127.074C331.053 127.473 330.821 127.887 330.421 128C325.499 129.384 322.019 128.353 319.704 126.369C317.433 124.422 316.386 121.648 316.104 119.682C316.045 119.272 316.33 118.891 316.74 118.832Z" fill="#EBC63E"/>
<path fill-rule="evenodd" clip-rule="evenodd" d="M332.132 98.9357C332.542 98.8768 332.923 99.1618 332.982 99.5723C333.227 101.279 334.148 103.682 336.073 105.332C337.954 106.944 340.896 107.926 345.406 106.657C345.806 106.545 346.22 106.778 346.333 107.177C346.445 107.576 346.212 107.991 345.813 108.103C340.891 109.488 337.411 108.456 335.096 106.472C332.825 104.526 331.777 101.751 331.495 99.7855C331.436 99.375 331.721 98.9945 332.132 98.9357Z" fill="#EBC63E"/>
<path fill-rule="evenodd" clip-rule="evenodd" d="M358.615 81.099C359.021 81.1866 359.278 81.5861 359.191 81.9915C358.827 83.6772 358.855 86.2503 360.086 88.4665C361.288 90.6321 363.705 92.5767 368.375 92.9561C368.788 92.9897 369.096 93.352 369.063 93.7653C369.029 94.1786 368.667 94.4864 368.253 94.4528C363.157 94.0387 360.253 91.8608 358.773 89.1956C357.321 86.581 357.304 83.6151 357.723 81.6743C357.811 81.269 358.21 81.0114 358.615 81.099Z" fill="#EBC63E"/>
<path fill-rule="evenodd" clip-rule="evenodd" d="M377.549 66.0167C377.954 65.9294 378.354 66.1872 378.441 66.5926C378.804 68.2786 379.891 70.6112 381.926 72.1228C383.915 73.5999 386.918 74.3751 391.329 72.7955C391.719 72.6557 392.149 72.8588 392.289 73.2492C392.429 73.6396 392.226 74.0694 391.835 74.2092C387.021 75.9332 383.478 75.1462 381.031 73.3283C378.63 71.5449 377.391 68.8498 376.973 66.9088C376.886 66.5034 377.144 66.104 377.549 66.0167Z" fill="#EBC63E"/>
<path fill-rule="evenodd" clip-rule="evenodd" d="M389.442 45.4345C389.846 45.3413 390.249 45.5932 390.342 45.9973C390.73 47.6778 391.851 49.9942 393.908 51.4758C395.918 52.9235 398.932 53.6546 403.32 52.0104C403.708 51.8649 404.141 52.0617 404.286 52.45C404.432 52.8383 404.235 53.271 403.847 53.4166C399.058 55.211 395.504 54.476 393.03 52.6942C390.603 50.9463 389.325 48.2697 388.879 46.335C388.786 45.9309 389.038 45.5278 389.442 45.4345Z" fill="#EBC63E"/>
<path d="M392.968 27.6067C388.247 27.6067 384.421 23.78 384.421 19.0595C384.421 14.3389 388.247 10.5122 392.968 10.5122C397.688 10.5122 401.515 14.3389 401.515 19.0595C401.515 23.78 397.688 27.6067 392.968 27.6067Z" fill="white"/>
<path d="M392.968 23.9197C390.284 23.9197 388.108 21.7438 388.108 19.0595C388.108 16.3753 390.284 14.1993 392.968 14.1993C395.652 14.1993 397.828 16.3753 397.828 19.0595C397.828 21.7438 395.652 23.9197 392.968 23.9197Z" fill="#1D1D1B"/>
<path d="M414.366 28.7329C409.645 28.7329 405.819 24.9062 405.819 20.1857C405.819 15.4652 409.645 11.6384 414.366 11.6384C419.086 11.6384 422.913 15.4652 422.913 20.1857C422.913 24.9062 419.086 28.7329 414.366 28.7329Z" fill="white"/>
<path d="M414.366 25.0458C411.682 25.0458 409.506 22.8699 409.506 20.1856C409.506 17.5014 411.682 15.3254 414.366 15.3254C417.05 15.3254 419.226 17.5014 419.226 20.1856C419.226 22.8699 417.05 25.0458 414.366 25.0458Z" fill="#1D1D1B"/>
<path d="M410.448 8.88891L399.062 7.68054C400.127 6.53521 402.859 4.27062 405.264 4.37485C407.669 4.47908 409.722 7.42765 410.448 8.88891Z" fill="#1D1D1B"/>
<path fill-rule="evenodd" clip-rule="evenodd" d="M398.668 7.82764L398.924 7.55276C399.467 6.96951 400.429 6.10597 401.561 5.39989C402.689 4.69643 404.013 4.13282 405.272 4.18738C406.547 4.24262 407.704 5.04756 408.62 5.99238C409.541 6.9415 410.246 8.06073 410.616 8.80547L410.768 9.11171L398.668 7.82764ZM399.465 7.53464L410.119 8.66531C409.736 7.96756 409.12 7.04725 408.351 6.25372C407.458 5.33289 406.386 4.61143 405.256 4.56244C404.11 4.51277 402.865 5.02933 401.76 5.71845C400.826 6.30072 400.01 6.99444 399.465 7.53464Z" fill="#1D1D1B"/>
</svg>
