<svg width="44" height="239" viewBox="0 0 44 239" fill="none" xmlns="http://www.w3.org/2000/svg">
<path fill-rule="evenodd" clip-rule="evenodd" d="M22.7832 0.0119629C32.2681 0.0119629 39.9571 7.70096 39.9571 17.1858V221.555C39.9571 231.04 32.2681 238.729 22.7832 238.729C13.2984 238.729 5.60938 231.04 5.60938 221.555V17.1858C5.60938 7.70096 13.2984 0.0119629 22.7832 0.0119629Z" fill="#5BAFE4"/>
<path d="M10.6617 36.7364C5.26296 36.7364 0.886405 32.3599 0.886406 26.9611C0.886406 21.5624 5.26296 17.1858 10.6617 17.1858C16.0605 17.1858 20.437 21.5624 20.437 26.9611C20.437 32.3599 16.0605 36.7364 10.6617 36.7364Z" fill="white"/>
<path d="M10.6617 32.5196C7.59183 32.5196 5.1032 30.031 5.1032 26.9611C5.1032 23.8912 7.59183 21.4026 10.6617 21.4026C13.7316 21.4026 16.2202 23.8912 16.2202 26.9611C16.2202 30.031 13.7316 32.5196 10.6617 32.5196Z" fill="#1D1D1B"/>
<path d="M33.8463 36.7364C28.4475 36.7364 24.071 32.3599 24.071 26.9611C24.071 21.5624 28.4475 17.1858 33.8463 17.1858C39.245 17.1858 43.6216 21.5624 43.6216 26.9611C43.6216 32.3599 39.245 36.7364 33.8463 36.7364Z" fill="white"/>
<path d="M33.846 32.5196C30.7762 32.5196 28.2875 30.031 28.2875 26.9611C28.2875 23.8912 30.7762 21.4026 33.846 21.4026C36.9159 21.4026 39.4045 23.8912 39.4045 26.9611C39.4045 30.031 36.9159 32.5196 33.846 32.5196Z" fill="#1D1D1B"/>
<path d="M15.0551 42.9466L28.1501 42.9466C27.0768 44.3778 24.2431 47.283 21.4953 47.4548C18.7475 47.6265 16.0569 44.5209 15.0551 42.9466Z" fill="#1D1D1B"/>
<path fill-rule="evenodd" clip-rule="evenodd" d="M28.5793 42.732L28.3217 43.0754C27.7751 43.8042 26.7854 44.9024 25.5826 45.8422C24.3844 46.7784 22.9469 47.5791 21.5085 47.669C20.0524 47.76 18.6388 46.9843 17.4828 46.0203C16.3215 45.052 15.3844 43.8642 14.8738 43.0619L14.6639 42.732L28.5793 42.732ZM27.7089 43.1613L15.4559 43.1613C15.9751 43.9087 16.7869 44.881 17.7578 45.6906C18.8844 46.6301 20.1901 47.3213 21.4817 47.2405C22.7911 47.1587 24.1445 46.421 25.3183 45.5038C26.3102 44.7289 27.1541 43.8415 27.7089 43.1613Z" fill="#1D1D1B"/>
<path fill-rule="evenodd" clip-rule="evenodd" d="M13.8517 219.113C14.2169 218.811 14.7582 218.862 15.0607 219.227C16.3191 220.746 18.6527 222.539 21.5153 222.999C24.3125 223.448 27.7692 222.649 31.4108 218.718C31.7331 218.37 32.2764 218.349 32.6243 218.672C32.9721 218.994 32.9929 219.537 32.6706 219.885C28.6961 224.175 24.6857 225.247 21.2431 224.694C17.8658 224.152 15.1869 222.071 13.7382 220.322C13.4357 219.957 13.4865 219.416 13.8517 219.113Z" fill="#4596CA"/>
<path fill-rule="evenodd" clip-rule="evenodd" d="M13.8517 197.646C14.2169 197.344 14.7582 197.394 15.0607 197.76C16.3191 199.279 18.6527 201.072 21.5153 201.531C24.3125 201.98 27.7692 201.182 31.4108 197.251C31.7331 196.903 32.2764 196.882 32.6243 197.204C32.9721 197.527 32.9929 198.07 32.6706 198.418C28.6961 202.708 24.6857 203.78 21.2431 203.227C17.8658 202.685 15.1869 200.604 13.7382 198.855C13.4357 198.49 13.4865 197.949 13.8517 197.646Z" fill="#4596CA"/>
<path fill-rule="evenodd" clip-rule="evenodd" d="M13.8517 176.179C14.2169 175.876 14.7582 175.927 15.0607 176.292C16.3191 177.811 18.6527 179.604 21.5153 180.064C24.3125 180.513 27.7692 179.714 31.4108 175.783C31.7331 175.436 32.2764 175.415 32.6243 175.737C32.9721 176.059 32.9929 176.603 32.6706 176.951C28.6961 181.241 24.6857 182.312 21.2431 181.76C17.8658 181.217 15.1869 179.137 13.7382 177.388C13.4357 177.023 13.4865 176.481 13.8517 176.179Z" fill="#4596CA"/>
<path fill-rule="evenodd" clip-rule="evenodd" d="M13.8517 154.711C14.2169 154.409 14.7582 154.46 15.0607 154.825C16.3191 156.344 18.6527 158.137 21.5153 158.597C24.3125 159.046 27.7692 158.247 31.4108 154.316C31.7331 153.968 32.2764 153.947 32.6243 154.27C32.9721 154.592 32.9929 155.135 32.6706 155.483C28.6961 159.773 24.6857 160.845 21.2431 160.292C17.8658 159.75 15.1869 157.669 13.7382 155.92C13.4357 155.555 13.4865 155.014 13.8517 154.711Z" fill="#4596CA"/>
<path fill-rule="evenodd" clip-rule="evenodd" d="M13.8517 130.668C14.2169 130.365 14.7582 130.416 15.0607 130.781C16.3191 132.3 18.6527 134.094 21.5153 134.553C24.3125 135.002 27.7692 134.203 31.4108 130.273C31.7331 129.925 32.2764 129.904 32.6243 130.226C32.9721 130.549 32.9929 131.092 32.6706 131.44C28.6961 135.73 24.6857 136.802 21.2431 136.249C17.8658 135.707 15.1869 133.626 13.7382 131.877C13.4357 131.512 13.4865 130.971 13.8517 130.668Z" fill="#4596CA"/>
<path fill-rule="evenodd" clip-rule="evenodd" d="M13.8517 104.907C14.2169 104.605 14.7582 104.655 15.0607 105.021C16.3191 106.54 18.6527 108.333 21.5153 108.792C24.3125 109.241 27.7692 108.443 31.4108 104.512C31.7331 104.164 32.2764 104.143 32.6243 104.466C32.9721 104.788 32.9929 105.331 32.6706 105.679C28.6961 109.969 24.6857 111.041 21.2431 110.488C17.8658 109.946 15.1869 107.865 13.7382 106.116C13.4357 105.751 13.4865 105.21 13.8517 104.907Z" fill="#4596CA"/>
<path fill-rule="evenodd" clip-rule="evenodd" d="M13.8517 79.1464C14.2169 78.8439 14.7582 78.8947 15.0607 79.2599C16.3191 80.7788 18.6527 82.572 21.5153 83.0316C24.3125 83.4806 27.7692 82.6819 31.4108 78.7511C31.7331 78.4032 32.2764 78.3825 32.6243 78.7048C32.9721 79.0271 32.9929 79.5704 32.6706 79.9182C28.6961 84.2084 24.6857 85.2799 21.2431 84.7272C17.8658 84.185 15.1869 82.1042 13.7382 80.3555C13.4357 79.9903 13.4865 79.449 13.8517 79.1464Z" fill="#4596CA"/>
</svg>
