<svg width="91" height="197" viewBox="0 0 91 197" fill="none" xmlns="http://www.w3.org/2000/svg">
<path fill-rule="evenodd" clip-rule="evenodd" d="M51.7226 174.652C54.5905 163.457 59.1853 129.31 51.5375 92.1323C44.582 58.3199 19.9847 38.2868 10.0717 33.1684C1.64394 28.8169 -1.66049 18.4573 2.69102 10.0295C7.04255 1.60176 17.4022 -1.70267 25.8299 2.64885C42.6584 11.3379 75.6624 38.9406 85.1808 85.2116C94.0069 128.117 88.9919 167.577 84.9957 183.176C82.6418 192.364 73.2851 197.904 64.097 195.55C54.9089 193.196 49.3686 183.84 51.7226 174.652Z" fill="#FFDC5B"/>
<path d="M81.1646 180.861C75.7659 180.861 71.3893 176.484 71.3893 171.086C71.3893 165.687 75.7659 161.31 81.1646 161.31C86.5634 161.31 90.9399 165.687 90.9399 171.086C90.9399 176.484 86.5634 180.861 81.1646 180.861Z" fill="white"/>
<path d="M81.1646 176.644C78.0948 176.644 75.6061 174.156 75.6061 171.086C75.6061 168.016 78.0948 165.527 81.1646 165.527C84.2345 165.527 86.7231 168.016 86.7231 171.086C86.7231 174.156 84.2345 176.644 81.1646 176.644Z" fill="#1D1D1B"/>
<path d="M57.7804 180.861C52.3816 180.861 48.0051 176.484 48.0051 171.086C48.0051 165.687 52.3816 161.31 57.7804 161.31C63.1791 161.31 67.5557 165.687 67.5557 171.086C67.5557 176.484 63.1791 180.861 57.7804 180.861Z" fill="white"/>
<path d="M57.7804 176.644C54.7105 176.644 52.2219 174.156 52.2219 171.086C52.2219 168.016 54.7105 165.527 57.7804 165.527C60.8502 165.527 63.3389 168.016 63.3389 171.086C63.3389 174.156 60.8502 176.644 57.7804 176.644Z" fill="#1D1D1B"/>
<path fill-rule="evenodd" clip-rule="evenodd" d="M75.1048 186.09C75.2911 186.236 75.3232 186.506 75.1765 186.693C73.8257 188.409 71.4851 190.512 68.8573 191.133C67.5286 191.447 66.1201 191.382 64.746 190.689C63.3774 189.998 62.0839 188.705 60.9391 186.635C60.8243 186.428 60.8995 186.166 61.1069 186.051C61.3144 185.937 61.5757 186.012 61.6905 186.219C62.7782 188.186 63.9606 189.331 65.1328 189.922C66.2995 190.511 67.4965 190.572 68.6599 190.297C71.016 189.741 73.205 187.809 74.5018 186.162C74.6485 185.975 74.9185 185.943 75.1048 186.09Z" fill="#1D1D1B"/>
<path fill-rule="evenodd" clip-rule="evenodd" d="M27.8236 11.8392C27.856 12.3124 27.4987 12.7222 27.0256 12.7545C25.0577 12.8892 22.2394 13.7367 20.1948 15.7922C18.1969 17.8009 16.8271 21.0735 17.8918 26.325C17.9861 26.7898 17.6857 27.243 17.2209 27.3372C16.7561 27.4314 16.3029 27.131 16.2087 26.6663C15.0466 20.9347 16.5183 17.0532 18.9772 14.5811C21.3893 12.156 24.6428 11.1961 26.9083 11.0411C27.3815 11.0088 27.7913 11.3661 27.8236 11.8392Z" fill="#EBC63E"/>
<path fill-rule="evenodd" clip-rule="evenodd" d="M47.2783 28.3058C47.2097 28.7751 46.7737 29.0999 46.3044 29.0314C44.3527 28.7462 41.4188 28.9776 38.9853 30.5535C36.6074 32.0935 34.5755 35.0017 34.5039 40.3596C34.4976 40.8338 34.108 41.2131 33.6338 41.2068C33.1596 41.2004 32.7803 40.8109 32.7867 40.3367C32.8648 34.489 35.1251 31.0073 38.0518 29.112C40.9228 27.2527 44.3058 27.0037 46.5527 27.332C47.022 27.4006 47.3468 27.8366 47.2783 28.3058Z" fill="#EBC63E"/>
<path fill-rule="evenodd" clip-rule="evenodd" d="M62.5941 45.9671C62.4506 46.4191 61.9678 46.6691 61.5158 46.5256C59.6358 45.9286 56.7031 45.6827 54.0468 46.8445C51.4512 47.9797 48.9759 50.5212 48.0391 55.797C47.9561 56.264 47.5104 56.5753 47.0435 56.4924C46.5765 56.4095 46.2652 55.9637 46.3481 55.4968C47.3706 49.7386 50.1641 46.6682 53.3587 45.271C56.4925 43.9003 59.8712 44.2015 62.0356 44.8888C62.4876 45.0323 62.7376 45.5151 62.5941 45.9671Z" fill="#EBC63E"/>
<path fill-rule="evenodd" clip-rule="evenodd" d="M72.8513 68.1985C72.6079 68.6055 72.0807 68.7382 71.6736 68.4948C69.9808 67.4824 67.1827 66.5701 64.3308 67.0915C61.5439 67.601 58.5515 69.5068 56.4292 74.4269C56.2414 74.8624 55.7361 75.0632 55.3007 74.8753C54.8652 74.6875 54.6645 74.1822 54.8523 73.7468C57.1686 68.3768 60.592 66.0291 64.0219 65.4021C67.3866 64.787 70.6061 65.8553 72.5551 67.0208C72.9621 67.2642 73.0947 67.7915 72.8513 68.1985Z" fill="#EBC63E"/>
<path fill-rule="evenodd" clip-rule="evenodd" d="M79.5157 92.5194C79.175 92.8493 78.6314 92.8405 78.3014 92.4998C76.9293 91.0828 74.4639 89.4757 71.5743 89.2391C68.7507 89.0079 65.3662 90.0719 62.0399 94.2728C61.7455 94.6446 61.2054 94.7073 60.8336 94.4129C60.4618 94.1185 60.3991 93.5784 60.6935 93.2067C64.3239 88.6217 68.2393 87.2429 71.7144 87.5275C75.1235 87.8066 77.9555 89.6738 79.5352 91.3051C79.8651 91.6458 79.8564 92.1895 79.5157 92.5194Z" fill="#EBC63E"/>
<path fill-rule="evenodd" clip-rule="evenodd" d="M81.4924 115.079C81.081 115.315 80.5562 115.172 80.3203 114.761C79.339 113.05 77.3449 110.886 74.6024 109.945C71.9226 109.026 68.3803 109.225 64.1225 112.478C63.7456 112.766 63.2068 112.694 62.9188 112.317C62.6309 111.94 62.703 111.401 63.0798 111.113C67.7269 107.563 71.8613 107.19 75.1595 108.321C78.395 109.43 80.6804 111.937 81.8101 113.907C82.046 114.318 81.9038 114.843 81.4924 115.079Z" fill="#EBC63E"/>
<path fill-rule="evenodd" clip-rule="evenodd" d="M81.9216 136.117C81.5102 136.353 80.9854 136.21 80.7495 135.799C79.7682 134.088 77.7741 131.924 75.0316 130.983C72.3518 130.064 68.8095 130.263 64.5517 133.516C64.1748 133.804 63.636 133.732 63.348 133.355C63.0601 132.978 63.1322 132.439 63.509 132.151C68.1561 128.601 72.2905 128.228 75.5887 129.359C78.8242 130.468 81.1096 132.975 82.2393 134.945C82.4752 135.356 82.333 135.881 81.9216 136.117Z" fill="#EBC63E"/>
<path d="M61.5294 186.212L74.6245 186.212C73.5511 187.644 70.7175 190.549 67.9696 190.721C65.2218 190.892 62.5312 187.787 61.5294 186.212Z" fill="#1D1D1B"/>
<path fill-rule="evenodd" clip-rule="evenodd" d="M75.0537 185.998L74.7961 186.341C74.2495 187.07 73.2598 188.168 72.057 189.108C70.8587 190.044 69.4213 190.845 67.9829 190.935C66.5267 191.026 65.1132 190.25 63.9572 189.286C62.7959 188.318 61.8588 187.13 61.3482 186.328L61.1382 185.998L75.0537 185.998ZM74.1833 186.427L61.9303 186.427C62.4495 187.175 63.2612 188.147 64.2321 188.956C65.3588 189.896 66.6644 190.587 67.9561 190.506C69.2655 190.425 70.6188 189.687 71.7927 188.77C72.7845 187.995 73.6285 187.107 74.1833 186.427Z" fill="#1D1D1B"/>
</svg>
