<svg width="44" height="239" viewBox="0 0 44 239" fill="none" xmlns="http://www.w3.org/2000/svg">
<path fill-rule="evenodd" clip-rule="evenodd" d="M22.4681 0.0117188C31.9529 0.0117188 39.6419 7.70072 39.6419 17.1856V221.555C39.6419 231.039 31.9529 238.728 22.4681 238.728C12.9832 238.728 5.29419 231.039 5.29419 221.555V17.1856C5.29419 7.70072 12.9832 0.0117188 22.4681 0.0117188Z" fill="#FFDC5B"/>
<path d="M10.3465 36.7362C4.94777 36.7362 0.57122 32.3596 0.57122 26.9609C0.57122 21.5621 4.94777 17.1856 10.3465 17.1856C15.7453 17.1856 20.1218 21.5621 20.1218 26.9609C20.1218 32.3596 15.7453 36.7362 10.3465 36.7362Z" fill="white"/>
<path d="M10.3463 32.5195C7.2764 32.5195 4.78777 30.0308 4.78777 26.961C4.78777 23.8911 7.2764 21.4025 10.3463 21.4025C13.4162 21.4025 15.9048 23.8911 15.9048 26.961C15.9048 30.0308 13.4162 32.5195 10.3463 32.5195Z" fill="#1D1D1B"/>
<path d="M33.5311 36.7362C28.1323 36.7362 23.7558 32.3596 23.7558 26.9609C23.7558 21.5621 28.1323 17.1856 33.5311 17.1856C38.9298 17.1856 43.3064 21.5621 43.3064 26.9609C43.3064 32.3596 38.9298 36.7362 33.5311 36.7362Z" fill="white"/>
<path d="M33.5311 32.5195C30.4612 32.5195 27.9726 30.0308 27.9726 26.961C27.9726 23.8911 30.4612 21.4025 33.5311 21.4025C36.601 21.4025 39.0896 23.8911 39.0896 26.961C39.0896 30.0308 36.601 32.5195 33.5311 32.5195Z" fill="#1D1D1B"/>
<path d="M14.7399 42.9464L27.835 42.9464C26.7616 44.3775 23.9279 47.2828 21.1801 47.4545C18.4323 47.6262 15.7417 44.5206 14.7399 42.9464Z" fill="#1D1D1B"/>
<path fill-rule="evenodd" clip-rule="evenodd" d="M28.2642 42.7317L28.0066 43.0752C27.46 43.804 26.4702 44.9022 25.2675 45.8419C24.0692 46.7781 22.6317 47.5789 21.1933 47.6688C19.7372 47.7598 18.3236 46.984 17.1676 46.0201C16.0063 45.0517 15.0692 43.8639 14.5586 43.0616L14.3487 42.7317L28.2642 42.7317ZM27.3937 43.161L15.1407 43.161C15.6599 43.9084 16.4717 44.8807 17.4426 45.6903C18.5692 46.6298 19.8749 47.321 21.1665 47.2402C22.476 47.1584 23.8293 46.4207 25.0031 45.5036C25.995 44.7286 26.8389 43.8412 27.3937 43.161Z" fill="#1D1D1B"/>
<path fill-rule="evenodd" clip-rule="evenodd" d="M13.5365 219.113C13.9017 218.811 14.443 218.861 14.7456 219.227C16.0039 220.746 18.3375 222.539 21.2001 222.998C23.9973 223.447 27.454 222.649 31.0956 218.718C31.4179 218.37 31.9612 218.349 32.3091 218.672C32.657 218.994 32.6777 219.537 32.3554 219.885C28.3809 224.175 24.3705 225.247 20.9279 224.694C17.5507 224.152 14.8717 222.071 13.423 220.322C13.1205 219.957 13.1713 219.416 13.5365 219.113Z" fill="#EBC63E"/>
<path fill-rule="evenodd" clip-rule="evenodd" d="M13.5365 197.646C13.9017 197.343 14.443 197.394 14.7456 197.759C16.0039 199.278 18.3375 201.071 21.2001 201.531C23.9973 201.98 27.454 201.181 31.0956 197.251C31.4179 196.903 31.9612 196.882 32.3091 197.204C32.657 197.526 32.6777 198.07 32.3554 198.418C28.3809 202.708 24.3705 203.779 20.9279 203.227C17.5507 202.684 14.8717 200.604 13.423 198.855C13.1205 198.49 13.1713 197.948 13.5365 197.646Z" fill="#EBC63E"/>
<path fill-rule="evenodd" clip-rule="evenodd" d="M13.5365 176.179C13.9017 175.876 14.443 175.927 14.7456 176.292C16.0039 177.811 18.3375 179.604 21.2001 180.064C23.9973 180.513 27.454 179.714 31.0956 175.783C31.4179 175.435 31.9612 175.415 32.3091 175.737C32.657 176.059 32.6777 176.602 32.3554 176.95C28.3809 181.24 24.3705 182.312 20.9279 181.759C17.5507 181.217 14.8717 179.136 13.423 177.388C13.1205 177.022 13.1713 176.481 13.5365 176.179Z" fill="#EBC63E"/>
<path fill-rule="evenodd" clip-rule="evenodd" d="M13.5365 154.711C13.9017 154.409 14.443 154.459 14.7456 154.825C16.0039 156.344 18.3375 158.137 21.2001 158.596C23.9973 159.045 27.454 158.247 31.0956 154.316C31.4179 153.968 31.9612 153.947 32.3091 154.27C32.657 154.592 32.6777 155.135 32.3554 155.483C28.3809 159.773 24.3705 160.845 20.9279 160.292C17.5507 159.75 14.8717 157.669 13.423 155.92C13.1205 155.555 13.1713 155.014 13.5365 154.711Z" fill="#EBC63E"/>
<path fill-rule="evenodd" clip-rule="evenodd" d="M13.5365 130.668C13.9017 130.365 14.443 130.416 14.7456 130.781C16.0039 132.3 18.3375 134.093 21.2001 134.553C23.9973 135.002 27.454 134.203 31.0956 130.272C31.4179 129.925 31.9612 129.904 32.3091 130.226C32.657 130.548 32.6777 131.092 32.3554 131.44C28.3809 135.73 24.3705 136.801 20.9279 136.249C17.5507 135.706 14.8717 133.626 13.423 131.877C13.1205 131.512 13.1713 130.97 13.5365 130.668Z" fill="#EBC63E"/>
<path fill-rule="evenodd" clip-rule="evenodd" d="M13.5365 104.907C13.9017 104.604 14.443 104.655 14.7456 105.02C16.0039 106.539 18.3375 108.333 21.2001 108.792C23.9973 109.241 27.454 108.442 31.0956 104.512C31.4179 104.164 31.9612 104.143 32.3091 104.465C32.657 104.788 32.6777 105.331 32.3554 105.679C28.3809 109.969 24.3705 111.04 20.9279 110.488C17.5507 109.946 14.8717 107.865 13.423 106.116C13.1205 105.751 13.1713 105.21 13.5365 104.907Z" fill="#EBC63E"/>
<path fill-rule="evenodd" clip-rule="evenodd" d="M13.5365 79.1462C13.9017 78.8436 14.443 78.8944 14.7456 79.2596C16.0039 80.7786 18.3375 82.5717 21.2001 83.0313C23.9973 83.4804 27.454 82.6816 31.0956 78.7509C31.4179 78.403 31.9612 78.3822 32.3091 78.7045C32.657 79.0268 32.6777 79.5701 32.3554 79.918C28.3809 84.2081 24.3705 85.2797 20.9279 84.727C17.5507 84.1848 14.8717 82.104 13.423 80.3553C13.1205 79.9901 13.1713 79.4487 13.5365 79.1462Z" fill="#EBC63E"/>
</svg>
