<svg width="43" height="239" viewBox="0 0 43 239" fill="none" xmlns="http://www.w3.org/2000/svg">
<path fill-rule="evenodd" clip-rule="evenodd" d="M21.9029 0.0117188C31.3877 0.0117188 39.0767 7.70072 39.0767 17.1856V221.555C39.0767 231.039 31.3877 238.728 21.9029 238.728C12.418 238.728 4.729 231.039 4.729 221.555V17.1856C4.729 7.70072 12.418 0.0117188 21.9029 0.0117188Z" fill="#7CD86E"/>
<path d="M9.78134 36.7362C4.38259 36.7362 0.00603419 32.3596 0.00603442 26.9609C0.00603466 21.5621 4.38259 17.1856 9.78134 17.1856C15.1801 17.1856 19.5566 21.5621 19.5566 26.9609C19.5566 32.3596 15.1801 36.7362 9.78134 36.7362Z" fill="white"/>
<path d="M9.78109 32.5194C6.71122 32.5194 4.22259 30.0307 4.22259 26.9609C4.22259 23.891 6.71122 21.4024 9.78109 21.4024C12.851 21.4024 15.3396 23.891 15.3396 26.9609C15.3396 30.0307 12.851 32.5194 9.78109 32.5194Z" fill="#1D1D1B"/>
<path d="M32.9659 36.7362C27.5672 36.7362 23.1906 32.3596 23.1906 26.9609C23.1906 21.5621 27.5672 17.1856 32.9659 17.1856C38.3647 17.1856 42.7412 21.5621 42.7412 26.9609C42.7412 32.3596 38.3647 36.7362 32.9659 36.7362Z" fill="white"/>
<path d="M32.9659 32.5194C29.896 32.5194 27.4074 30.0307 27.4074 26.9609C27.4074 23.891 29.896 21.4024 32.9659 21.4024C36.0358 21.4024 38.5244 23.891 38.5244 26.9609C38.5244 30.0307 36.0358 32.5194 32.9659 32.5194Z" fill="#1D1D1B"/>
<path d="M14.1747 42.9464L27.2698 42.9464C26.1964 44.3775 23.3627 47.2828 20.6149 47.4545C17.8671 47.6262 15.1765 44.5206 14.1747 42.9464Z" fill="#1D1D1B"/>
<path fill-rule="evenodd" clip-rule="evenodd" d="M27.699 42.7317L27.4414 43.0752C26.8948 43.804 25.905 44.9022 24.7023 45.8419C23.504 46.7781 22.0666 47.5789 20.6281 47.6688C19.172 47.7598 17.7584 46.984 16.6024 46.0201C15.4411 45.0518 14.504 43.864 13.9934 43.0616L13.7835 42.7317L27.699 42.7317ZM26.8286 43.1611L14.5755 43.1611C15.0948 43.9084 15.9065 44.8807 16.8774 45.6903C18.0041 46.6298 19.3097 47.321 20.6014 47.2403C21.9108 47.1584 23.2641 46.4207 24.4379 45.5036C25.4298 44.7287 26.2737 43.8412 26.8286 43.1611Z" fill="#1D1D1B"/>
<path fill-rule="evenodd" clip-rule="evenodd" d="M12.9713 219.113C13.3365 218.811 13.8778 218.861 14.1804 219.227C15.4387 220.746 17.7723 222.539 20.6349 222.998C23.4321 223.447 26.8888 222.649 30.5304 218.718C30.8527 218.37 31.396 218.349 31.7439 218.672C32.0918 218.994 32.1125 219.537 31.7902 219.885C27.8157 224.175 23.8053 225.247 20.3627 224.694C16.9855 224.152 14.3065 222.071 12.8578 220.322C12.5553 219.957 12.6061 219.416 12.9713 219.113Z" fill="#6ABC5E"/>
<path fill-rule="evenodd" clip-rule="evenodd" d="M12.9713 197.646C13.3365 197.343 13.8778 197.394 14.1804 197.759C15.4387 199.278 17.7723 201.071 20.6349 201.531C23.4321 201.98 26.8888 201.181 30.5304 197.251C30.8527 196.903 31.396 196.882 31.7439 197.204C32.0918 197.526 32.1125 198.07 31.7902 198.418C27.8157 202.708 23.8053 203.779 20.3627 203.227C16.9855 202.684 14.3065 200.604 12.8578 198.855C12.5553 198.49 12.6061 197.948 12.9713 197.646Z" fill="#6ABC5E"/>
<path fill-rule="evenodd" clip-rule="evenodd" d="M12.9713 176.179C13.3365 175.876 13.8778 175.927 14.1804 176.292C15.4387 177.811 17.7723 179.604 20.6349 180.064C23.4321 180.513 26.8888 179.714 30.5304 175.783C30.8527 175.435 31.396 175.415 31.7439 175.737C32.0918 176.059 32.1125 176.602 31.7902 176.95C27.8157 181.24 23.8053 182.312 20.3627 181.759C16.9855 181.217 14.3065 179.136 12.8578 177.388C12.5553 177.022 12.6061 176.481 12.9713 176.179Z" fill="#6ABC5E"/>
<path fill-rule="evenodd" clip-rule="evenodd" d="M12.9713 154.711C13.3365 154.409 13.8778 154.459 14.1804 154.825C15.4387 156.344 17.7723 158.137 20.6349 158.596C23.4321 159.045 26.8888 158.247 30.5304 154.316C30.8527 153.968 31.396 153.947 31.7439 154.27C32.0918 154.592 32.1125 155.135 31.7902 155.483C27.8157 159.773 23.8053 160.845 20.3627 160.292C16.9855 159.75 14.3065 157.669 12.8578 155.92C12.5553 155.555 12.6061 155.014 12.9713 154.711Z" fill="#6ABC5E"/>
<path fill-rule="evenodd" clip-rule="evenodd" d="M12.9713 130.668C13.3365 130.365 13.8778 130.416 14.1804 130.781C15.4387 132.3 17.7723 134.093 20.6349 134.553C23.4321 135.002 26.8888 134.203 30.5304 130.272C30.8527 129.925 31.396 129.904 31.7439 130.226C32.0918 130.548 32.1125 131.092 31.7902 131.44C27.8157 135.73 23.8053 136.801 20.3627 136.249C16.9855 135.706 14.3065 133.626 12.8578 131.877C12.5553 131.512 12.6061 130.97 12.9713 130.668Z" fill="#6ABC5E"/>
<path fill-rule="evenodd" clip-rule="evenodd" d="M12.9713 104.907C13.3365 104.604 13.8778 104.655 14.1804 105.02C15.4387 106.539 17.7723 108.333 20.6349 108.792C23.4321 109.241 26.8888 108.442 30.5304 104.512C30.8527 104.164 31.396 104.143 31.7439 104.465C32.0918 104.788 32.1125 105.331 31.7902 105.679C27.8157 109.969 23.8053 111.04 20.3627 110.488C16.9855 109.946 14.3065 107.865 12.8578 106.116C12.5553 105.751 12.6061 105.21 12.9713 104.907Z" fill="#6ABC5E"/>
<path fill-rule="evenodd" clip-rule="evenodd" d="M12.9713 79.1462C13.3365 78.8436 13.8778 78.8944 14.1804 79.2596C15.4387 80.7786 17.7723 82.5717 20.6349 83.0313C23.4321 83.4804 26.8888 82.6816 30.5304 78.7509C30.8527 78.403 31.396 78.3822 31.7439 78.7045C32.0918 79.0268 32.1125 79.5701 31.7902 79.918C27.8157 84.2081 23.8053 85.2797 20.3627 84.727C16.9855 84.1848 14.3065 82.104 12.8578 80.3553C12.5553 79.9901 12.6061 79.4487 12.9713 79.1462Z" fill="#6ABC5E"/>
</svg>
