<svg width="91" height="197" viewBox="0 0 91 197" fill="none" xmlns="http://www.w3.org/2000/svg">
<path fill-rule="evenodd" clip-rule="evenodd" d="M51.1581 174.651C54.026 163.457 58.6209 129.31 50.9731 92.1321C44.0175 58.3197 19.4202 38.2866 9.50724 33.1682C1.07949 28.8167 -2.22495 18.457 2.12657 10.0293C6.4781 1.60153 16.8377 -1.7029 25.2655 2.64862C42.0939 11.3377 75.098 38.9404 84.6163 85.2113C93.4424 128.117 88.4275 167.577 84.4313 183.176C82.0774 192.364 72.7207 197.904 63.5326 195.55C54.3444 193.196 48.8042 183.839 51.1581 174.651Z" fill="#7CD86E"/>
<path d="M80.5999 180.861C75.2012 180.861 70.8246 176.484 70.8246 171.085C70.8246 165.687 75.2012 161.31 80.5999 161.31C85.9987 161.31 90.3752 165.687 90.3752 171.085C90.3752 176.484 85.9987 180.861 80.5999 180.861Z" fill="white"/>
<path d="M80.5999 176.644C77.5301 176.644 75.0414 174.155 75.0414 171.086C75.0414 168.016 77.5301 165.527 80.5999 165.527C83.6698 165.527 86.1584 168.016 86.1584 171.086C86.1584 174.155 83.6698 176.644 80.5999 176.644Z" fill="#1D1D1B"/>
<path d="M57.2159 180.861C51.8172 180.861 47.4406 176.484 47.4406 171.085C47.4406 165.687 51.8172 161.31 57.2159 161.31C62.6147 161.31 66.9912 165.687 66.9912 171.085C66.9912 176.484 62.6147 180.861 57.2159 180.861Z" fill="white"/>
<path d="M57.2159 176.644C54.146 176.644 51.6574 174.155 51.6574 171.086C51.6574 168.016 54.146 165.527 57.2159 165.527C60.2858 165.527 62.7744 168.016 62.7744 171.086C62.7744 174.155 60.2858 176.644 57.2159 176.644Z" fill="#1D1D1B"/>
<path fill-rule="evenodd" clip-rule="evenodd" d="M74.5403 186.09C74.7266 186.236 74.7588 186.506 74.6121 186.692C73.2613 188.408 70.9207 190.512 68.2928 191.133C66.9641 191.447 65.5556 191.382 64.1815 190.688C62.813 189.998 61.5195 188.704 60.3746 186.635C60.2598 186.427 60.335 186.166 60.5425 186.051C60.75 185.936 61.0112 186.012 61.126 186.219C62.2137 188.185 63.3962 189.33 64.5684 189.922C65.735 190.511 66.9321 190.572 68.0954 190.297C70.4516 189.741 72.6406 187.809 73.9374 186.161C74.0841 185.975 74.354 185.943 74.5403 186.09Z" fill="#1D1D1B"/>
<path fill-rule="evenodd" clip-rule="evenodd" d="M27.2592 11.839C27.2916 12.3121 26.9343 12.7219 26.4611 12.7543C24.4932 12.8889 21.6749 13.7364 19.6304 15.792C17.6325 17.8006 16.2626 21.0732 17.3274 26.3247C17.4216 26.7895 17.1212 27.2427 16.6565 27.3369C16.1917 27.4312 15.7385 27.1308 15.6443 26.666C14.4821 20.9344 15.9539 17.053 18.4127 14.5809C20.8249 12.1557 24.0783 11.1959 26.3439 11.0409C26.817 11.0085 27.2268 11.3658 27.2592 11.839Z" fill="#6ABC5E"/>
<path fill-rule="evenodd" clip-rule="evenodd" d="M46.7138 28.3055C46.6452 28.7748 46.2093 29.0996 45.74 29.031C43.7882 28.7459 40.8544 28.9773 38.4208 30.5532C36.0429 32.0931 34.011 35.0014 33.9394 40.3593C33.9331 40.8335 33.5436 41.2128 33.0694 41.2065C32.5952 41.2001 32.2159 40.8106 32.2222 40.3364C32.3003 34.4887 34.5607 31.007 37.4873 29.1117C40.3583 27.2524 43.7413 27.0034 45.9883 27.3317C46.4576 27.4003 46.7824 27.8363 46.7138 28.3055Z" fill="#6ABC5E"/>
<path fill-rule="evenodd" clip-rule="evenodd" d="M62.0294 45.9668C61.8859 46.4188 61.4031 46.6689 60.9511 46.5253C59.0711 45.9284 56.1384 45.6824 53.4821 46.8442C50.8865 47.9794 48.4112 50.5209 47.4744 55.7968C47.3914 56.2637 46.9457 56.575 46.4788 56.4921C46.0118 56.4092 45.7005 55.9635 45.7834 55.4965C46.8059 49.7384 49.5994 46.6679 52.794 45.2707C55.9278 43.9001 59.3065 44.2012 61.4709 44.8885C61.9229 45.032 62.1729 45.5148 62.0294 45.9668Z" fill="#6ABC5E"/>
<path fill-rule="evenodd" clip-rule="evenodd" d="M72.2869 68.1983C72.0435 68.6053 71.5162 68.738 71.1092 68.4946C69.4163 67.4822 66.6183 66.57 63.7663 67.0913C60.9795 67.6008 57.9871 69.5066 55.8648 74.4268C55.677 74.8622 55.1717 75.063 54.7362 74.8751C54.3008 74.6873 54.1 74.182 54.2878 73.7466C56.6041 68.3766 60.0276 66.0289 63.4575 65.4019C66.8222 64.7868 70.0417 65.8551 71.9906 67.0206C72.3976 67.264 72.5303 67.7913 72.2869 68.1983Z" fill="#6ABC5E"/>
<path fill-rule="evenodd" clip-rule="evenodd" d="M78.951 92.5191C78.6103 92.849 78.0667 92.8403 77.7367 92.4996C76.3646 91.0826 73.8992 89.4755 71.0096 89.2389C68.186 89.0077 64.8015 90.0716 61.4752 94.2725C61.1808 94.6443 60.6407 94.7071 60.2689 94.4127C59.8971 94.1183 59.8344 93.5782 60.1288 93.2064C63.7592 88.6215 67.6746 87.2427 71.1497 87.5272C74.5588 87.8064 77.3908 89.6735 78.9705 91.3049C79.3004 91.6456 79.2917 92.1892 78.951 92.5191Z" fill="#6ABC5E"/>
<path fill-rule="evenodd" clip-rule="evenodd" d="M80.9277 115.079C80.5163 115.314 79.9915 115.172 79.7556 114.761C78.7743 113.05 76.7802 110.885 74.0377 109.945C71.3579 109.026 67.8156 109.224 63.5578 112.477C63.181 112.765 62.6421 112.693 62.3541 112.316C62.0662 111.94 62.1383 111.401 62.5152 111.113C67.1623 107.562 71.2966 107.189 74.5948 108.32C77.8303 109.43 80.1157 111.937 81.2454 113.906C81.4813 114.318 81.3391 114.843 80.9277 115.079Z" fill="#6ABC5E"/>
<path fill-rule="evenodd" clip-rule="evenodd" d="M81.3569 136.117C80.9455 136.352 80.4207 136.21 80.1848 135.799C79.2035 134.088 77.2094 131.923 74.4669 130.983C71.7871 130.064 68.2448 130.262 63.987 133.515C63.6101 133.803 63.0713 133.731 62.7833 133.354C62.4954 132.978 62.5675 132.439 62.9444 132.151C67.5914 128.6 71.7258 128.227 75.024 129.358C78.2595 130.468 80.5449 132.975 81.6746 134.944C81.9105 135.356 81.7683 135.881 81.3569 136.117Z" fill="#6ABC5E"/>
<path d="M60.9647 186.212L74.0598 186.212C72.9864 187.643 70.1528 190.549 67.4049 190.72C64.6571 190.892 61.9666 187.787 60.9647 186.212Z" fill="#1D1D1B"/>
<path fill-rule="evenodd" clip-rule="evenodd" d="M74.4893 185.998L74.2316 186.341C73.6851 187.07 72.6953 188.168 71.4926 189.108C70.2943 190.044 68.8568 190.845 67.4184 190.935C65.9623 191.026 64.5487 190.25 63.3927 189.286C62.2314 188.318 61.2943 187.13 60.7837 186.328L60.5738 185.998L74.4893 185.998ZM73.6188 186.427L61.3658 186.427C61.885 187.174 62.6968 188.147 63.6677 188.956C64.7943 189.896 66.1 190.587 67.3916 190.506C68.7011 190.424 70.0544 189.687 71.2282 188.769C72.2201 187.995 73.064 187.107 73.6188 186.427Z" fill="#1D1D1B"/>
</svg>
