<svg width="91" height="197" viewBox="0 0 91 197" fill="none" xmlns="http://www.w3.org/2000/svg">
<path fill-rule="evenodd" clip-rule="evenodd" d="M51.1308 174.652C53.9987 163.457 58.5935 129.31 50.9457 92.1323C43.9902 58.32 19.3929 38.2869 9.4799 33.1685C1.05215 28.8169 -2.25229 18.4573 2.09923 10.0296C6.45075 1.60181 16.8104 -1.70263 25.2381 2.64889C42.0666 11.338 75.0706 38.9406 84.589 85.2116C93.4151 128.117 88.4001 167.577 84.4039 183.176C82.05 192.364 72.6934 197.904 63.5052 195.55C54.3171 193.196 48.7769 183.84 51.1308 174.652Z" fill="#A7A7A7"/>
<path d="M80.5728 180.861C75.1741 180.861 70.7975 176.485 70.7975 171.086C70.7975 165.687 75.1741 161.31 80.5728 161.31C85.9716 161.31 90.3481 165.687 90.3481 171.086C90.3481 176.485 85.9716 180.861 80.5728 180.861Z" fill="white"/>
<path d="M80.5728 176.644C77.503 176.644 75.0143 174.155 75.0143 171.086C75.0143 168.016 77.503 165.527 80.5728 165.527C83.6427 165.527 86.1313 168.016 86.1313 171.086C86.1313 174.155 83.6427 176.644 80.5728 176.644Z" fill="#1D1D1B"/>
<path d="M57.1891 180.861C51.7903 180.861 47.4137 176.484 47.4137 171.086C47.4137 165.687 51.7903 161.31 57.1891 161.31C62.5878 161.31 66.9644 165.687 66.9644 171.086C66.9644 176.484 62.5878 180.861 57.1891 180.861Z" fill="white"/>
<path d="M57.1891 176.644C54.1192 176.644 51.6305 174.155 51.6305 171.086C51.6305 168.016 54.1192 165.527 57.1891 165.527C60.2589 165.527 62.7476 168.016 62.7476 171.086C62.7476 174.155 60.2589 176.644 57.1891 176.644Z" fill="#1D1D1B"/>
<path fill-rule="evenodd" clip-rule="evenodd" d="M74.513 186.09C74.6993 186.237 74.7314 186.507 74.5847 186.693C73.2339 188.409 70.8933 190.513 68.2655 191.133C66.9368 191.447 65.5283 191.382 64.1542 190.689C62.7856 189.998 61.4922 188.705 60.3473 186.635C60.2325 186.428 60.3077 186.166 60.5151 186.052C60.7226 185.937 60.9839 186.012 61.0987 186.22C62.1864 188.186 63.3688 189.331 64.541 189.922C65.7077 190.511 66.9047 190.572 68.0681 190.298C70.4242 189.741 72.6132 187.809 73.91 186.162C74.0567 185.975 74.3267 185.943 74.513 186.09Z" fill="#1D1D1B"/>
<path fill-rule="evenodd" clip-rule="evenodd" d="M27.2323 11.8392C27.2647 12.3123 26.9074 12.7221 26.4343 12.7545C24.4664 12.8891 21.6481 13.7366 19.6035 15.7922C17.6056 17.8008 16.2358 21.0735 17.3005 26.325C17.3948 26.7898 17.0944 27.2429 16.6296 27.3372C16.1648 27.4314 15.7116 27.131 15.6174 26.6662C14.4553 20.9347 15.927 17.0532 18.3859 14.5811C20.798 12.156 24.0515 11.1961 26.317 11.0411C26.7902 11.0088 27.2 11.3661 27.2323 11.8392Z" fill="#434342"/>
<path fill-rule="evenodd" clip-rule="evenodd" d="M46.6865 28.3058C46.6179 28.7751 46.1819 29.0999 45.7126 29.0313C43.7609 28.7462 40.827 28.9776 38.3935 30.5535C36.0156 32.0934 33.9837 35.0017 33.9121 40.3596C33.9058 40.8338 33.5162 41.2131 33.042 41.2068C32.5678 41.2004 32.1885 40.8109 32.1949 40.3367C32.273 34.489 34.5333 31.0073 37.46 29.112C40.331 27.2527 43.714 27.0037 45.9609 27.332C46.4302 27.4006 46.755 27.8366 46.6865 28.3058Z" fill="#434342"/>
<path fill-rule="evenodd" clip-rule="evenodd" d="M62.0028 45.967C61.8593 46.419 61.3765 46.6691 60.9245 46.5256C59.0445 45.9286 56.1118 45.6826 53.4555 46.8444C50.8599 47.9797 48.3846 50.5212 47.4478 55.797C47.3648 56.264 46.9191 56.5753 46.4522 56.4924C45.9852 56.4095 45.6739 55.9637 45.7568 55.4968C46.7793 49.7386 49.5728 46.6682 52.7673 45.271C55.9012 43.9003 59.2799 44.2015 61.4443 44.8887C61.8963 45.0323 62.1463 45.515 62.0028 45.967Z" fill="#434342"/>
<path fill-rule="evenodd" clip-rule="evenodd" d="M72.26 68.1986C72.0166 68.6056 71.4893 68.7382 71.0823 68.4948C69.3895 67.4824 66.5914 66.5702 63.7394 67.0916C60.9526 67.601 57.9602 69.5068 55.8379 74.427C55.6501 74.8625 55.1448 75.0632 54.7094 74.8754C54.2739 74.6875 54.0732 74.1823 54.261 73.7468C56.5773 68.3768 60.0007 66.0292 63.4306 65.4022C66.7953 64.7871 70.0148 65.8554 71.9638 67.0209C72.3708 67.2643 72.5034 67.7915 72.26 68.1986Z" fill="#434342"/>
<path fill-rule="evenodd" clip-rule="evenodd" d="M78.9239 92.5194C78.5832 92.8493 78.0396 92.8406 77.7096 92.4999C76.3375 91.0829 73.8721 89.4758 70.9825 89.2392C68.1589 89.008 64.7744 90.0719 61.4481 94.2728C61.1537 94.6446 60.6136 94.7073 60.2418 94.4129C59.87 94.1185 59.8073 93.5785 60.1017 93.2067C63.7321 88.6218 67.6475 87.243 71.1226 87.5275C74.5317 87.8067 77.3637 89.6738 78.9434 91.3052C79.2733 91.6459 79.2646 92.1895 78.9239 92.5194Z" fill="#434342"/>
<path fill-rule="evenodd" clip-rule="evenodd" d="M80.9006 115.079C80.4892 115.315 79.9644 115.173 79.7285 114.761C78.7472 113.05 76.7531 110.886 74.0106 109.945C71.3308 109.026 67.7886 109.225 63.5307 112.478C63.1539 112.766 62.615 112.694 62.327 112.317C62.0391 111.94 62.1112 111.401 62.4881 111.113C67.1352 107.563 71.2695 107.19 74.5677 108.321C77.8032 109.43 80.0886 111.937 81.2183 113.907C81.4542 114.318 81.312 114.843 80.9006 115.079Z" fill="#434342"/>
<path fill-rule="evenodd" clip-rule="evenodd" d="M81.3298 136.117C80.9184 136.353 80.3936 136.21 80.1577 135.799C79.1764 134.088 77.1823 131.924 74.4398 130.983C71.76 130.064 68.2177 130.263 63.9599 133.516C63.5831 133.804 63.0442 133.732 62.7562 133.355C62.4683 132.978 62.5404 132.439 62.9173 132.151C67.5644 128.601 71.6987 128.228 74.9969 129.359C78.2324 130.468 80.5178 132.975 81.6475 134.945C81.8834 135.356 81.7412 135.881 81.3298 136.117Z" fill="#434342"/>
<path d="M60.9381 186.213L74.0332 186.213C72.9598 187.644 70.1261 190.549 67.3783 190.721C64.6305 190.892 61.9399 187.787 60.9381 186.213Z" fill="#1D1D1B"/>
<path fill-rule="evenodd" clip-rule="evenodd" d="M74.4624 185.998L74.2048 186.341C73.6582 187.07 72.6685 188.168 71.4657 189.108C70.2674 190.044 68.83 190.845 67.3916 190.935C65.9354 191.026 64.5219 190.25 63.3658 189.286C62.2046 188.318 61.2674 187.13 60.7569 186.328L60.5469 185.998L74.4624 185.998ZM73.592 186.427L61.339 186.427C61.8582 187.175 62.6699 188.147 63.6408 188.957C64.7675 189.896 66.0731 190.587 67.3648 190.506C68.6742 190.425 70.0275 189.687 71.2014 188.77C72.1932 187.995 73.0372 187.107 73.592 186.427Z" fill="#1D1D1B"/>
</svg>
