<svg width="141" height="237" viewBox="0 0 141 237" fill="none" xmlns="http://www.w3.org/2000/svg">
<path fill-rule="evenodd" clip-rule="evenodd" d="M118.091 0.0514199C127.548 -0.676034 135.804 6.4006 136.532 15.8575C138.481 41.1945 125.909 94.0525 67.1222 124.129C46.9303 134.46 38.353 150.512 35.4839 167.32C32.4896 184.861 35.9198 202.83 39.9555 213.572C43.2913 222.451 38.7976 232.353 29.9187 235.688C21.0398 239.024 11.1378 234.53 7.80207 225.652C2.10597 210.49 -2.59994 186.296 1.62591 161.54C5.977 136.05 19.9762 109.668 51.4776 93.5512C96.0779 70.7325 103.342 32.2254 102.285 18.4919C101.558 9.03494 108.634 0.778872 118.091 0.0514199Z" fill="#7CD86E"/>
<path fill-rule="evenodd" clip-rule="evenodd" d="M16.5468 222.873C16.8384 222.499 17.378 222.432 17.752 222.724C19.3076 223.936 21.9724 225.185 24.8668 225.018C27.6951 224.855 30.899 223.332 33.6098 218.709C33.8497 218.3 34.3758 218.163 34.7849 218.403C35.194 218.643 35.3311 219.169 35.0912 219.578C32.1327 224.623 28.4467 226.532 24.9657 226.733C21.5509 226.93 18.4871 225.474 16.6961 224.078C16.3221 223.787 16.2553 223.247 16.5468 222.873Z" fill="#6ABC5E"/>
<path fill-rule="evenodd" clip-rule="evenodd" d="M8.70442 195.738C9.04706 195.41 9.59062 195.422 9.9185 195.765C11.2822 197.19 13.7381 198.812 16.6262 199.065C19.4483 199.313 22.8391 198.27 26.1903 194.089C26.4869 193.718 27.0274 193.659 27.3974 193.956C27.7674 194.252 27.827 194.793 27.5304 195.163C23.8728 199.726 19.9492 201.081 16.4759 200.776C13.0685 200.477 10.2477 198.593 8.67769 196.952C8.34981 196.61 8.36178 196.066 8.70442 195.738Z" fill="#6ABC5E"/>
<path fill-rule="evenodd" clip-rule="evenodd" d="M9.07194 164.256C9.49392 164.04 10.0114 164.207 10.2279 164.629C11.128 166.384 13.0188 168.639 15.7143 169.707C18.3483 170.75 21.8959 170.717 26.3012 167.667C26.6911 167.397 27.226 167.494 27.496 167.884C27.766 168.274 27.6688 168.809 27.2789 169.079C22.4708 172.408 18.3236 172.587 15.0819 171.303C11.9018 170.044 9.7361 167.433 8.69976 165.412C8.48333 164.99 8.64996 164.473 9.07194 164.256Z" fill="#6ABC5E"/>
<path fill-rule="evenodd" clip-rule="evenodd" d="M19.2488 135.906C19.7182 135.839 20.1533 136.165 20.2207 136.634C20.5007 138.586 21.5547 141.334 23.7561 143.221C25.9072 145.064 29.2724 146.188 34.4305 144.737C34.8871 144.609 35.3613 144.875 35.4897 145.331C35.6181 145.788 35.3521 146.262 34.8956 146.39C29.2658 147.974 25.286 146.794 22.6386 144.525C20.0414 142.299 18.8431 139.126 18.5207 136.878C18.4533 136.408 18.7793 135.973 19.2488 135.906Z" fill="#6ABC5E"/>
<path fill-rule="evenodd" clip-rule="evenodd" d="M36.852 113.151C37.3215 113.083 37.7566 113.409 37.8239 113.879C38.104 115.831 39.158 118.579 41.3594 120.466C43.5105 122.309 46.8756 123.433 52.0338 121.982C52.4903 121.853 52.9645 122.119 53.093 122.576C53.2214 123.032 52.9554 123.507 52.4989 123.635C46.8691 125.219 42.8893 124.038 40.2418 121.77C37.6446 119.544 36.4464 116.37 36.124 114.122C36.0566 113.653 36.3826 113.218 36.852 113.151Z" fill="#6ABC5E"/>
<path fill-rule="evenodd" clip-rule="evenodd" d="M67.1405 92.7511C67.604 92.8512 67.8986 93.3082 67.7984 93.7717C67.3818 95.6997 67.4142 98.6425 68.8218 101.177C70.1973 103.654 72.9615 105.878 78.3022 106.312C78.7749 106.35 79.127 106.765 79.0886 107.237C79.0501 107.71 78.6358 108.062 78.1631 108.024C72.3341 107.55 69.0134 105.059 67.3205 102.011C65.6597 99.0207 65.6402 95.6287 66.1198 93.409C66.2199 92.9455 66.6769 92.6509 67.1405 92.7511Z" fill="#6ABC5E"/>
<path fill-rule="evenodd" clip-rule="evenodd" d="M88.7943 75.5018C89.258 75.402 89.7147 75.6969 89.8146 76.1605C90.2299 78.0887 91.4727 80.7564 93.8001 82.4852C96.0744 84.1745 99.5096 85.0611 104.554 83.2546C105.001 83.0947 105.492 83.327 105.652 83.7735C105.812 84.2199 105.58 84.7115 105.133 84.8714C99.6274 86.8431 95.5751 85.943 92.7761 83.8639C90.0302 81.8243 88.6139 78.742 88.1357 76.5221C88.0359 76.0585 88.3307 75.6017 88.7943 75.5018Z" fill="#6ABC5E"/>
<path fill-rule="evenodd" clip-rule="evenodd" d="M102.396 51.9624C102.858 51.8557 103.319 52.1438 103.426 52.6059C103.87 54.5279 105.151 57.1771 107.504 58.8716C109.803 60.5273 113.25 61.3634 118.268 59.483C118.712 59.3166 119.207 59.5417 119.373 59.9858C119.54 60.4299 119.315 60.9248 118.871 61.0912C113.394 63.1435 109.329 62.3029 106.5 60.2651C103.725 58.266 102.263 55.2048 101.753 52.9922C101.646 52.5301 101.934 52.069 102.396 51.9624Z" fill="#6ABC5E"/>
<path d="M106.428 31.5731C101.03 31.5731 96.653 27.1966 96.653 21.7978C96.653 16.3991 101.03 12.0225 106.428 12.0225C111.827 12.0225 116.204 16.3991 116.204 21.7978C116.204 27.1966 111.827 31.5731 106.428 31.5731Z" fill="white"/>
<path d="M106.428 27.3563C103.358 27.3563 100.87 24.8677 100.87 21.7978C100.87 18.7279 103.358 16.2393 106.428 16.2393C109.498 16.2393 111.987 18.7279 111.987 21.7978C111.987 24.8677 109.498 27.3563 106.428 27.3563Z" fill="#1D1D1B"/>
<path d="M130.901 32.8612C125.502 32.8612 121.126 28.4846 121.126 23.0859C121.126 17.6871 125.502 13.3106 130.901 13.3106C136.3 13.3106 140.676 17.6871 140.676 23.0859C140.676 28.4846 136.3 32.8612 130.901 32.8612Z" fill="white"/>
<path d="M130.901 28.6444C127.831 28.6444 125.342 26.1557 125.342 23.0858C125.342 20.016 127.831 17.5273 130.901 17.5273C133.971 17.5273 136.459 20.016 136.459 23.0858C136.459 26.1557 133.971 28.6444 130.901 28.6444Z" fill="#1D1D1B"/>
<path d="M126.42 10.1661L113.398 8.78412C114.616 7.47423 117.741 4.88426 120.491 5.00347C123.242 5.12268 125.59 8.4949 126.42 10.1661Z" fill="#1D1D1B"/>
<path fill-rule="evenodd" clip-rule="evenodd" d="M112.948 8.95224L113.24 8.63787C113.861 7.97082 114.961 6.98321 116.256 6.17567C117.547 5.37115 119.061 4.72655 120.5 4.78896C121.958 4.85213 123.282 5.77273 124.33 6.8533C125.382 7.93879 126.189 9.21883 126.612 10.0706L126.786 10.4208L112.948 8.95224ZM113.859 8.61715L126.043 9.91027C125.606 9.11226 124.901 8.05973 124.021 7.15219C123 6.09906 121.775 5.27394 120.482 5.2179C119.171 5.1611 117.747 5.75188 116.483 6.54001C115.415 7.20594 114.482 7.99934 113.859 8.61715Z" fill="#1D1D1B"/>
</svg>
