<svg width="44" height="239" viewBox="0 0 44 239" fill="none" xmlns="http://www.w3.org/2000/svg">
<path fill-rule="evenodd" clip-rule="evenodd" d="M22.8758 0.0117188C32.3606 0.0117188 40.0496 7.70072 40.0496 17.1856V221.555C40.0496 231.039 32.3606 238.728 22.8758 238.728C13.3909 238.728 5.7019 231.039 5.7019 221.555V17.1856C5.7019 7.70072 13.3909 0.0117188 22.8758 0.0117188Z" fill="#A7A7A7"/>
<path d="M10.7542 36.7362C5.35549 36.7362 0.978935 32.3596 0.978935 26.9608C0.978935 21.5621 5.35549 17.1855 10.7542 17.1855C16.153 17.1855 20.5295 21.5621 20.5295 26.9608C20.5295 32.3596 16.153 36.7362 10.7542 36.7362Z" fill="white"/>
<path d="M10.7542 32.5193C7.68436 32.5193 5.19573 30.0307 5.19573 26.9608C5.19573 23.8909 7.68436 21.4023 10.7542 21.4023C13.8241 21.4023 16.3127 23.8909 16.3127 26.9608C16.3127 30.0307 13.8241 32.5193 10.7542 32.5193Z" fill="#1D1D1B"/>
<path d="M33.9388 36.7362C28.5401 36.7362 24.1635 32.3596 24.1635 26.9608C24.1635 21.5621 28.5401 17.1855 33.9388 17.1855C39.3376 17.1855 43.7141 21.5621 43.7141 26.9608C43.7141 32.3596 39.3376 36.7362 33.9388 36.7362Z" fill="white"/>
<path d="M33.9388 32.5193C30.8689 32.5193 28.3803 30.0307 28.3803 26.9608C28.3803 23.8909 30.8689 21.4023 33.9388 21.4023C37.0087 21.4023 39.4973 23.8909 39.4973 26.9608C39.4973 30.0307 37.0087 32.5193 33.9388 32.5193Z" fill="#1D1D1B"/>
<path d="M15.1476 42.9463L28.2427 42.9464C27.1693 44.3775 24.3356 47.2828 21.5878 47.4545C18.84 47.6262 16.1494 44.5206 15.1476 42.9463Z" fill="#1D1D1B"/>
<path fill-rule="evenodd" clip-rule="evenodd" d="M28.6719 42.7317L28.4143 43.0752C27.8677 43.804 26.8779 44.9022 25.6752 45.8419C24.4769 46.7781 23.0395 47.5789 21.601 47.6688C20.1449 47.7598 18.7313 46.984 17.5753 46.0201C16.414 45.0517 15.4769 43.8639 14.9663 43.0616L14.7564 42.7317L28.6719 42.7317ZM27.8015 43.161L15.5484 43.161C16.0677 43.9084 16.8794 44.8807 17.8503 45.6903C18.977 46.6298 20.2826 47.321 21.5743 47.2402C22.8837 47.1584 24.237 46.4207 25.4108 45.5036C26.4027 44.7286 27.2466 43.8412 27.8015 43.161Z" fill="#1D1D1B"/>
<path fill-rule="evenodd" clip-rule="evenodd" d="M13.9442 219.113C14.3094 218.811 14.8507 218.861 15.1533 219.227C16.4116 220.746 18.7452 222.539 21.6078 222.998C24.405 223.447 27.8617 222.649 31.5033 218.718C31.8256 218.37 32.3689 218.349 32.7168 218.672C33.0647 218.994 33.0854 219.537 32.7631 219.885C28.7886 224.175 24.7782 225.247 21.3356 224.694C17.9584 224.152 15.2794 222.071 13.8307 220.322C13.5282 219.957 13.579 219.416 13.9442 219.113Z" fill="#434342"/>
<path fill-rule="evenodd" clip-rule="evenodd" d="M13.9442 197.646C14.3094 197.343 14.8507 197.394 15.1533 197.759C16.4116 199.278 18.7452 201.071 21.6078 201.531C24.405 201.98 27.8617 201.181 31.5033 197.251C31.8256 196.903 32.3689 196.882 32.7168 197.204C33.0647 197.526 33.0854 198.07 32.7631 198.418C28.7886 202.708 24.7782 203.779 21.3356 203.227C17.9584 202.684 15.2794 200.604 13.8307 198.855C13.5282 198.49 13.579 197.948 13.9442 197.646Z" fill="#434342"/>
<path fill-rule="evenodd" clip-rule="evenodd" d="M13.9442 176.179C14.3094 175.876 14.8507 175.927 15.1533 176.292C16.4116 177.811 18.7452 179.604 21.6078 180.064C24.405 180.513 27.8617 179.714 31.5033 175.783C31.8256 175.435 32.3689 175.415 32.7168 175.737C33.0647 176.059 33.0854 176.602 32.7631 176.95C28.7886 181.24 24.7782 182.312 21.3356 181.759C17.9584 181.217 15.2794 179.136 13.8307 177.388C13.5282 177.022 13.579 176.481 13.9442 176.179Z" fill="#434342"/>
<path fill-rule="evenodd" clip-rule="evenodd" d="M13.9442 154.711C14.3094 154.409 14.8507 154.459 15.1533 154.825C16.4116 156.344 18.7452 158.137 21.6078 158.596C24.405 159.045 27.8617 158.247 31.5033 154.316C31.8256 153.968 32.3689 153.947 32.7168 154.27C33.0647 154.592 33.0854 155.135 32.7631 155.483C28.7886 159.773 24.7782 160.845 21.3356 160.292C17.9584 159.75 15.2794 157.669 13.8307 155.92C13.5282 155.555 13.579 155.014 13.9442 154.711Z" fill="#434342"/>
<path fill-rule="evenodd" clip-rule="evenodd" d="M13.9442 130.668C14.3094 130.365 14.8507 130.416 15.1533 130.781C16.4116 132.3 18.7452 134.093 21.6078 134.553C24.405 135.002 27.8617 134.203 31.5033 130.272C31.8256 129.925 32.3689 129.904 32.7168 130.226C33.0647 130.548 33.0854 131.092 32.7631 131.44C28.7886 135.73 24.7782 136.801 21.3356 136.249C17.9584 135.706 15.2794 133.626 13.8307 131.877C13.5282 131.512 13.579 130.97 13.9442 130.668Z" fill="#434342"/>
<path fill-rule="evenodd" clip-rule="evenodd" d="M13.9442 104.907C14.3094 104.604 14.8507 104.655 15.1533 105.02C16.4116 106.539 18.7452 108.333 21.6078 108.792C24.405 109.241 27.8617 108.442 31.5033 104.512C31.8256 104.164 32.3689 104.143 32.7168 104.465C33.0647 104.788 33.0854 105.331 32.7631 105.679C28.7886 109.969 24.7782 111.041 21.3356 110.488C17.9584 109.946 15.2794 107.865 13.8307 106.116C13.5282 105.751 13.579 105.21 13.9442 104.907Z" fill="#434342"/>
<path fill-rule="evenodd" clip-rule="evenodd" d="M13.9442 79.1462C14.3094 78.8436 14.8507 78.8944 15.1533 79.2596C16.4116 80.7786 18.7452 82.5717 21.6078 83.0313C24.405 83.4804 27.8617 82.6816 31.5033 78.7508C31.8256 78.4029 32.3689 78.3822 32.7168 78.7045C33.0647 79.0268 33.0854 79.5701 32.7631 79.918C28.7886 84.2081 24.7782 85.2797 21.3356 84.727C17.9584 84.1848 15.2794 82.104 13.8307 80.3552C13.5282 79.99 13.579 79.4487 13.9442 79.1462Z" fill="#434342"/>
</svg>
