<svg width="38" height="34" viewBox="0 0 38 34" fill="none" xmlns="http://www.w3.org/2000/svg">
<path d="M12.1746 22.0025H32.0503C32.5424 22.0025 32.9742 21.6771 33.1074 21.2044L37.5081 5.80252C37.6027 5.47048 37.5379 5.11381 37.3296 4.83792C37.1211 4.56289 36.7968 4.40045 36.4507 4.40045H9.63487L8.84846 0.861755C8.73673 0.357823 8.28981 0 7.77413 0H1.10011C0.492186 0 0 0.492186 0 1.10011C0 1.70833 0.492186 2.20023 1.10011 2.20023H6.89118L10.8639 20.0771C9.69503 20.5853 8.87425 21.7487 8.87425 23.1027C8.87425 24.9224 10.3548 26.403 12.1746 26.403H32.0503C32.6585 26.403 33.1504 25.9111 33.1504 25.3029C33.1504 24.695 32.6585 24.2028 32.0503 24.2028H12.1746C11.5687 24.2028 11.0745 23.7097 11.0745 23.1027C11.0745 22.4956 11.5687 22.0025 12.1746 22.0025V22.0025Z" fill="white"/>
<path d="M11.0745 29.7034C11.0745 31.5235 12.555 33.0038 14.3751 33.0038C16.1949 33.0038 17.6754 31.5235 17.6754 29.7034C17.6754 27.8836 16.1949 26.4031 14.3751 26.4031C12.555 26.4031 11.0745 27.8836 11.0745 29.7034Z" fill="white"/>
<path d="M26.5497 29.7034C26.5497 31.5235 28.0303 33.0038 29.85 33.0038C31.6701 33.0038 33.1504 31.5235 33.1504 29.7034C33.1504 27.8836 31.6701 26.4031 29.85 26.4031C28.0303 26.4031 26.5497 27.8836 26.5497 29.7034Z" fill="white"/>
</svg>
