<svg width="40" height="40" viewBox="0 0 40 40" fill="none" xmlns="http://www.w3.org/2000/svg">
<path d="M15.1117 23.1692H26.5334C26.8162 23.1692 27.0643 22.9782 27.1409 22.7008L29.6698 13.6636C29.7241 13.4687 29.6869 13.2595 29.5672 13.0976C29.4473 12.9362 29.261 12.8409 29.0621 12.8409H13.6523L13.2003 10.7645C13.1361 10.4688 12.8793 10.2589 12.583 10.2589H8.74772C8.39838 10.2589 8.11554 10.5476 8.11554 10.9044C8.11554 11.2612 8.39838 11.5499 8.74772 11.5499H12.0756L14.3585 22.0394C13.6868 22.3376 13.2152 23.0202 13.2152 23.8147C13.2152 24.8825 14.066 25.7512 15.1117 25.7512H26.5334C26.8829 25.7512 27.1655 25.4626 27.1655 25.1057C27.1655 24.749 26.8829 24.4602 26.5334 24.4602H15.1117C14.7635 24.4602 14.4795 24.1709 14.4795 23.8147C14.4795 23.4585 14.7635 23.1692 15.1117 23.1692Z" fill="#FD5F60"/>
<path d="M14.7552 27.6878C14.7552 28.7557 15.6239 29.6243 16.6918 29.6243C17.7596 29.6243 18.6283 28.7557 18.6283 27.6878C18.6283 26.62 17.7596 25.7512 16.6918 25.7512C15.6239 25.7512 14.7552 26.62 14.7552 27.6878Z" fill="#FD5F60"/>
<path d="M23.6079 27.6878C23.6079 28.7557 24.4767 29.6243 25.5445 29.6243C26.6124 29.6243 27.481 28.7557 27.481 27.6878C27.481 26.62 26.6124 25.7512 25.5445 25.7512C24.4767 25.7512 23.6079 26.62 23.6079 27.6878Z" fill="#FD5F60"/>
<path fill-rule="evenodd" clip-rule="evenodd" d="M20.0115 38.0531C30.0142 38.0531 38.123 29.9443 38.123 19.9416C38.123 9.93884 30.0142 1.83002 20.0115 1.83002C10.0088 1.83002 1.89994 9.93884 1.89994 19.9416C1.89994 29.9443 10.0088 38.0531 20.0115 38.0531ZM20.0115 39.5837C30.8595 39.5837 39.6536 30.7896 39.6536 19.9416C39.6536 9.09354 30.8595 0.299469 20.0115 0.299469C9.16345 0.299469 0.369385 9.09354 0.369385 19.9416C0.369385 30.7896 9.16345 39.5837 20.0115 39.5837Z" fill="#FD5F60"/>
</svg>
