<svg width="183" height="37" viewBox="0 0 183 37" fill="none" xmlns="http://www.w3.org/2000/svg">
<path d="M17.5489 2.92705C17.8483 2.00574 19.1517 2.00574 19.4511 2.92705L22.429 12.0922C22.5629 12.5042 22.9468 12.7832 23.3801 12.7832H33.0169C33.9856 12.7832 34.3884 14.0228 33.6046 14.5922L25.8083 20.2566C25.4578 20.5112 25.3112 20.9626 25.445 21.3746L28.423 30.5398C28.7223 31.4611 27.6678 32.2272 26.8841 31.6578L19.0878 25.9934C18.7373 25.7388 18.2627 25.7388 17.9122 25.9934L10.1159 31.6578C9.33216 32.2272 8.27768 31.4611 8.57703 30.5398L11.555 21.3746C11.6888 20.9626 11.5422 20.5112 11.1917 20.2566L3.39535 14.5922C2.61164 14.0228 3.01442 12.7832 3.98314 12.7832H13.6199C14.0532 12.7832 14.4371 12.5042 14.571 12.0922L17.5489 2.92705Z" fill="#FD5F60"/>
<path d="M54.0465 3.01605C54.341 2.08463 55.659 2.08462 55.9535 3.01605L58.8204 12.0846C58.9519 12.5005 59.3377 12.7832 59.7739 12.7832H69.1085C70.0706 12.7832 70.4777 14.0088 69.7068 14.5844L62.1082 20.2585C61.7673 20.513 61.6248 20.9555 61.7531 21.3612L64.6443 30.5065C64.9371 31.4327 63.8708 32.1904 63.0925 31.6092L55.5983 26.0132C55.2435 25.7482 54.7566 25.7482 54.4017 26.0132L46.9075 31.6092C46.1292 32.1904 45.0629 31.4327 45.3557 30.5065L48.2469 21.3612C48.3752 20.9555 48.2327 20.513 47.8918 20.2585L40.2932 14.5844C39.5223 14.0088 39.9294 12.7832 40.8915 12.7832H50.2261C50.6623 12.7832 51.0481 12.5005 51.1796 12.0846L54.0465 3.01605Z" fill="#FD5F60"/>
<path d="M90.5489 2.92705C90.8483 2.00574 92.1517 2.00574 92.4511 2.92705L95.429 12.0922C95.5629 12.5042 95.9468 12.7832 96.3801 12.7832H106.017C106.986 12.7832 107.388 14.0228 106.605 14.5922L98.8083 20.2566C98.4578 20.5112 98.3112 20.9626 98.445 21.3746L101.423 30.5398C101.722 31.4611 100.668 32.2272 99.8841 31.6578L92.0878 25.9934C91.7373 25.7388 91.2627 25.7388 90.9122 25.9934L83.1159 31.6578C82.3322 32.2272 81.2777 31.4611 81.577 30.5398L84.555 21.3746C84.6888 20.9626 84.5422 20.5112 84.1917 20.2566L76.3954 14.5922C75.6116 14.0228 76.0144 12.7832 76.9831 12.7832H86.6199C87.0532 12.7832 87.4371 12.5042 87.571 12.0922L90.5489 2.92705Z" fill="#FD5F60"/>
<path d="M127.047 3.01605C127.341 2.08463 128.659 2.08462 128.953 3.01605L131.82 12.0846C131.952 12.5005 132.338 12.7832 132.774 12.7832H142.108C143.071 12.7832 143.478 14.0088 142.707 14.5844L135.108 20.2585C134.767 20.513 134.625 20.9555 134.753 21.3612L137.644 30.5065C137.937 31.4327 136.871 32.1904 136.092 31.6092L128.598 26.0132C128.243 25.7482 127.757 25.7482 127.402 26.0132L119.908 31.6092C119.129 32.1904 118.063 31.4327 118.356 30.5065L121.247 21.3612C121.375 20.9555 121.233 20.513 120.892 20.2585L113.293 14.5844C112.522 14.0088 112.929 12.7832 113.892 12.7832H123.226C123.662 12.7832 124.048 12.5005 124.18 12.0846L127.047 3.01605Z" fill="#FD5F60"/>
<path d="M164.5 3.23607L167.478 12.4012C167.746 13.2253 168.514 13.7832 169.38 13.7832H179.017L171.221 19.4476C170.52 19.9568 170.226 20.8596 170.494 21.6836L173.472 30.8488L165.676 25.1844C164.975 24.6751 164.025 24.6751 163.324 25.1844L155.528 30.8488L158.506 21.6836C158.774 20.8596 158.48 19.9568 157.779 19.4476L149.983 13.7832H159.62C160.486 13.7832 161.254 13.2253 161.522 12.4012L164.5 3.23607Z" stroke="#FD5F60" stroke-width="2"/>
<path fill-rule="evenodd" clip-rule="evenodd" d="M164.7 2.63599C164.299 2.63598 163.899 2.86631 163.749 3.32697L160.816 12.3539C160.682 12.7659 160.298 13.0449 159.865 13.0449L150.373 13.0449C149.405 13.0449 149.002 14.2845 149.786 14.8539L157.464 20.4329C157.815 20.6875 157.962 21.1389 157.828 21.5509L154.895 30.5779C154.595 31.4992 155.65 32.2653 156.433 31.6959L164.112 26.1169C164.287 25.9896 164.494 25.926 164.7 25.926V2.63599Z" fill="#FD5F60"/>
</svg>
