<svg width="1440" height="760" viewBox="0 0 1440 760" fill="none" xmlns="http://www.w3.org/2000/svg">
<g opacity="0.4">
<path fill-rule="evenodd" clip-rule="evenodd" d="M50.4551 172.177C53.8376 175.822 59.4502 175.955 62.9912 172.473L94.2578 141.728C97.7988 138.246 97.9274 132.468 94.5449 128.823C91.1624 125.178 85.5499 125.045 82.0088 128.527L50.7422 159.272C47.2012 162.754 47.0726 168.532 50.4551 172.177Z" fill="#FD5F60"/>
<path fill-rule="evenodd" clip-rule="evenodd" d="M101.5 60.4118C90.2431 60.4118 81.1176 51.0492 81.1176 39.5C81.1176 27.9508 90.2431 18.5882 101.5 18.5882C112.757 18.5882 121.882 27.9508 121.882 39.5C121.882 51.0492 112.757 60.4118 101.5 60.4118ZM63 39.5C63 61.3152 80.237 79 101.5 79C122.763 79 140 61.3152 140 39.5C140 17.6847 122.763 0 101.5 0C80.237 0 63 17.6847 63 39.5Z" fill="#FFDC5B"/>
<path fill-rule="evenodd" clip-rule="evenodd" d="M319.455 172.177C322.838 175.822 328.45 175.955 331.991 172.473L363.258 141.728C366.799 138.246 366.927 132.468 363.545 128.823C360.162 125.178 354.55 125.045 351.009 128.527L319.742 159.272C316.201 162.754 316.073 168.532 319.455 172.177Z" fill="#7CD86E"/>
<path fill-rule="evenodd" clip-rule="evenodd" d="M289.637 116.811C295.036 114.884 300.365 111.915 304.73 108.959C308.14 106.648 309.026 102.02 306.708 98.62C304.39 95.2205 299.746 94.3376 296.336 96.6479C292.689 99.1181 288.495 101.409 284.605 102.797C280.446 104.28 277.899 104.282 276.778 103.908C276.421 103.789 276.238 103.651 276.044 103.378C275.79 103.023 275.299 102.099 275.062 100.087C274.567 95.8798 275.365 88.5503 279.177 76.7016C283.199 64.1968 284.645 54.3883 283.264 47.043C282.545 43.2152 280.996 39.7374 278.342 37.03C275.662 34.2952 272.36 32.864 269.055 32.3008C262.847 31.2429 256.105 33.1371 250.527 35.4577C244.699 37.8825 238.927 41.2937 234.178 44.6152C230.803 46.9762 229.987 51.6177 232.355 54.9822C234.724 58.3467 239.381 59.1601 242.756 56.7991C246.874 53.9186 251.695 51.1008 256.279 49.1939C261.113 47.1828 264.603 46.6428 266.538 46.9726C267.305 47.1032 267.553 47.3214 267.661 47.4319C267.796 47.5699 268.276 48.1336 268.586 49.7838C269.265 53.3946 268.774 60.2886 264.957 72.1573C260.928 84.6822 259.362 94.4429 260.231 101.822C260.676 105.603 261.799 109.096 263.873 112.004C266.007 114.994 268.865 116.966 272.045 118.025C277.997 120.008 284.505 118.641 289.637 116.811Z" fill="#5BAFE4"/>
<path fill-rule="evenodd" clip-rule="evenodd" d="M371.5 60.4118C359.951 60.4118 350.588 51.0492 350.588 39.5C350.588 27.9508 359.951 18.5882 371.5 18.5882C383.049 18.5882 392.412 27.9508 392.412 39.5C392.412 51.0492 383.049 60.4118 371.5 60.4118ZM332 39.5C332 61.3152 349.685 79 371.5 79C393.315 79 411 61.3152 411 39.5C411 17.6847 393.315 0 371.5 0C349.685 0 332 17.6847 332 39.5Z" fill="#FD5F60"/>
<path fill-rule="evenodd" clip-rule="evenodd" d="M574.355 172.177C577.599 175.822 582.983 175.955 586.379 172.473L616.37 141.728C619.766 138.246 619.89 132.468 616.645 128.823C613.401 125.178 608.017 125.045 604.621 128.527L574.63 159.272C571.234 162.754 571.11 168.532 574.355 172.177Z" fill="#5BAFE4"/>
<path fill-rule="evenodd" clip-rule="evenodd" d="M544.398 116.811C549.868 114.884 555.266 111.915 559.687 108.959C563.142 106.648 564.039 102.02 561.691 98.62C559.343 95.2205 554.639 94.3376 551.184 96.6479C547.49 99.1181 543.241 101.409 539.301 102.797C535.089 104.28 532.509 104.282 531.373 103.908C531.011 103.789 530.826 103.651 530.629 103.378C530.372 103.023 529.874 102.099 529.634 100.087C529.133 95.8798 529.942 88.5503 533.802 76.7016C537.877 64.1968 539.341 54.3883 537.943 47.043C537.214 43.2152 535.645 39.7374 532.957 37.03C530.242 34.2952 526.897 32.864 523.549 32.3008C517.26 31.2429 510.431 33.1371 504.781 35.4577C498.877 37.8825 493.03 41.2937 488.219 44.6152C484.8 46.9762 483.973 51.6177 486.373 54.9822C488.772 58.3467 493.49 59.1601 496.909 56.7991C501.08 53.9186 505.964 51.1008 510.607 49.1939C515.504 47.1828 519.04 46.6428 521 46.9726C521.777 47.1032 522.027 47.3214 522.137 47.4319C522.274 47.5699 522.76 48.1336 523.075 49.7838C523.762 53.3946 523.265 60.2886 519.398 72.1573C515.317 84.6822 513.73 94.4429 514.61 101.822C515.061 105.603 516.199 109.096 518.3 112.004C520.461 114.994 523.357 116.966 526.578 118.025C532.608 120.008 539.2 118.641 544.398 116.811Z" fill="#FD5F60"/>
<path fill-rule="evenodd" clip-rule="evenodd" d="M626 60.4118C614.305 60.4118 604.824 51.0492 604.824 39.5C604.824 27.9508 614.305 18.5882 626 18.5882C637.695 18.5882 647.176 27.9508 647.176 39.5C647.176 51.0492 637.695 60.4118 626 60.4118ZM586 39.5C586 61.3152 603.909 79 626 79C648.091 79 666 61.3152 666 39.5C666 17.6847 648.091 0 626 0C603.909 0 586 17.6847 586 39.5Z" fill="#FFDC5B"/>
<path fill-rule="evenodd" clip-rule="evenodd" d="M182.455 183.708C185.838 180.211 191.45 180.084 194.991 183.424L226.258 212.914C229.799 216.254 229.927 221.796 226.545 225.292C223.162 228.789 217.55 228.916 214.009 225.576L182.742 196.086C179.201 192.746 179.073 187.204 182.455 183.708Z" fill="#7CD86E"/>
<path fill-rule="evenodd" clip-rule="evenodd" d="M153.352 237.189C158.541 239.116 163.663 242.085 167.857 245.041C171.135 247.352 171.986 251.98 169.758 255.38C167.531 258.779 163.068 259.662 159.79 257.352C156.286 254.882 152.255 252.591 148.516 251.203C144.52 249.72 142.072 249.718 140.995 250.092C140.651 250.211 140.476 250.349 140.289 250.622C140.045 250.977 139.573 251.901 139.345 253.913C138.869 258.12 139.637 265.45 143.3 277.298C147.165 289.803 148.555 299.612 147.228 306.957C146.536 310.785 145.048 314.263 142.498 316.97C139.922 319.705 136.748 321.136 133.572 321.699C127.606 322.757 121.127 320.863 115.766 318.542C110.165 316.118 104.618 312.706 100.054 309.385C96.8104 307.024 96.0261 302.382 98.3026 299.018C100.579 295.653 105.054 294.84 108.298 297.201C112.256 300.081 116.889 302.899 121.294 304.806C125.94 306.817 129.294 307.357 131.154 307.027C131.891 306.897 132.129 306.679 132.233 306.568C132.363 306.43 132.824 305.866 133.122 304.216C133.774 300.605 133.302 293.711 129.634 281.843C125.762 269.318 124.257 259.557 125.092 252.178C125.52 248.397 126.599 244.904 128.592 241.996C130.643 239.006 133.39 237.034 136.445 235.975C142.166 233.992 148.421 235.359 153.352 237.189Z" fill="#FFDC5B"/>
<path fill-rule="evenodd" clip-rule="evenodd" d="M234 294.588C222.597 294.588 213.353 303.951 213.353 315.5C213.353 327.049 222.597 336.412 234 336.412C245.403 336.412 254.647 327.049 254.647 315.5C254.647 303.951 245.403 294.588 234 294.588ZM195 315.5C195 293.685 212.461 276 234 276C255.539 276 273 293.685 273 315.5C273 337.315 255.539 355 234 355C212.461 355 195 337.315 195 315.5Z" fill="#FD5F60"/>
<path fill-rule="evenodd" clip-rule="evenodd" d="M452.455 183.708C455.838 180.211 461.45 180.084 464.991 183.424L496.258 212.914C499.799 216.254 499.927 221.796 496.545 225.292C493.162 228.789 487.55 228.916 484.009 225.576L452.742 196.086C449.201 192.746 449.073 187.204 452.455 183.708Z" fill="#FFDC5B"/>
<path fill-rule="evenodd" clip-rule="evenodd" d="M423.875 237.189C429.205 239.116 434.464 242.085 438.772 245.041C442.138 247.352 443.013 251.98 440.725 255.38C438.437 258.779 433.854 259.662 430.487 257.352C426.888 254.882 422.748 252.591 418.908 251.203C414.804 249.72 412.29 249.718 411.184 250.092C410.831 250.211 410.651 250.349 410.459 250.622C410.208 250.977 409.724 251.901 409.49 253.913C409.001 258.12 409.789 265.45 413.551 277.298C417.521 289.803 418.948 299.612 417.585 306.957C416.875 310.785 415.347 314.263 412.728 316.97C410.082 319.705 406.823 321.136 403.561 321.699C397.433 322.757 390.779 320.863 385.274 318.542C379.521 316.118 373.824 312.706 369.137 309.385C365.805 307.024 365 302.382 367.338 299.018C369.676 295.653 374.272 294.84 377.603 297.201C381.668 300.081 386.427 302.899 390.951 304.806C395.722 306.817 399.167 307.357 401.077 307.027C401.834 306.897 402.078 306.679 402.185 306.568C402.318 306.43 402.792 305.866 403.098 304.216C403.768 300.605 403.284 293.711 399.516 281.843C395.539 269.318 393.994 259.557 394.851 252.178C395.291 248.397 396.399 244.904 398.446 241.996C400.552 239.006 403.374 237.034 406.512 235.975C412.387 233.992 418.811 235.359 423.875 237.189Z" fill="#5BAFE4"/>
<path fill-rule="evenodd" clip-rule="evenodd" d="M505 294.588C493.305 294.588 483.824 303.951 483.824 315.5C483.824 327.049 493.305 336.412 505 336.412C516.695 336.412 526.176 327.049 526.176 315.5C526.176 303.951 516.695 294.588 505 294.588ZM465 315.5C465 293.685 482.909 276 505 276C527.091 276 545 293.685 545 315.5C545 337.315 527.091 355 505 355C482.909 355 465 337.315 465 315.5Z" fill="#7CD86E"/>
<path fill-rule="evenodd" clip-rule="evenodd" d="M706.455 183.708C709.838 180.211 715.45 180.084 718.991 183.424L750.258 212.914C753.799 216.254 753.927 221.796 750.545 225.292C747.162 228.789 741.55 228.916 738.009 225.576L706.742 196.086C703.201 192.746 703.073 187.204 706.455 183.708Z" fill="#FFDC5B"/>
<path fill-rule="evenodd" clip-rule="evenodd" d="M678.398 237.189C683.868 239.116 689.266 242.085 693.687 245.041C697.142 247.352 698.039 251.98 695.691 255.38C693.343 258.779 688.639 259.662 685.184 257.352C681.49 254.882 677.241 252.591 673.301 251.203C669.089 249.72 666.509 249.718 665.373 250.092C665.011 250.211 664.826 250.349 664.629 250.622C664.372 250.977 663.874 251.901 663.634 253.913C663.133 258.12 663.942 265.45 667.802 277.298C671.877 289.803 673.341 299.612 671.943 306.957C671.214 310.785 669.645 314.263 666.957 316.97C664.242 319.705 660.897 321.136 657.549 321.699C651.26 322.757 644.431 320.863 638.781 318.542C632.877 316.118 627.03 312.706 622.219 309.385C618.8 307.024 617.973 302.382 620.373 299.018C622.772 295.653 627.49 294.84 630.909 297.201C635.08 300.081 639.964 302.899 644.607 304.806C649.504 306.817 653.04 307.357 655 307.027C655.777 306.897 656.027 306.679 656.137 306.568C656.274 306.43 656.76 305.866 657.075 304.216C657.762 300.605 657.265 293.711 653.398 281.843C649.317 269.318 647.73 259.557 648.61 252.178C649.061 248.397 650.199 244.904 652.3 241.996C654.461 239.006 657.357 237.034 660.578 235.975C666.608 233.992 673.2 235.359 678.398 237.189Z" fill="#FD5F60"/>
<path fill-rule="evenodd" clip-rule="evenodd" d="M759.5 294.588C747.951 294.588 738.588 303.951 738.588 315.5C738.588 327.049 747.951 336.412 759.5 336.412C771.049 336.412 780.412 327.049 780.412 315.5C780.412 303.951 771.049 294.588 759.5 294.588ZM720 315.5C720 293.685 737.685 276 759.5 276C781.315 276 799 293.685 799 315.5C799 337.315 781.315 355 759.5 355C737.685 355 720 337.315 720 315.5Z" fill="#7CD86E"/>
<path fill-rule="evenodd" clip-rule="evenodd" d="M183.405 573.235C186.718 576.806 192.216 576.935 195.685 573.524L226.314 543.407C229.783 539.996 229.908 534.336 226.595 530.765C223.282 527.194 217.784 527.065 214.315 530.476L183.686 560.593C180.217 564.004 180.092 569.664 183.405 573.235Z" fill="#FFDC5B"/>
<path fill-rule="evenodd" clip-rule="evenodd" d="M154.875 519.76C160.205 517.79 165.464 514.752 169.772 511.728C173.138 509.364 174.013 504.629 171.725 501.152C169.437 497.674 164.854 496.771 161.487 499.134C157.888 501.661 153.748 504.004 149.908 505.424C145.804 506.942 143.29 506.943 142.184 506.561C141.831 506.439 141.651 506.298 141.459 506.019C141.208 505.655 140.724 504.71 140.49 502.652C140.001 498.348 140.789 490.85 144.551 478.729C148.521 465.937 149.948 455.903 148.585 448.389C147.875 444.473 146.347 440.915 143.728 438.146C141.082 435.348 137.823 433.884 134.561 433.308C128.433 432.226 121.779 434.163 116.274 436.537C110.521 439.018 104.824 442.507 100.137 445.905C96.8053 448.32 95.9998 453.069 98.3378 456.51C100.676 459.952 105.272 460.784 108.603 458.369C112.668 455.422 117.427 452.54 121.951 450.589C126.722 448.532 130.167 447.979 132.077 448.317C132.834 448.45 133.078 448.674 133.185 448.787C133.318 448.928 133.792 449.504 134.098 451.193C134.768 454.886 134.284 461.939 130.516 474.08C126.539 486.893 124.994 496.878 125.851 504.427C126.291 508.295 127.399 511.868 129.446 514.843C131.552 517.902 134.374 519.919 137.512 521.003C143.387 523.031 149.811 521.633 154.875 519.76Z" fill="#7CD86E"/>
<path fill-rule="evenodd" clip-rule="evenodd" d="M235.5 462.176C223.951 462.176 214.588 452.695 214.588 441C214.588 429.305 223.951 419.824 235.5 419.824C247.049 419.824 256.412 429.305 256.412 441C256.412 452.695 247.049 462.176 235.5 462.176ZM196 441C196 463.091 213.685 481 235.5 481C257.315 481 275 463.091 275 441C275 418.909 257.315 401 235.5 401C213.685 401 196 418.909 196 441Z" fill="#5BAFE4"/>
<path fill-rule="evenodd" clip-rule="evenodd" d="M452.455 573.235C455.838 576.806 461.45 576.935 464.991 573.524L496.258 543.407C499.799 539.996 499.927 534.336 496.545 530.765C493.162 527.194 487.55 527.065 484.009 530.476L452.742 560.593C449.201 564.004 449.073 569.664 452.455 573.235Z" fill="#5BAFE4"/>
<path fill-rule="evenodd" clip-rule="evenodd" d="M425.398 519.76C430.868 517.79 436.266 514.752 440.687 511.728C444.142 509.364 445.039 504.629 442.691 501.152C440.343 497.674 435.639 496.771 432.184 499.134C428.49 501.661 424.241 504.004 420.301 505.424C416.089 506.942 413.509 506.943 412.373 506.561C412.011 506.439 411.826 506.298 411.629 506.019C411.372 505.655 410.874 504.71 410.634 502.652C410.133 498.348 410.942 490.85 414.802 478.729C418.877 465.937 420.341 455.903 418.943 448.389C418.214 444.473 416.645 440.915 413.957 438.146C411.242 435.348 407.897 433.884 404.549 433.308C398.26 432.226 391.431 434.163 385.781 436.537C379.877 439.018 374.03 442.507 369.219 445.905C365.8 448.32 364.973 453.069 367.373 456.51C369.772 459.952 374.49 460.784 377.909 458.369C382.08 455.422 386.964 452.54 391.607 450.589C396.504 448.532 400.04 447.979 402 448.317C402.777 448.45 403.027 448.674 403.137 448.787C403.274 448.928 403.76 449.504 404.075 451.193C404.762 454.886 404.265 461.939 400.398 474.08C396.317 486.893 394.73 496.878 395.61 504.427C396.061 508.295 397.199 511.868 399.3 514.843C401.461 517.902 404.357 519.919 407.578 521.003C413.608 523.031 420.2 521.633 425.398 519.76Z" fill="#FD5F60"/>
<path fill-rule="evenodd" clip-rule="evenodd" d="M505.5 462.176C493.951 462.176 484.588 452.695 484.588 441C484.588 429.305 493.951 419.824 505.5 419.824C517.049 419.824 526.412 429.305 526.412 441C526.412 452.695 517.049 462.176 505.5 462.176ZM466 441C466 463.091 483.685 481 505.5 481C527.315 481 545 463.091 545 441C545 418.909 527.315 401 505.5 401C483.685 401 466 418.909 466 441Z" fill="#FFDC5B"/>
<path fill-rule="evenodd" clip-rule="evenodd" d="M706.455 573.235C709.838 576.806 715.45 576.935 718.991 573.524L750.258 543.407C753.799 539.996 753.927 534.336 750.545 530.765C747.162 527.194 741.55 527.065 738.009 530.476L706.742 560.593C703.201 564.004 703.073 569.664 706.455 573.235Z" fill="#7CD86E"/>
<path fill-rule="evenodd" clip-rule="evenodd" d="M678.398 519.76C683.868 517.79 689.266 514.752 693.687 511.728C697.142 509.364 698.039 504.629 695.691 501.152C693.343 497.674 688.639 496.771 685.184 499.134C681.49 501.661 677.241 504.004 673.301 505.424C669.089 506.942 666.509 506.943 665.373 506.561C665.011 506.439 664.826 506.298 664.629 506.019C664.372 505.655 663.874 504.71 663.634 502.652C663.133 498.348 663.942 490.85 667.802 478.729C671.877 465.937 673.341 455.903 671.943 448.389C671.214 444.473 669.645 440.915 666.957 438.146C664.242 435.348 660.897 433.884 657.549 433.308C651.26 432.226 644.431 434.163 638.781 436.537C632.877 439.018 627.03 442.507 622.219 445.905C618.8 448.32 617.973 453.069 620.373 456.51C622.772 459.952 627.49 460.784 630.909 458.369C635.08 455.422 639.964 452.54 644.607 450.589C649.504 448.532 653.04 447.979 655 448.317C655.777 448.45 656.027 448.674 656.137 448.787C656.274 448.928 656.76 449.504 657.075 451.193C657.762 454.886 657.265 461.939 653.398 474.08C649.317 486.893 647.73 496.878 648.61 504.427C649.061 508.295 650.199 511.868 652.3 514.843C654.461 517.902 657.357 519.919 660.578 521.003C666.608 523.031 673.2 521.633 678.398 519.76Z" fill="#5BAFE4"/>
<path fill-rule="evenodd" clip-rule="evenodd" d="M759.5 462.176C747.951 462.176 738.588 452.695 738.588 441C738.588 429.305 747.951 419.824 759.5 419.824C771.049 419.824 780.412 429.305 780.412 441C780.412 452.695 771.049 462.176 759.5 462.176ZM720 441C720 463.091 737.685 481 759.5 481C781.315 481 799 463.091 799 441C799 418.909 781.315 401 759.5 401C737.685 401 720 418.909 720 441Z" fill="#FFDC5B"/>
<path fill-rule="evenodd" clip-rule="evenodd" d="M-44.5449 183.708C-41.1624 180.211 -35.5498 180.084 -32.0088 183.424L-0.742184 212.914C2.79883 216.254 2.92736 221.796 -0.455101 225.292C-3.83756 228.789 -9.45015 228.916 -12.9912 225.576L-44.2578 196.086C-47.7988 192.746 -47.9274 187.204 -44.5449 183.708Z" fill="#5BAFE4"/>
<path fill-rule="evenodd" clip-rule="evenodd" d="M8 294.588C-3.69544 294.588 -13.1765 303.951 -13.1765 315.5C-13.1765 327.049 -3.69544 336.412 8 336.412C19.6954 336.412 29.1765 327.049 29.1765 315.5C29.1765 303.951 19.6954 294.588 8 294.588ZM-32 315.5C-32 293.685 -14.0914 276 8 276C30.0914 276 48 293.685 48 315.5C48 337.315 30.0914 355 8 355C-14.0914 355 -32 337.315 -32 315.5Z" fill="#7CD86E"/>
<path fill-rule="evenodd" clip-rule="evenodd" d="M-44.5449 573.235C-41.1624 576.806 -35.5498 576.935 -32.0088 573.524L-0.742184 543.407C2.79883 539.996 2.92736 534.336 -0.455101 530.765C-3.83756 527.194 -9.45015 527.065 -12.9912 530.476L-44.2578 560.593C-47.7988 564.004 -47.9274 569.664 -44.5449 573.235Z" fill="#FFDC5B"/>
<path fill-rule="evenodd" clip-rule="evenodd" d="M8 462.176C-3.69544 462.176 -13.1765 452.695 -13.1765 441C-13.1765 429.305 -3.69544 419.824 8 419.824C19.6954 419.824 29.1765 429.305 29.1765 441C29.1765 452.695 19.6954 462.176 8 462.176ZM-32 441C-32 463.091 -14.0914 481 8 481C30.0914 481 48 463.091 48 441C48 418.909 30.0914 401 8 401C-14.0914 401 -32 418.909 -32 441Z" fill="#FD5F60"/>
<path fill-rule="evenodd" clip-rule="evenodd" d="M37.4551 585.65C40.8376 582.228 46.4502 582.104 49.9912 585.373L81.2578 614.235C84.7988 617.504 84.9274 622.928 81.5449 626.35C78.1624 629.772 72.5499 629.896 69.0088 626.627L37.7422 597.765C34.2012 594.496 34.0726 589.072 37.4551 585.65Z" fill="#5BAFE4"/>
<path fill-rule="evenodd" clip-rule="evenodd" d="M89.5 696.588C77.9508 696.588 68.5882 705.951 68.5882 717.5C68.5882 729.049 77.9508 738.412 89.5 738.412C101.049 738.412 110.412 729.049 110.412 717.5C110.412 705.951 101.049 696.588 89.5 696.588ZM50 717.5C50 695.685 67.6848 678 89.5 678C111.315 678 129 695.685 129 717.5C129 739.315 111.315 757 89.5 757C67.6848 757 50 739.315 50 717.5Z" fill="#FD5F60"/>
<path fill-rule="evenodd" clip-rule="evenodd" d="M308.405 585.65C311.718 582.228 317.216 582.104 320.685 585.373L351.314 614.235C354.783 617.504 354.908 622.928 351.595 626.35C348.282 629.772 342.784 629.896 339.315 626.627L308.686 597.765C305.217 594.496 305.092 589.072 308.405 585.65Z" fill="#7CD86E"/>
<path fill-rule="evenodd" clip-rule="evenodd" d="M278.875 639.189C284.205 641.116 289.464 644.085 293.772 647.041C297.138 649.352 298.013 653.98 295.725 657.38C293.437 660.779 288.854 661.662 285.487 659.352C281.888 656.882 277.748 654.591 273.908 653.203C269.804 651.72 267.29 651.718 266.184 652.092C265.831 652.211 265.651 652.349 265.459 652.622C265.208 652.977 264.724 653.901 264.49 655.913C264.001 660.12 264.789 667.45 268.551 679.298C272.521 691.803 273.948 701.612 272.585 708.957C271.875 712.785 270.347 716.263 267.728 718.97C265.082 721.705 261.823 723.136 258.561 723.699C252.433 724.757 245.779 722.863 240.274 720.542C234.521 718.118 228.824 714.706 224.137 711.385C220.805 709.024 220 704.382 222.338 701.018C224.676 697.653 229.272 696.84 232.603 699.201C236.668 702.081 241.427 704.899 245.951 706.806C250.722 708.817 254.167 709.357 256.077 709.027C256.834 708.897 257.078 708.679 257.185 708.568C257.318 708.43 257.792 707.866 258.098 706.216C258.768 702.605 258.284 695.711 254.516 683.843C250.539 671.318 248.994 661.557 249.851 654.178C250.291 650.397 251.399 646.904 253.446 643.996C255.552 641.006 258.374 639.034 261.512 637.975C267.387 635.992 273.811 637.359 278.875 639.189Z" fill="#7CD86E"/>
<path fill-rule="evenodd" clip-rule="evenodd" d="M778.637 116.811C784.036 114.884 789.365 111.915 793.73 108.959C797.14 106.648 798.026 102.02 795.708 98.62C793.39 95.2205 788.746 94.3376 785.336 96.6479C781.689 99.1181 777.495 101.409 773.605 102.797C769.446 104.28 766.899 104.282 765.778 103.908C765.421 103.789 765.238 103.651 765.044 103.378C764.79 103.023 764.299 102.099 764.062 100.087C763.567 95.8798 764.365 88.5503 768.177 76.7016C772.199 64.1968 773.645 54.3883 772.264 47.043C771.545 43.2152 769.996 39.7374 767.342 37.03C764.662 34.2952 761.36 32.864 758.055 32.3008C751.847 31.2429 745.105 33.1371 739.527 35.4577C733.699 37.8825 727.927 41.2937 723.178 44.6152C719.803 46.9762 718.987 51.6177 721.355 54.9822C723.724 58.3467 728.381 59.1601 731.756 56.7991C735.874 53.9186 740.695 51.1008 745.279 49.1939C750.113 47.1828 753.603 46.6428 755.538 46.9726C756.305 47.1032 756.553 47.3214 756.661 47.4319C756.796 47.5699 757.276 48.1336 757.586 49.7838C758.265 53.3946 757.774 60.2886 753.957 72.1573C749.928 84.6822 748.362 94.4429 749.231 101.822C749.676 105.603 750.799 109.096 752.873 112.004C755.007 114.994 757.865 116.966 761.045 118.025C766.997 120.008 773.505 118.641 778.637 116.811Z" fill="#5BAFE4"/>
<path fill-rule="evenodd" clip-rule="evenodd" d="M767.637 639.189C773.036 641.116 778.365 644.085 782.73 647.041C786.14 649.352 787.026 653.98 784.708 657.38C782.39 660.779 777.746 661.662 774.336 659.352C770.689 656.882 766.495 654.591 762.605 653.203C758.446 651.72 755.899 651.718 754.778 652.092C754.421 652.211 754.238 652.349 754.044 652.622C753.79 652.977 753.299 653.901 753.062 655.913C752.567 660.12 753.365 667.45 757.177 679.298C761.199 691.803 762.645 701.612 761.264 708.957C760.545 712.785 758.996 716.263 756.342 718.97C753.662 721.705 750.36 723.136 747.055 723.699C740.847 724.757 734.105 722.863 728.527 720.542C722.699 718.118 716.927 714.706 712.178 711.385C708.803 709.024 707.987 704.382 710.355 701.018C712.724 697.653 717.381 696.84 720.756 699.201C724.874 702.081 729.695 704.899 734.279 706.806C739.113 708.817 742.603 709.357 744.538 709.027C745.305 708.897 745.553 708.679 745.661 708.568C745.796 708.43 746.276 707.866 746.586 706.216C747.265 702.605 746.774 695.711 742.957 683.843C738.928 671.318 737.362 661.557 738.231 654.178C738.676 650.397 739.799 646.904 741.873 643.996C744.007 641.006 746.865 639.034 750.045 637.975C755.997 635.992 762.505 637.359 767.637 639.189Z" fill="#7CD86E"/>
<path fill-rule="evenodd" clip-rule="evenodd" d="M360.5 696.588C348.951 696.588 339.588 705.951 339.588 717.5C339.588 729.049 348.951 738.412 360.5 738.412C372.049 738.412 381.412 729.049 381.412 717.5C381.412 705.951 372.049 696.588 360.5 696.588ZM321 717.5C321 695.685 338.685 678 360.5 678C382.315 678 400 695.685 400 717.5C400 739.315 382.315 757 360.5 757C338.685 757 321 739.315 321 717.5Z" fill="#5BAFE4"/>
<path fill-rule="evenodd" clip-rule="evenodd" d="M562.455 585.65C565.838 582.228 571.45 582.104 574.991 585.373L606.258 614.235C609.799 617.504 609.927 622.928 606.545 626.35C603.162 629.772 597.55 629.896 594.009 626.627L562.742 597.765C559.201 594.496 559.073 589.072 562.455 585.65Z" fill="#FD5F60"/>
<path fill-rule="evenodd" clip-rule="evenodd" d="M532.875 639.189C538.205 641.116 543.464 644.085 547.772 647.041C551.138 649.352 552.013 653.98 549.725 657.38C547.437 660.779 542.854 661.662 539.487 659.352C535.888 656.882 531.748 654.591 527.908 653.203C523.804 651.72 521.29 651.718 520.184 652.092C519.831 652.211 519.651 652.349 519.459 652.622C519.208 652.977 518.724 653.901 518.49 655.913C518.001 660.12 518.789 667.45 522.551 679.298C526.521 691.803 527.948 701.612 526.585 708.957C525.875 712.785 524.347 716.263 521.728 718.97C519.082 721.705 515.823 723.136 512.561 723.699C506.433 724.757 499.779 722.863 494.274 720.542C488.521 718.118 482.824 714.706 478.137 711.385C474.805 709.024 474 704.382 476.338 701.018C478.676 697.653 483.272 696.84 486.603 699.201C490.668 702.081 495.427 704.899 499.951 706.806C504.722 708.817 508.167 709.357 510.077 709.027C510.834 708.897 511.078 708.679 511.185 708.568C511.318 708.43 511.792 707.866 512.098 706.216C512.768 702.605 512.284 695.711 508.516 683.843C504.539 671.318 502.994 661.557 503.851 654.178C504.291 650.397 505.399 646.904 507.446 643.996C509.552 641.006 512.374 639.034 515.512 637.975C521.387 635.992 527.811 637.359 532.875 639.189Z" fill="#FFDC5B"/>
<path fill-rule="evenodd" clip-rule="evenodd" d="M613.5 696.588C601.951 696.588 592.588 705.951 592.588 717.5C592.588 729.049 601.951 738.412 613.5 738.412C625.049 738.412 634.412 729.049 634.412 717.5C634.412 705.951 625.049 696.588 613.5 696.588ZM574 717.5C574 695.685 591.685 678 613.5 678C635.315 678 653 695.685 653 717.5C653 739.315 635.315 757 613.5 757C591.685 757 574 739.315 574 717.5Z" fill="#5BAFE4"/>
<path fill-rule="evenodd" clip-rule="evenodd" d="M803.455 174.235C806.838 177.806 812.45 177.935 815.991 174.524L847.258 144.407C850.799 140.996 850.927 135.336 847.545 131.765C844.162 128.194 838.55 128.065 835.009 131.476L803.742 161.593C800.201 165.004 800.073 170.664 803.455 174.235Z" fill="#FD5F60"/>
<path fill-rule="evenodd" clip-rule="evenodd" d="M855 62.6471C843.597 62.6471 834.353 53.4031 834.353 42C834.353 30.5969 843.597 21.3529 855 21.3529C866.403 21.3529 875.647 30.5969 875.647 42C875.647 53.4031 866.403 62.6471 855 62.6471ZM816 42C816 63.5391 833.461 81 855 81C876.539 81 894 63.5391 894 42C894 20.4609 876.539 3 855 3C833.461 3 816 20.4609 816 42Z" fill="#7CD86E"/>
<path fill-rule="evenodd" clip-rule="evenodd" d="M1072.51 174.235C1075.96 177.806 1081.68 177.935 1085.3 174.524L1117.2 144.407C1120.82 140.996 1120.95 135.336 1117.49 131.765C1114.04 128.194 1108.32 128.065 1104.7 131.476L1072.8 161.593C1069.18 165.004 1069.05 170.664 1072.51 174.235Z" fill="#FD5F60"/>
<path fill-rule="evenodd" clip-rule="evenodd" d="M1042.88 119.811C1048.2 117.884 1053.46 114.915 1057.77 111.959C1061.14 109.648 1062.01 105.02 1059.72 101.62C1057.44 98.2205 1052.85 97.3376 1049.49 99.6479C1045.89 102.118 1041.75 104.409 1037.91 105.797C1033.8 107.28 1031.29 107.282 1030.18 106.908C1029.83 106.789 1029.65 106.651 1029.46 106.378C1029.21 106.023 1028.72 105.099 1028.49 103.087C1028 98.8798 1028.79 91.5503 1032.55 79.7016C1036.52 67.1968 1037.95 57.3883 1036.59 50.043C1035.88 46.2152 1034.35 42.7374 1031.73 40.03C1029.08 37.2952 1025.82 35.864 1022.56 35.3008C1016.43 34.2429 1009.78 36.1371 1004.27 38.4577C998.521 40.8825 992.824 44.2937 988.137 47.6152C984.805 49.9762 984 54.6177 986.338 57.9822C988.676 61.3467 993.272 62.1601 996.603 59.7991C1000.67 56.9186 1005.43 54.1008 1009.95 52.1939C1014.72 50.1828 1018.17 49.6428 1020.08 49.9726C1020.83 50.1032 1021.08 50.3214 1021.18 50.4319C1021.32 50.5699 1021.79 51.1336 1022.1 52.7838C1022.77 56.3946 1022.28 63.2886 1018.52 75.1573C1014.54 87.6822 1012.99 97.4429 1013.85 104.822C1014.29 108.603 1015.4 112.096 1017.45 115.004C1019.55 117.994 1022.37 119.966 1025.51 121.025C1031.39 123.008 1037.81 121.641 1042.88 119.811Z" fill="#5BAFE4"/>
<path fill-rule="evenodd" clip-rule="evenodd" d="M1125 62.6471C1113.6 62.6471 1104.35 53.4031 1104.35 42C1104.35 30.5969 1113.6 21.3529 1125 21.3529C1136.4 21.3529 1145.65 30.5969 1145.65 42C1145.65 53.4031 1136.4 62.6471 1125 62.6471ZM1086 42C1086 63.5391 1103.46 81 1125 81C1146.54 81 1164 63.5391 1164 42C1164 20.4609 1146.54 3 1125 3C1103.46 3 1086 20.4609 1086 42Z" fill="#7CD86E"/>
<path fill-rule="evenodd" clip-rule="evenodd" d="M1327.4 174.235C1330.72 177.806 1336.22 177.935 1339.69 174.524L1370.31 144.407C1373.78 140.996 1373.91 135.336 1370.6 131.765C1367.28 128.194 1361.78 128.065 1358.31 131.476L1327.69 161.593C1324.22 165.004 1324.09 170.664 1327.4 174.235Z" fill="#5BAFE4"/>
<path fill-rule="evenodd" clip-rule="evenodd" d="M1297.64 119.811C1303.04 117.884 1308.37 114.915 1312.73 111.959C1316.14 109.648 1317.03 105.02 1314.71 101.62C1312.39 98.2205 1307.75 97.3376 1304.34 99.6479C1300.69 102.118 1296.49 104.409 1292.6 105.797C1288.45 107.28 1285.9 107.282 1284.78 106.908C1284.42 106.789 1284.24 106.651 1284.04 106.378C1283.79 106.023 1283.3 105.099 1283.06 103.087C1282.57 98.8798 1283.37 91.5503 1287.18 79.7016C1291.2 67.1968 1292.64 57.3883 1291.26 50.043C1290.54 46.2152 1289 42.7374 1286.34 40.03C1283.66 37.2952 1280.36 35.864 1277.05 35.3008C1270.85 34.2429 1264.11 36.1371 1258.53 38.4577C1252.7 40.8825 1246.93 44.2937 1242.18 47.6152C1238.8 49.9762 1237.99 54.6177 1240.36 57.9822C1242.72 61.3467 1247.38 62.1601 1250.76 59.7991C1254.87 56.9186 1259.7 54.1008 1264.28 52.1939C1269.11 50.1828 1272.6 49.6428 1274.54 49.9726C1275.31 50.1032 1275.55 50.3214 1275.66 50.4319C1275.8 50.5699 1276.28 51.1336 1276.59 52.7838C1277.27 56.3946 1276.77 63.2886 1272.96 75.1573C1268.93 87.6822 1267.36 97.4429 1268.23 104.822C1268.68 108.603 1269.8 112.096 1271.87 115.004C1274.01 117.994 1276.87 119.966 1280.04 121.025C1286 123.008 1292.51 121.641 1297.64 119.811Z" fill="#FD5F60"/>
<path fill-rule="evenodd" clip-rule="evenodd" d="M1379.5 62.6471C1367.95 62.6471 1358.59 53.4031 1358.59 42C1358.59 30.5969 1367.95 21.3529 1379.5 21.3529C1391.05 21.3529 1400.41 30.5969 1400.41 42C1400.41 53.4031 1391.05 62.6471 1379.5 62.6471ZM1340 42C1340 63.5391 1357.68 81 1379.5 81C1401.32 81 1419 63.5391 1419 42C1419 20.4609 1401.32 3 1379.5 3C1357.68 3 1340 20.4609 1340 42Z" fill="#FFDC5B"/>
<path fill-rule="evenodd" clip-rule="evenodd" d="M935.505 186.708C938.957 183.211 944.684 183.084 948.297 186.424L980.202 215.914C983.815 219.254 983.946 224.796 980.495 228.292C977.043 231.789 971.316 231.916 967.703 228.576L935.798 199.086C932.185 195.746 932.054 190.204 935.505 186.708Z" fill="#7CD86E"/>
<path fill-rule="evenodd" clip-rule="evenodd" d="M907.114 240.189C912.373 242.116 917.563 245.085 921.815 248.041C925.137 250.352 925.999 254.98 923.742 258.38C921.484 261.779 916.961 262.662 913.639 260.352C910.087 257.882 906.001 255.591 902.212 254.203C898.162 252.72 895.681 252.718 894.589 253.092C894.241 253.211 894.063 253.349 893.874 253.622C893.627 253.977 893.148 254.901 892.918 256.913C892.435 261.12 893.213 268.45 896.925 280.298C900.843 292.803 902.251 302.612 900.907 309.957C900.206 313.785 898.698 317.263 896.113 319.97C893.502 322.705 890.286 324.136 887.066 324.699C881.02 325.757 874.453 323.863 869.02 321.542C863.343 319.118 857.721 315.706 853.096 312.385C849.808 310.024 849.013 305.382 851.32 302.018C853.627 298.653 858.163 297.84 861.451 300.201C865.462 303.081 870.158 305.899 874.622 307.806C879.331 309.817 882.73 310.357 884.615 310.027C885.362 309.897 885.603 309.679 885.709 309.568C885.841 309.43 886.308 308.866 886.61 307.216C887.271 303.605 886.793 296.711 883.075 284.843C879.151 272.318 877.625 262.557 878.472 255.178C878.905 251.397 879.999 247.904 882.019 244.996C884.097 242.006 886.882 240.034 889.978 238.975C895.777 236.992 902.116 238.359 907.114 240.189Z" fill="#FFDC5B"/>
<path fill-rule="evenodd" clip-rule="evenodd" d="M987.5 297.588C976.243 297.588 967.118 306.951 967.118 318.5C967.118 330.049 976.243 339.412 987.5 339.412C998.757 339.412 1007.88 330.049 1007.88 318.5C1007.88 306.951 998.757 297.588 987.5 297.588ZM949 318.5C949 296.685 966.237 279 987.5 279C1008.76 279 1026 296.685 1026 318.5C1026 340.315 1008.76 358 987.5 358C966.237 358 949 340.315 949 318.5Z" fill="#FD5F60"/>
<path fill-rule="evenodd" clip-rule="evenodd" d="M1206.4 186.708C1209.72 183.211 1215.22 183.084 1218.69 186.424L1249.31 215.914C1252.78 219.254 1252.91 224.796 1249.6 228.292C1246.28 231.789 1240.78 231.916 1237.31 228.576L1206.69 199.086C1203.22 195.746 1203.09 190.204 1206.4 186.708Z" fill="#FFDC5B"/>
<path fill-rule="evenodd" clip-rule="evenodd" d="M1177.11 240.189C1182.37 242.116 1187.56 245.085 1191.81 248.041C1195.14 250.352 1196 254.98 1193.74 258.38C1191.48 261.779 1186.96 262.662 1183.64 260.352C1180.09 257.882 1176 255.591 1172.21 254.203C1168.16 252.72 1165.68 252.718 1164.59 253.092C1164.24 253.211 1164.06 253.349 1163.87 253.622C1163.63 253.977 1163.15 254.901 1162.92 256.913C1162.44 261.12 1163.21 268.45 1166.93 280.298C1170.84 292.803 1172.25 302.612 1170.91 309.957C1170.21 313.785 1168.7 317.263 1166.11 319.97C1163.5 322.705 1160.29 324.136 1157.07 324.699C1151.02 325.757 1144.45 323.863 1139.02 321.542C1133.34 319.118 1127.72 315.706 1123.1 312.385C1119.81 310.024 1119.01 305.382 1121.32 302.018C1123.63 298.653 1128.16 297.84 1131.45 300.201C1135.46 303.081 1140.16 305.899 1144.62 307.806C1149.33 309.817 1152.73 310.357 1154.62 310.027C1155.36 309.897 1155.6 309.679 1155.71 309.568C1155.84 309.43 1156.31 308.866 1156.61 307.216C1157.27 303.605 1156.79 296.711 1153.07 284.843C1149.15 272.318 1147.63 262.557 1148.47 255.178C1148.91 251.397 1150 247.904 1152.02 244.996C1154.1 242.006 1156.88 240.034 1159.98 238.975C1165.78 236.992 1172.12 238.359 1177.11 240.189Z" fill="#5BAFE4"/>
<path fill-rule="evenodd" clip-rule="evenodd" d="M1258 297.588C1246.3 297.588 1236.82 306.951 1236.82 318.5C1236.82 330.049 1246.3 339.412 1258 339.412C1269.7 339.412 1279.18 330.049 1279.18 318.5C1279.18 306.951 1269.7 297.588 1258 297.588ZM1218 318.5C1218 296.685 1235.91 279 1258 279C1280.09 279 1298 296.685 1298 318.5C1298 340.315 1280.09 358 1258 358C1235.91 358 1218 340.315 1218 318.5Z" fill="#7CD86E"/>
<path fill-rule="evenodd" clip-rule="evenodd" d="M1431.64 240.189C1437.04 242.116 1442.37 245.085 1446.73 248.041C1450.14 250.352 1451.03 254.98 1448.71 258.38C1446.39 261.779 1441.75 262.662 1438.34 260.352C1434.69 257.882 1430.49 255.591 1426.6 254.203C1422.45 252.72 1419.9 252.718 1418.78 253.092C1418.42 253.211 1418.24 253.349 1418.04 253.622C1417.79 253.977 1417.3 254.901 1417.06 256.913C1416.57 261.12 1417.37 268.45 1421.18 280.298C1425.2 292.803 1426.64 302.612 1425.26 309.957C1424.54 313.785 1423 317.263 1420.34 319.97C1417.66 322.705 1414.36 324.136 1411.05 324.699C1404.85 325.757 1398.11 323.863 1392.53 321.542C1386.7 319.118 1380.93 315.706 1376.18 312.385C1372.8 310.024 1371.99 305.382 1374.36 302.018C1376.72 298.653 1381.38 297.84 1384.76 300.201C1388.87 303.081 1393.7 305.899 1398.28 307.806C1403.11 309.817 1406.6 310.357 1408.54 310.027C1409.31 309.897 1409.55 309.679 1409.66 309.568C1409.8 309.43 1410.28 308.866 1410.59 307.216C1411.27 303.605 1410.77 296.711 1406.96 284.843C1402.93 272.318 1401.36 262.557 1402.23 255.178C1402.68 251.397 1403.8 247.904 1405.87 244.996C1408.01 242.006 1410.87 240.034 1414.04 238.975C1420 236.992 1426.51 238.359 1431.64 240.189Z" fill="#FD5F60"/>
<path fill-rule="evenodd" clip-rule="evenodd" d="M936.455 576.177C939.838 579.822 945.45 579.955 948.991 576.473L980.258 545.728C983.799 542.246 983.927 536.468 980.545 532.823C977.162 529.178 971.55 529.045 968.009 532.527L936.742 563.272C933.201 566.754 933.073 572.532 936.455 576.177Z" fill="#FFDC5B"/>
<path fill-rule="evenodd" clip-rule="evenodd" d="M908.637 522.76C914.036 520.79 919.365 517.752 923.73 514.728C927.14 512.364 928.026 507.629 925.708 504.152C923.39 500.674 918.746 499.771 915.336 502.134C911.689 504.661 907.495 507.004 903.605 508.424C899.446 509.942 896.899 509.943 895.778 509.561C895.421 509.439 895.238 509.298 895.044 509.019C894.79 508.655 894.299 507.71 894.062 505.652C893.567 501.348 894.365 493.85 898.177 481.729C902.199 468.937 903.645 458.903 902.264 451.389C901.545 447.473 899.996 443.915 897.342 441.146C894.662 438.348 891.36 436.884 888.055 436.308C881.847 435.226 875.105 437.163 869.527 439.537C863.699 442.018 857.927 445.507 853.178 448.905C849.803 451.32 848.987 456.069 851.355 459.51C853.724 462.952 858.381 463.784 861.756 461.369C865.874 458.422 870.695 455.54 875.279 453.589C880.113 451.532 883.603 450.979 885.538 451.317C886.305 451.45 886.553 451.674 886.661 451.787C886.796 451.928 887.276 452.504 887.586 454.193C888.265 457.886 887.774 464.939 883.957 477.08C879.928 489.893 878.362 499.878 879.231 507.427C879.676 511.295 880.799 514.868 882.873 517.843C885.007 520.902 887.865 522.919 891.045 524.003C896.997 526.031 903.505 524.633 908.637 522.76Z" fill="#FD5F60"/>
<path fill-rule="evenodd" clip-rule="evenodd" d="M989 465.176C977.597 465.176 968.353 455.695 968.353 444C968.353 432.305 977.597 422.824 989 422.824C1000.4 422.824 1009.65 432.305 1009.65 444C1009.65 455.695 1000.4 465.176 989 465.176ZM950 444C950 466.091 967.461 484 989 484C1010.54 484 1028 466.091 1028 444C1028 421.909 1010.54 404 989 404C967.461 404 950 421.909 950 444Z" fill="#5BAFE4"/>
<path fill-rule="evenodd" clip-rule="evenodd" d="M1206.4 576.177C1209.72 579.822 1215.22 579.955 1218.69 576.473L1249.31 545.728C1252.78 542.246 1252.91 536.468 1249.6 532.823C1246.28 529.178 1240.78 529.045 1237.31 532.527L1206.69 563.272C1203.22 566.754 1203.09 572.532 1206.4 576.177Z" fill="#5BAFE4"/>
<path fill-rule="evenodd" clip-rule="evenodd" d="M1178.64 522.76C1184.04 520.79 1189.37 517.752 1193.73 514.728C1197.14 512.364 1198.03 507.629 1195.71 504.152C1193.39 500.674 1188.75 499.771 1185.34 502.134C1181.69 504.661 1177.49 507.004 1173.6 508.424C1169.45 509.942 1166.9 509.943 1165.78 509.561C1165.42 509.439 1165.24 509.298 1165.04 509.019C1164.79 508.655 1164.3 507.71 1164.06 505.652C1163.57 501.348 1164.37 493.85 1168.18 481.729C1172.2 468.937 1173.64 458.903 1172.26 451.389C1171.54 447.473 1170 443.915 1167.34 441.146C1164.66 438.348 1161.36 436.884 1158.05 436.308C1151.85 435.226 1145.11 437.163 1139.53 439.537C1133.7 442.018 1127.93 445.507 1123.18 448.905C1119.8 451.32 1118.99 456.069 1121.36 459.51C1123.72 462.952 1128.38 463.784 1131.76 461.369C1135.87 458.422 1140.7 455.54 1145.28 453.589C1150.11 451.532 1153.6 450.979 1155.54 451.317C1156.31 451.45 1156.55 451.674 1156.66 451.787C1156.8 451.928 1157.28 452.504 1157.59 454.193C1158.27 457.886 1157.77 464.939 1153.96 477.08C1149.93 489.893 1148.36 499.878 1149.23 507.427C1149.68 511.295 1150.8 514.868 1152.87 517.843C1155.01 520.902 1157.87 522.919 1161.04 524.003C1167 526.031 1173.51 524.633 1178.64 522.76Z" fill="#FD5F60"/>
<path fill-rule="evenodd" clip-rule="evenodd" d="M1258.5 465.176C1246.95 465.176 1237.59 455.695 1237.59 444C1237.59 432.305 1246.95 422.824 1258.5 422.824C1270.05 422.824 1279.41 432.305 1279.41 444C1279.41 455.695 1270.05 465.176 1258.5 465.176ZM1219 444C1219 466.091 1236.68 484 1258.5 484C1280.32 484 1298 466.091 1298 444C1298 421.909 1280.32 404 1258.5 404C1236.68 404 1219 421.909 1219 444Z" fill="#FFDC5B"/>
<path fill-rule="evenodd" clip-rule="evenodd" d="M1431.64 522.76C1437.04 520.79 1442.37 517.752 1446.73 514.728C1450.14 512.364 1451.03 507.629 1448.71 504.152C1446.39 500.674 1441.75 499.771 1438.34 502.134C1434.69 504.661 1430.49 507.004 1426.6 508.424C1422.45 509.942 1419.9 509.943 1418.78 509.561C1418.42 509.439 1418.24 509.298 1418.04 509.019C1417.79 508.655 1417.3 507.71 1417.06 505.652C1416.57 501.348 1417.37 493.85 1421.18 481.729C1425.2 468.937 1426.64 458.903 1425.26 451.389C1424.54 447.473 1423 443.915 1420.34 441.146C1417.66 438.348 1414.36 436.884 1411.05 436.308C1404.85 435.226 1398.11 437.163 1392.53 439.537C1386.7 442.018 1380.93 445.507 1376.18 448.905C1372.8 451.32 1371.99 456.069 1374.36 459.51C1376.72 462.952 1381.38 463.784 1384.76 461.369C1388.87 458.422 1393.7 455.54 1398.28 453.589C1403.11 451.532 1406.6 450.979 1408.54 451.317C1409.31 451.45 1409.55 451.674 1409.66 451.787C1409.8 451.928 1410.28 452.504 1410.59 454.193C1411.27 457.886 1410.77 464.939 1406.96 477.08C1402.93 489.893 1401.36 499.878 1402.23 507.427C1402.68 511.295 1403.8 514.868 1405.87 517.843C1408.01 520.902 1410.87 522.919 1414.04 524.003C1420 526.031 1426.51 524.633 1431.64 522.76Z" fill="#5BAFE4"/>
<path fill-rule="evenodd" clip-rule="evenodd" d="M791.405 588.65C794.718 585.228 800.216 585.104 803.685 588.373L834.314 617.235C837.783 620.504 837.908 625.928 834.595 629.35C831.282 632.772 825.784 632.896 822.315 629.627L791.686 600.765C788.217 597.496 788.092 592.072 791.405 588.65Z" fill="#5BAFE4"/>
<path fill-rule="evenodd" clip-rule="evenodd" d="M843 699.588C831.305 699.588 821.824 708.951 821.824 720.5C821.824 732.049 831.305 741.412 843 741.412C854.695 741.412 864.176 732.049 864.176 720.5C864.176 708.951 854.695 699.588 843 699.588ZM803 720.5C803 698.685 820.909 681 843 681C865.091 681 883 698.685 883 720.5C883 742.315 865.091 760 843 760C820.909 760 803 742.315 803 720.5Z" fill="#FD5F60"/>
<path fill-rule="evenodd" clip-rule="evenodd" d="M1061.46 588.65C1064.84 585.228 1070.45 585.104 1073.99 588.373L1105.26 617.235C1108.8 620.504 1108.93 625.928 1105.54 629.35C1102.16 632.772 1096.55 632.896 1093.01 629.627L1061.74 600.765C1058.2 597.496 1058.07 592.072 1061.46 588.65Z" fill="#FFDC5B"/>
<path fill-rule="evenodd" clip-rule="evenodd" d="M1032.64 642.189C1038.04 644.116 1043.37 647.085 1047.73 650.041C1051.14 652.352 1052.03 656.98 1049.71 660.38C1047.39 663.779 1042.75 664.662 1039.34 662.352C1035.69 659.882 1031.49 657.591 1027.6 656.203C1023.45 654.72 1020.9 654.718 1019.78 655.092C1019.42 655.211 1019.24 655.349 1019.04 655.622C1018.79 655.977 1018.3 656.901 1018.06 658.913C1017.57 663.12 1018.37 670.45 1022.18 682.298C1026.2 694.803 1027.64 704.612 1026.26 711.957C1025.54 715.785 1024 719.263 1021.34 721.97C1018.66 724.705 1015.36 726.136 1012.05 726.699C1005.85 727.757 999.105 725.863 993.527 723.542C987.699 721.118 981.927 717.706 977.178 714.385C973.803 712.024 972.987 707.382 975.355 704.018C977.724 700.653 982.381 699.84 985.756 702.201C989.874 705.081 994.695 707.899 999.279 709.806C1004.11 711.817 1007.6 712.357 1009.54 712.027C1010.31 711.897 1010.55 711.679 1010.66 711.568C1010.8 711.43 1011.28 710.866 1011.59 709.216C1012.27 705.605 1011.77 698.711 1007.96 686.843C1003.93 674.318 1002.36 664.557 1003.23 657.178C1003.68 653.397 1004.8 649.904 1006.87 646.996C1009.01 644.006 1011.87 642.034 1015.04 640.975C1021 638.992 1027.51 640.359 1032.64 642.189Z" fill="#7CD86E"/>
<path fill-rule="evenodd" clip-rule="evenodd" d="M1113.5 699.588C1101.95 699.588 1092.59 708.951 1092.59 720.5C1092.59 732.049 1101.95 741.412 1113.5 741.412C1125.05 741.412 1134.41 732.049 1134.41 720.5C1134.41 708.951 1125.05 699.588 1113.5 699.588ZM1074 720.5C1074 698.685 1091.68 681 1113.5 681C1135.32 681 1153 698.685 1153 720.5C1153 742.315 1135.32 760 1113.5 760C1091.68 760 1074 742.315 1074 720.5Z" fill="#5BAFE4"/>
<path fill-rule="evenodd" clip-rule="evenodd" d="M1315.46 588.65C1318.84 585.228 1324.45 585.104 1327.99 588.373L1359.26 617.235C1362.8 620.504 1362.93 625.928 1359.54 629.35C1356.16 632.772 1350.55 632.896 1347.01 629.627L1315.74 600.765C1312.2 597.496 1312.07 592.072 1315.46 588.65Z" fill="#FD5F60"/>
<path fill-rule="evenodd" clip-rule="evenodd" d="M1286.64 642.189C1292.04 644.116 1297.37 647.085 1301.73 650.041C1305.14 652.352 1306.03 656.98 1303.71 660.38C1301.39 663.779 1296.75 664.662 1293.34 662.352C1289.69 659.882 1285.49 657.591 1281.6 656.203C1277.45 654.72 1274.9 654.718 1273.78 655.092C1273.42 655.211 1273.24 655.349 1273.04 655.622C1272.79 655.977 1272.3 656.901 1272.06 658.913C1271.57 663.12 1272.37 670.45 1276.18 682.298C1280.2 694.803 1281.64 704.612 1280.26 711.957C1279.54 715.785 1278 719.263 1275.34 721.97C1272.66 724.705 1269.36 726.136 1266.05 726.699C1259.85 727.757 1253.11 725.863 1247.53 723.542C1241.7 721.118 1235.93 717.706 1231.18 714.385C1227.8 712.024 1226.99 707.382 1229.36 704.018C1231.72 700.653 1236.38 699.84 1239.76 702.201C1243.87 705.081 1248.7 707.899 1253.28 709.806C1258.11 711.817 1261.6 712.357 1263.54 712.027C1264.31 711.897 1264.55 711.679 1264.66 711.568C1264.8 711.43 1265.28 710.866 1265.59 709.216C1266.27 705.605 1265.77 698.711 1261.96 686.843C1257.93 674.318 1256.36 664.557 1257.23 657.178C1257.68 653.397 1258.8 649.904 1260.87 646.996C1263.01 644.006 1265.87 642.034 1269.04 640.975C1275 638.992 1281.51 640.359 1286.64 642.189Z" fill="#FD5F60"/>
<path fill-rule="evenodd" clip-rule="evenodd" d="M1367 699.588C1355.3 699.588 1345.82 708.951 1345.82 720.5C1345.82 732.049 1355.3 741.412 1367 741.412C1378.7 741.412 1388.18 732.049 1388.18 720.5C1388.18 708.951 1378.7 699.588 1367 699.588ZM1327 720.5C1327 698.685 1344.91 681 1367 681C1389.09 681 1407 698.685 1407 720.5C1407 742.315 1389.09 760 1367 760C1344.91 760 1327 742.315 1327 720.5Z" fill="#FFDC5B"/>
</g>
</svg>
