<svg width="168" height="180" viewBox="0 0 168 180" fill="none" xmlns="http://www.w3.org/2000/svg">
<path d="M0.202375 5.33828C0.202375 4.30216 0.427236 3.40118 0.876958 2.63535C1.37165 1.82448 2.06872 1.41904 2.96817 1.41904H31.503C32.4025 1.41904 33.0771 1.82448 33.5268 2.63535C34.0215 3.40118 34.2688 4.30216 34.2688 5.33828C34.2688 6.41945 34.0215 7.36548 33.5268 8.17636C33.0321 8.94219 32.3575 9.3251 31.503 9.3251H21.6541V48.0446C21.6541 48.9005 21.2044 49.5762 20.3049 50.0718C19.4505 50.5673 18.4386 50.8151 17.2693 50.8151C16.0551 50.8151 15.0207 50.5673 14.1662 50.0718C13.3118 49.5762 12.8845 48.9005 12.8845 48.0446V9.3251H2.96817C2.11369 9.3251 1.43911 8.94219 0.944416 8.17636C0.449722 7.41053 0.202375 6.4645 0.202375 5.33828Z" fill="#1D1D1B"/>
<path d="M39.1474 48.0446V2.70293C39.1474 1.89205 39.5297 1.23884 40.2942 0.743304C41.1037 0.247768 42.1606 0 43.4648 0C44.679 0 45.7134 0.247768 46.5678 0.743304C47.4223 1.23884 47.8495 1.89205 47.8495 2.70293V23.4479C48.5241 22.0063 49.6035 20.79 51.0875 19.799C52.5716 18.8079 54.3255 18.3123 56.3493 18.3123C59.4524 18.3123 62.1507 19.6638 64.4443 22.3667C66.7828 25.0697 67.9521 28.2906 67.9521 32.0297V48.0446C67.9521 48.9005 67.5024 49.5762 66.603 50.0718C65.7485 50.5673 64.7366 50.8151 63.5673 50.8151C62.443 50.8151 61.4311 50.5673 60.5317 50.0718C59.6772 49.5762 59.25 48.9005 59.25 48.0446V32.0297C59.25 30.498 58.6654 29.1015 57.4961 27.8402C56.3268 26.5788 54.9552 25.9481 53.3811 25.9481C51.897 25.9481 50.5928 26.5112 49.4685 27.6374C48.3892 28.7637 47.8495 30.2277 47.8495 32.0297V48.0446C47.8495 48.7203 47.3998 49.351 46.5004 49.9366C45.6459 50.5222 44.634 50.8151 43.4648 50.8151C42.2505 50.8151 41.2161 50.5448 40.3617 50.0042C39.5522 49.4185 39.1474 48.7653 39.1474 48.0446Z" fill="#1D1D1B"/>
<path d="M73.9164 37.5707V31.827C73.9164 28.133 75.3555 24.957 78.2337 22.2992C81.1119 19.6413 84.5973 18.3123 88.6897 18.3123C92.5124 18.3123 95.7729 19.5287 98.4712 21.9613C101.214 24.3489 102.586 27.3672 102.586 31.0161C102.586 32.3676 102.406 33.4938 102.046 34.3948C101.732 35.2507 101.215 35.8588 100.495 36.2192C99.8204 36.5796 99.1908 36.8049 98.6061 36.895C98.0215 36.9851 97.2569 37.0301 96.3125 37.0301H82.6185V38.0437C82.6185 39.9808 83.3381 41.5575 84.7772 42.7738C86.2163 43.9451 88.1276 44.5307 90.5111 44.5307C92.2201 44.5307 93.9065 44.1028 95.5705 43.2469C97.2345 42.3909 98.3138 41.963 98.8085 41.963C99.7529 41.963 100.54 42.4134 101.17 43.3144C101.799 44.1704 102.114 45.0038 102.114 45.8146C102.114 47.076 100.967 48.3374 98.6736 49.5987C96.425 50.815 93.6142 51.4232 90.2413 51.4232C85.4293 51.4232 81.4942 50.1618 78.4361 47.6391C75.4229 45.0713 73.9164 41.7152 73.9164 37.5707ZM82.6185 31.8946H92.4674C93.187 31.8946 93.6817 31.7819 93.9515 31.5567C94.2663 31.2864 94.4237 30.7909 94.4237 30.0701C94.4237 28.4934 93.8391 27.2095 92.6698 26.2184C91.5455 25.2273 90.1513 24.7318 88.4874 24.7318C86.9133 24.7318 85.5417 25.2273 84.3724 26.2184C83.2031 27.1644 82.6185 28.4258 82.6185 30.0025V31.8946Z" fill="#1D1D1B"/>
<path d="M3.44037 112.401V68.4779C3.44037 67.622 3.82264 66.9463 4.58716 66.4507C5.35169 65.9552 6.25114 65.7074 7.2855 65.7074H20.3049C29.3444 65.7074 33.8641 69.6717 33.8641 77.6003C33.8641 83.0963 31.9527 86.6777 28.1301 88.3445C30.4237 89.2454 32.1551 90.5293 33.3244 92.1961C34.4937 93.8179 35.0783 96.2055 35.0783 99.3589V100.778C35.0783 105.778 33.8641 109.427 31.4356 111.725C29.0071 113.977 25.7241 115.103 21.5867 115.103H7.2855C6.16119 115.103 5.23926 114.833 4.51971 114.293C3.80015 113.752 3.44037 113.121 3.44037 112.401ZM12.1425 107.4H19.7653C24.1276 107.4 26.3087 104.945 26.3087 100.035V98.9535C26.3087 96.4307 25.7466 94.6062 24.6223 93.48C23.5429 92.3538 21.9239 91.7907 19.7653 91.7907H12.1425V107.4ZM12.1425 84.8982H19.6978C21.4517 84.8982 22.7784 84.3802 23.6779 83.344C24.6223 82.3079 25.0945 80.8889 25.0945 79.0869C25.0945 77.33 24.5998 75.956 23.6104 74.965C22.666 73.9288 21.3393 73.4108 19.6304 73.4108H12.1425V84.8982Z" fill="#1D1D1B"/>
<path d="M98.1049 112.333V66.9913C98.1049 66.1805 98.4872 65.5272 99.2517 65.0317C100.061 64.5362 101.096 64.2884 102.355 64.2884C103.614 64.2884 104.671 64.5362 105.525 65.0317C106.38 65.5272 106.807 66.1805 106.807 66.9913V95.3045L119.489 83.344C120.029 82.8936 120.614 82.6683 121.243 82.6683C122.188 82.6683 123.132 83.1188 124.076 84.0198C125.021 84.9207 125.493 85.8668 125.493 86.8578C125.493 87.4435 125.246 87.9841 124.751 88.4796L116.791 95.7099L126.707 109.9C127.022 110.351 127.179 110.824 127.179 111.319C127.179 112.31 126.617 113.279 125.493 114.225C124.414 115.171 123.334 115.644 122.255 115.644C121.356 115.644 120.636 115.261 120.096 114.495L110.989 101.048L106.807 104.9V112.333C106.807 113.009 106.357 113.639 105.458 114.225C104.558 114.811 103.524 115.103 102.355 115.103C101.141 115.103 100.129 114.833 99.3192 114.293C98.5097 113.707 98.1049 113.054 98.1049 112.333Z" fill="#1D1D1B"/>
<path d="M0 133.51C0 132.564 0.607125 131.753 1.82137 131.077C3.03562 130.356 4.29484 129.996 5.59904 129.996C7.21804 129.996 8.18494 130.581 8.49975 131.753L19.1582 168.377L24.8921 144.862C25.2969 143.24 26.736 142.429 29.2094 142.429C31.6379 142.429 33.0546 143.24 33.4593 144.862L39.1933 168.377L49.8517 131.753C50.1665 130.581 51.1334 129.996 52.7524 129.996C54.0566 129.996 55.3158 130.356 56.5301 131.077C57.7443 131.753 58.3514 132.564 58.3514 133.51C58.3514 133.78 58.3065 134.05 58.2165 134.321L44.8598 176.824C44.1852 178.806 42.2739 179.797 39.1258 179.797C37.7766 179.797 36.5624 179.55 35.4831 179.054C34.4037 178.513 33.7516 177.77 33.5268 176.824L29.2094 158.579L24.8247 176.824C24.5998 177.77 23.9477 178.513 22.8684 179.054C21.789 179.55 20.5748 179.797 19.2256 179.797C17.8315 179.797 16.5947 179.55 15.5154 179.054C14.4361 178.513 13.7615 177.77 13.4917 176.824L0.134917 134.321C0.0449722 134.05 0 133.78 0 133.51Z" fill="#1D1D1B"/>
<path d="M58.4194 166.147V160.606C58.4194 156.912 59.8585 153.714 62.7367 151.011C65.615 148.263 69.0553 146.889 73.0579 146.889C76.9704 146.889 80.3883 148.241 83.3115 150.944C86.2347 153.646 87.6963 156.867 87.6963 160.606V166.147C87.6963 169.796 86.2347 173.017 83.3115 175.81C80.3883 178.603 76.9704 180 73.0579 180C69.1453 180 65.7274 178.603 62.8042 175.81C59.881 173.017 58.4194 169.796 58.4194 166.147ZM67.1215 166.147C67.1215 167.769 67.7062 169.211 68.8754 170.472C70.0447 171.734 71.4389 172.364 73.0579 172.364C74.6319 172.364 76.0035 171.734 77.1728 170.472C78.3871 169.211 78.9942 167.769 78.9942 166.147V160.606C78.9942 159.075 78.3871 157.678 77.1728 156.417C76.0035 155.156 74.6319 154.525 73.0579 154.525C71.4389 154.525 70.0447 155.156 68.8754 156.417C67.7062 157.633 67.1215 159.03 67.1215 160.606V166.147Z" fill="#1D1D1B"/>
<path d="M93.9056 176.621V149.997C93.9056 149.187 94.2879 148.533 95.0524 148.038C95.8619 147.542 96.8963 147.295 98.1555 147.295C99.2798 147.295 100.202 147.542 100.921 148.038C101.686 148.533 102.068 149.187 102.068 149.997V152.768C102.788 151.191 103.912 149.817 105.441 148.646C106.97 147.475 108.612 146.889 110.365 146.889H112.457C113.266 146.889 113.986 147.272 114.615 148.038C115.29 148.804 115.627 149.682 115.627 150.673C115.627 151.709 115.29 152.61 114.615 153.376C113.986 154.142 113.266 154.525 112.457 154.525H110.365C108.297 154.525 106.475 155.448 104.901 157.295C103.372 159.142 102.608 161.553 102.608 164.526V176.621C102.608 177.297 102.158 177.928 101.259 178.513C100.359 179.099 99.3248 179.392 98.1555 179.392C96.9413 179.392 95.9294 179.122 95.1199 178.581C94.3104 177.995 93.9056 177.342 93.9056 176.621Z" fill="#1D1D1B"/>
<path d="M120.009 176.621V149.997C120.009 149.187 120.391 148.533 121.156 148.038C121.965 147.542 123.022 147.295 124.326 147.295C125.406 147.295 126.305 147.542 127.025 148.038C127.789 148.533 128.171 149.187 128.171 149.997V152.025C130.105 148.601 133.073 146.889 137.076 146.889C138.965 146.889 140.651 147.52 142.135 148.781C143.664 149.997 144.789 151.619 145.508 153.646C146.632 151.439 148.094 149.772 149.893 148.646C151.737 147.475 153.671 146.889 155.694 146.889C158.932 146.889 161.743 148.128 164.127 150.606C166.51 153.083 167.702 156.417 167.702 160.606V176.621C167.702 177.297 167.252 177.928 166.353 178.513C165.498 179.099 164.486 179.392 163.317 179.392C162.193 179.392 161.181 179.099 160.281 178.513C159.427 177.928 159 177.297 159 176.621V160.606C159 158.714 158.46 157.228 157.381 156.147C156.301 155.02 155.02 154.457 153.536 154.457C152.097 154.457 150.837 155.02 149.758 156.147C148.724 157.228 148.206 158.692 148.206 160.539V176.689C148.206 177.59 147.779 178.266 146.925 178.716C146.07 179.167 145.036 179.392 143.822 179.392C142.697 179.392 141.685 179.167 140.786 178.716C139.932 178.221 139.504 177.545 139.504 176.689V160.606C139.504 158.805 138.942 157.34 137.818 156.214C136.738 155.088 135.457 154.525 133.973 154.525C132.534 154.525 131.297 155.065 130.263 156.147C129.228 157.228 128.711 158.714 128.711 160.606V176.621C128.711 177.297 128.261 177.928 127.362 178.513C126.507 179.099 125.495 179.392 124.326 179.392C123.112 179.392 122.078 179.122 121.223 178.581C120.414 177.995 120.009 177.342 120.009 176.621Z" fill="#1D1D1B"/>
<path fill-rule="evenodd" clip-rule="evenodd" d="M64.8448 67.0807C75.3417 67.0807 83.851 75.5383 83.851 85.9713L83.851 118.558C83.851 120.383 82.3619 121.863 80.525 121.863L49.1647 121.863C47.3278 121.863 45.8386 120.383 45.8386 118.558L45.8386 85.9713C45.8386 75.5383 54.348 67.0807 64.8448 67.0807Z" fill="#7CD86E"/>
<path fill-rule="evenodd" clip-rule="evenodd" d="M71.3251 108.758L71.5528 108.447H59.2546L59.4402 108.746C59.8914 109.471 60.7196 110.546 61.7459 111.422C62.7676 112.293 64.0168 112.995 65.3038 112.913C66.575 112.831 67.8454 112.107 68.9044 111.26C69.9673 110.41 70.842 109.417 71.3251 108.758Z" fill="#1D1D1B"/>
<path d="M53.6644 101.739C48.1073 101.739 43.6023 97.2342 43.6023 91.677C43.6023 86.1199 48.1073 81.6149 53.6645 81.6149C59.2216 81.6149 63.7266 86.1199 63.7266 91.677C63.7266 97.2342 59.2216 101.739 53.6644 101.739Z" fill="white"/>
<path d="M53.6646 97.2671C50.5773 97.2671 48.0745 94.7643 48.0745 91.677C48.0745 88.5897 50.5773 86.087 53.6646 86.087C56.7519 86.087 59.2546 88.5897 59.2546 91.677C59.2546 94.7643 56.7519 97.2671 53.6646 97.2671Z" fill="#1D1D1B"/>
<path d="M76.5838 101.739C71.3354 101.739 67.0807 97.2342 67.0807 91.677C67.0807 86.1199 71.3354 81.6149 76.5838 81.6149C81.8322 81.6149 86.0869 86.1199 86.0869 91.677C86.0869 97.2342 81.8322 101.739 76.5838 101.739Z" fill="white"/>
<path d="M77.1428 97.2671C74.0555 97.2671 71.5528 94.7643 71.5528 91.677C71.5528 88.5897 74.0555 86.087 77.1428 86.087C80.2302 86.087 82.7329 88.5897 82.7329 91.677C82.7329 94.7643 80.2302 97.2671 77.1428 97.2671Z" fill="#1D1D1B"/>
</svg>
