<svg width="142" height="237" viewBox="0 0 142 237" fill="none" xmlns="http://www.w3.org/2000/svg">
<path fill-rule="evenodd" clip-rule="evenodd" d="M118.689 0.0514199C128.146 -0.676034 136.402 6.4006 137.13 15.8575C139.079 41.1945 126.506 94.0525 67.7201 124.129C47.5282 134.46 38.9509 150.512 36.0818 167.32C33.0875 184.861 36.5177 202.83 40.5534 213.572C43.8892 222.451 39.3955 232.353 30.5166 235.688C21.6377 239.024 11.7357 234.53 8.39997 225.652C2.70387 210.49 -2.00204 186.296 2.22381 161.54C6.5749 136.05 20.5741 109.668 52.0755 93.5512C96.6758 70.7325 103.939 32.2254 102.883 18.4919C102.156 9.03494 109.232 0.778872 118.689 0.0514199Z" fill="#FD5F60"/>
<path fill-rule="evenodd" clip-rule="evenodd" d="M17.1447 222.873C17.4363 222.499 17.9759 222.432 18.3499 222.724C19.9055 223.936 22.5703 225.186 25.4647 225.019C28.293 224.855 31.4969 223.332 34.2077 218.71C34.4476 218.3 34.9737 218.163 35.3828 218.403C35.7919 218.643 35.929 219.169 35.6891 219.578C32.7306 224.623 29.0446 226.532 25.5636 226.733C22.1488 226.93 19.085 225.474 17.294 224.078C16.92 223.787 16.8532 223.247 17.1447 222.873Z" fill="#DC4748"/>
<path fill-rule="evenodd" clip-rule="evenodd" d="M9.30232 195.738C9.64496 195.41 10.1885 195.422 10.5164 195.765C11.8801 197.19 14.336 198.812 17.2241 199.066C20.0462 199.313 23.437 198.27 26.7882 194.089C27.0848 193.719 27.6253 193.659 27.9953 193.956C28.3653 194.252 28.4249 194.793 28.1283 195.163C24.4707 199.726 20.5471 201.081 17.0738 200.776C13.6664 200.477 10.8456 198.593 9.27559 196.952C8.94771 196.61 8.95968 196.066 9.30232 195.738Z" fill="#DC4748"/>
<path fill-rule="evenodd" clip-rule="evenodd" d="M9.66984 164.256C10.0918 164.04 10.6094 164.207 10.8258 164.629C11.7259 166.384 13.6167 168.639 16.3122 169.707C18.9462 170.75 22.4938 170.717 26.8991 167.667C27.289 167.397 27.8239 167.494 28.0939 167.884C28.3639 168.274 28.2667 168.809 27.8768 169.079C23.0687 172.408 18.9215 172.587 15.6798 171.303C12.4997 170.044 10.334 167.433 9.29766 165.412C9.08123 164.99 9.24786 164.473 9.66984 164.256Z" fill="#DC4748"/>
<path fill-rule="evenodd" clip-rule="evenodd" d="M19.8467 135.906C20.3161 135.839 20.7512 136.165 20.8186 136.634C21.0986 138.586 22.1526 141.334 24.354 143.221C26.5051 145.064 29.8703 146.188 35.0284 144.737C35.485 144.609 35.9592 144.875 36.0876 145.331C36.216 145.788 35.95 146.262 35.4935 146.39C29.8637 147.974 25.8839 146.794 23.2365 144.525C20.6393 142.299 19.441 139.126 19.1186 136.878C19.0512 136.408 19.3772 135.973 19.8467 135.906Z" fill="#DC4748"/>
<path fill-rule="evenodd" clip-rule="evenodd" d="M37.4499 113.151C37.9194 113.083 38.3545 113.409 38.4218 113.879C38.7019 115.831 39.7559 118.579 41.9573 120.466C44.1084 122.309 47.4735 123.433 52.6317 121.982C53.0882 121.853 53.5624 122.119 53.6909 122.576C53.8193 123.032 53.5533 123.507 53.0968 123.635C47.467 125.219 43.4872 124.039 40.8397 121.77C38.2425 119.544 37.0443 116.37 36.7219 114.122C36.6545 113.653 36.9805 113.218 37.4499 113.151Z" fill="#DC4748"/>
<path fill-rule="evenodd" clip-rule="evenodd" d="M67.7384 92.7511C68.2019 92.8512 68.4965 93.3082 68.3963 93.7717C67.9797 95.6997 68.0121 98.6425 69.4197 101.177C70.7952 103.654 73.5594 105.878 78.9001 106.312C79.3728 106.35 79.7249 106.765 79.6865 107.237C79.648 107.71 79.2337 108.062 78.761 108.024C72.932 107.55 69.6113 105.059 67.9184 102.011C66.2576 99.0207 66.2381 95.6286 66.7177 93.409C66.8178 92.9455 67.2748 92.6509 67.7384 92.7511Z" fill="#DC4748"/>
<path fill-rule="evenodd" clip-rule="evenodd" d="M89.3922 75.5019C89.8559 75.402 90.3126 75.6969 90.4125 76.1605C90.8278 78.0887 92.0706 80.7565 94.398 82.4852C96.6723 84.1745 100.107 85.0612 105.152 83.2546C105.599 83.0947 106.09 83.327 106.25 83.7735C106.41 84.22 106.178 84.7115 105.731 84.8714C100.225 86.8431 96.173 85.943 93.374 83.8639C90.6281 81.8243 89.2118 78.742 88.7336 76.5221C88.6338 76.0585 88.9286 75.6017 89.3922 75.5019Z" fill="#DC4748"/>
<path fill-rule="evenodd" clip-rule="evenodd" d="M102.994 51.9624C103.456 51.8557 103.917 52.1438 104.024 52.6059C104.467 54.5279 105.749 57.1771 108.101 58.8716C110.4 60.5273 113.848 61.3634 118.866 59.483C119.31 59.3166 119.805 59.5417 119.971 59.9858C120.138 60.4299 119.912 60.9248 119.468 61.0912C113.992 63.1435 109.927 62.3029 107.098 60.2651C104.322 58.266 102.861 55.2048 102.35 52.9922C102.244 52.5301 102.532 52.069 102.994 51.9624Z" fill="#DC4748"/>
<path d="M107.026 31.5731C101.627 31.5731 97.2509 27.1966 97.2509 21.7978C97.2509 16.3991 101.627 12.0225 107.026 12.0225C112.425 12.0225 116.802 16.3991 116.802 21.7978C116.802 27.1966 112.425 31.5731 107.026 31.5731Z" fill="white"/>
<path d="M107.026 27.3563C103.956 27.3563 101.468 24.8677 101.468 21.7978C101.468 18.728 103.956 16.2393 107.026 16.2393C110.096 16.2393 112.585 18.728 112.585 21.7978C112.585 24.8677 110.096 27.3563 107.026 27.3563Z" fill="#1D1D1B"/>
<path d="M131.499 32.8612C126.1 32.8612 121.724 28.4846 121.724 23.0859C121.724 17.6871 126.1 13.3106 131.499 13.3106C136.898 13.3106 141.274 17.6871 141.274 23.0859C141.274 28.4846 136.898 32.8612 131.499 32.8612Z" fill="white"/>
<path d="M131.499 28.6444C128.429 28.6444 125.94 26.1558 125.94 23.0859C125.94 20.016 128.429 17.5274 131.499 17.5274C134.569 17.5274 137.057 20.016 137.057 23.0859C137.057 26.1558 134.569 28.6444 131.499 28.6444Z" fill="#1D1D1B"/>
<path d="M127.018 10.1661L113.996 8.78409C115.214 7.4742 118.338 4.88423 121.089 5.00344C123.84 5.12265 126.187 8.49487 127.018 10.1661Z" fill="#1D1D1B"/>
<path fill-rule="evenodd" clip-rule="evenodd" d="M113.546 8.95226L113.838 8.63788C114.459 7.97084 115.559 6.98322 116.854 6.17569C118.144 5.37116 119.658 4.72657 121.098 4.78897C122.556 4.85215 123.88 5.77274 124.928 6.85332C125.98 7.9388 126.787 9.21884 127.21 10.0706L127.384 10.4208L113.546 8.95226ZM114.457 8.61716L126.641 9.91028C126.204 9.11228 125.499 8.05974 124.619 7.15221C123.598 6.09907 122.373 5.27395 121.08 5.21792C119.769 5.16111 118.345 5.7519 117.081 6.54002C116.013 7.20595 115.08 7.99935 114.457 8.61716Z" fill="#1D1D1B"/>
</svg>
