<svg width="71" height="71" viewBox="0 0 71 71" fill="none" xmlns="http://www.w3.org/2000/svg">
<path d="M26.6445 41.3334H47.2873C47.7985 41.3334 48.2469 40.9882 48.3853 40.487L52.9559 24.1535C53.054 23.8014 52.9868 23.4231 52.7705 23.1305C52.5539 22.8389 52.217 22.6666 51.8576 22.6666H24.0068L23.19 18.9139C23.0739 18.3795 22.6098 18 22.0742 18H15.1426C14.5112 18 14 18.522 14 19.1667C14 19.8117 14.5112 20.3333 15.1426 20.3333H21.1572L25.2832 39.2914C24.0692 39.8304 23.2168 41.0642 23.2168 42.5C23.2168 44.4299 24.7545 46 26.6445 46H47.2873C47.919 46 48.4299 45.4783 48.4299 44.8333C48.4299 44.1886 47.919 43.6667 47.2873 43.6667H26.6445C26.0152 43.6667 25.5019 43.1438 25.5019 42.5C25.5019 41.8563 26.0152 41.3334 26.6445 41.3334V41.3334Z" fill="#FD5F60"/>
<path d="M26 49.5C26 51.4302 27.5701 53 29.5002 53C31.4299 53 33 51.4302 33 49.5C33 47.5701 31.4299 46 29.5002 46C27.5701 46 26 47.5701 26 49.5Z" fill="#FD5F60"/>
<path d="M42 49.5C42 51.4302 43.5701 53 45.5 53C47.4302 53 49 51.4302 49 49.5C49 47.5701 47.4302 46 45.5 46C43.5701 46 42 47.5701 42 49.5Z" fill="#FD5F60"/>
<path fill-rule="evenodd" clip-rule="evenodd" d="M35.5 68.2338C53.5784 68.2338 68.2338 53.5784 68.2338 35.5C68.2338 17.4216 53.5784 2.76623 35.5 2.76623C17.4216 2.76623 2.76623 17.4216 2.76623 35.5C2.76623 53.5784 17.4216 68.2338 35.5 68.2338ZM35.5 71C55.1061 71 71 55.1061 71 35.5C71 15.8939 55.1061 0 35.5 0C15.8939 0 0 15.8939 0 35.5C0 55.1061 15.8939 71 35.5 71Z" fill="#FD5F60"/>
</svg>
