<svg width="37" height="37" viewBox="0 0 37 37" fill="none" xmlns="http://www.w3.org/2000/svg">
<path d="M18.5 3.23607L21.4779 12.4012C21.7457 13.2253 22.5136 13.7832 23.3801 13.7832H33.0169L25.2205 19.4476C24.5195 19.9568 24.2262 20.8596 24.494 21.6836L27.4719 30.8488L19.6756 25.1844C18.9746 24.6751 18.0254 24.6751 17.3244 25.1844L9.52808 30.8488L12.506 21.6836C12.7738 20.8596 12.4805 19.9568 11.7795 19.4476L3.98314 13.7832H13.6199C14.4864 13.7832 15.2543 13.2253 15.5221 12.4012L18.5 3.23607Z" stroke="#FD5F60" stroke-width="2"/>
<path fill-rule="evenodd" clip-rule="evenodd" d="M18.7 2.63599C18.2993 2.63598 17.8986 2.86631 17.749 3.32697L14.8159 12.3539C14.6821 12.7659 14.2981 13.0449 13.8649 13.0449L4.37338 13.0449C3.40465 13.0449 3.00188 14.2845 3.78559 14.8539L11.4644 20.4329C11.8149 20.6875 11.9615 21.1389 11.8276 21.5509L8.89461 30.5779C8.59526 31.4992 9.64974 32.2653 10.4335 31.6959L18.1122 26.1169C18.2875 25.9896 18.4938 25.926 18.7 25.926V2.63599Z" fill="#FD5F60"/>
</svg>
