<svg width="200" height="214" viewBox="0 0 200 214" fill="none" xmlns="http://www.w3.org/2000/svg">
<path d="M0.241351 6.34663C0.241351 5.11479 0.509518 4.04363 1.04585 3.13314C1.63582 2.1691 2.46714 1.68708 3.53981 1.68708H37.5703C38.6429 1.68708 39.4474 2.1691 39.9838 3.13314C40.5738 4.04363 40.8687 5.11479 40.8687 6.34663C40.8687 7.63202 40.5738 8.75674 39.9838 9.72078C39.3938 10.6313 38.5893 11.0865 37.5703 11.0865H25.8245V57.1196C25.8245 58.1372 25.2882 58.9406 24.2155 59.5297C23.1965 60.1189 21.9897 60.4135 20.5953 60.4135C19.1472 60.4135 17.9136 60.1189 16.8946 59.5297C15.8755 58.9406 15.366 58.1372 15.366 57.1196V11.0865H3.53981C2.52078 11.0865 1.71627 10.6313 1.1263 9.72078C0.536335 8.8103 0.241351 7.68558 0.241351 6.34663Z" fill="#1D1D1B"/>
<path d="M46.6869 57.1196V3.21348C46.6869 2.24944 47.1428 1.47285 48.0546 0.883706C49.02 0.294569 50.2804 0 51.8357 0C53.2838 0 54.5174 0.294569 55.5365 0.883706C56.5555 1.47285 57.065 2.24944 57.065 3.21348V27.877C57.8695 26.1631 59.1567 24.717 60.9266 23.5388C62.6965 22.3605 64.7882 21.7713 67.2017 21.7713C70.9025 21.7713 74.1205 23.3781 76.8558 26.5916C79.6447 29.805 81.0392 33.6344 81.0392 38.0798V57.1196C81.0392 58.1372 80.5029 58.9406 79.4302 59.5297C78.4111 60.1189 77.2044 60.4135 75.8099 60.4135C74.4691 60.4135 73.2623 60.1189 72.1897 59.5297C71.1706 58.9406 70.6611 58.1372 70.6611 57.1196V38.0798C70.6611 36.2588 69.9639 34.5985 68.5694 33.0989C67.1749 31.5992 65.5391 30.8494 63.6619 30.8494C61.892 30.8494 60.3367 31.5189 58.9958 32.8578C57.7086 34.1968 57.065 35.9374 57.065 38.0798V57.1196C57.065 57.923 56.5287 58.6728 55.456 59.3691C54.437 60.0653 53.2302 60.4135 51.8357 60.4135C50.3876 60.4135 49.1541 60.0921 48.135 59.4494C47.1696 58.7532 46.6869 57.9766 46.6869 57.1196Z" fill="#1D1D1B"/>
<path d="M88.1521 44.6674V37.8387C88.1521 33.447 89.8684 29.6711 93.3009 26.5112C96.7335 23.3513 100.89 21.7713 105.771 21.7713C110.33 21.7713 114.218 23.2174 117.436 26.1095C120.708 28.9481 122.343 32.5365 122.343 36.8747C122.343 38.4814 122.129 39.8204 121.7 40.8916C121.324 41.9092 120.708 42.6322 119.85 43.0607C119.045 43.4891 118.294 43.7569 117.597 43.864C116.9 43.9711 115.988 44.0247 114.862 44.0247H98.5302V45.2298C98.5302 47.5327 99.3883 49.4073 101.105 50.8533C102.821 52.2459 105.1 52.9421 107.943 52.9421C109.981 52.9421 111.992 52.4333 113.977 51.4157C115.961 50.3981 117.248 49.8893 117.838 49.8893C118.965 49.8893 119.903 50.4249 120.654 51.496C121.405 52.5136 121.78 53.5045 121.78 54.4685C121.78 55.9681 120.413 57.4678 117.677 58.9674C114.996 60.4134 111.644 61.1365 107.621 61.1365C101.882 61.1365 97.1894 59.6369 93.5423 56.6376C89.9488 53.5848 88.1521 49.5947 88.1521 44.6674ZM98.5302 37.9191H110.276C111.134 37.9191 111.724 37.7852 112.046 37.5174C112.421 37.196 112.609 36.6069 112.609 35.75C112.609 33.8755 111.912 32.349 110.517 31.1708C109.176 29.9925 107.514 29.4034 105.529 29.4034C103.652 29.4034 102.016 29.9925 100.622 31.1708C99.2274 32.2955 98.5302 33.7951 98.5302 35.6696V37.9191Z" fill="#1D1D1B"/>
<path d="M4.10296 133.632V81.4127C4.10296 80.3951 4.55885 79.5917 5.47062 79.0025C6.38239 78.4134 7.45506 78.1188 8.68863 78.1188H24.2155C34.9959 78.1188 40.386 82.832 40.386 92.2582C40.386 98.7922 38.1066 103.05 33.5478 105.032C36.2831 106.103 38.348 107.629 39.7424 109.611C41.1369 111.539 41.8341 114.378 41.8341 118.127V119.814C41.8341 125.759 40.386 130.097 37.4898 132.828C34.5936 135.506 30.6784 136.845 25.7441 136.845H8.68863C7.34779 136.845 6.2483 136.524 5.39017 135.881C4.53203 135.238 4.10296 134.489 4.10296 133.632ZM14.481 127.687H23.5719C28.7744 127.687 31.3756 124.768 31.3756 118.93V117.645C31.3756 114.645 30.7052 112.476 29.3643 111.137C28.0771 109.798 26.1463 109.129 23.5719 109.129H14.481V127.687ZM14.481 100.935H23.4915C25.5832 100.935 27.1654 100.319 28.238 99.0868C29.3643 97.855 29.9275 96.1679 29.9275 94.0256C29.9275 91.9368 29.3375 90.3033 28.1576 89.125C27.0313 87.8932 25.4491 87.2773 23.411 87.2773H14.481V100.935Z" fill="#1D1D1B"/>
<path d="M116.999 133.551V79.6452C116.999 78.6812 117.455 77.9046 118.367 77.3155C119.332 76.7263 120.566 76.4318 122.068 76.4318C123.569 76.4318 124.83 76.7263 125.849 77.3155C126.868 77.9046 127.377 78.6812 127.377 79.6452V113.306L142.502 99.0868C143.146 98.5512 143.843 98.2834 144.594 98.2834C145.72 98.2834 146.846 98.819 147.973 99.8902C149.099 100.961 149.662 102.086 149.662 103.264C149.662 103.961 149.367 104.603 148.777 105.192L139.284 113.788L151.11 130.659C151.486 131.195 151.673 131.757 151.673 132.346C151.673 133.525 151.003 134.676 149.662 135.801C148.375 136.926 147.088 137.488 145.8 137.488C144.728 137.488 143.87 137.033 143.226 136.122L132.365 120.135L127.377 124.714V133.551C127.377 134.355 126.841 135.105 125.768 135.801C124.696 136.497 123.462 136.845 122.068 136.845C120.619 136.845 119.413 136.524 118.447 135.881C117.482 135.185 116.999 134.408 116.999 133.551Z" fill="#1D1D1B"/>
<path d="M0 158.728C0 157.603 0.724052 156.639 2.17216 155.836C3.62026 154.979 5.122 154.551 6.67737 154.551C8.60818 154.551 9.7613 155.247 10.1367 156.639L22.8479 200.182L29.6861 172.225C30.1688 170.297 31.8851 169.333 34.835 169.333C37.7312 169.333 39.4206 170.297 39.9033 172.225L46.7416 200.182L59.4527 156.639C59.8282 155.247 60.9813 154.551 62.9121 154.551C64.4675 154.551 65.9692 154.979 67.4173 155.836C68.8654 156.639 69.5895 157.603 69.5895 158.728C69.5895 159.049 69.5359 159.371 69.4286 159.692L53.4994 210.224C52.6949 212.581 50.4155 213.759 46.6612 213.759C45.0522 213.759 43.604 213.464 42.3168 212.875C41.0296 212.233 40.252 211.349 39.9838 210.224L34.835 188.533L29.6057 210.224C29.3375 211.349 28.5598 212.233 27.2726 212.875C25.9854 213.464 24.5373 213.759 22.9283 213.759C21.2657 213.759 19.7908 213.464 18.5036 212.875C17.2164 212.233 16.4119 211.349 16.0901 210.224L0.160901 159.692C0.0536335 159.371 0 159.049 0 158.728Z" fill="#1D1D1B"/>
<path d="M69.6706 197.531V190.943C69.6706 186.552 71.3868 182.749 74.8194 179.535C78.2519 176.268 82.3549 174.635 87.1283 174.635C91.7944 174.635 95.8705 176.242 99.3567 179.455C102.843 182.669 104.586 186.498 104.586 190.943V197.531C104.586 201.869 102.843 205.699 99.3567 209.019C95.8705 212.34 91.7944 214 87.1283 214C82.4622 214 78.386 212.34 74.8998 209.019C71.4136 205.699 69.6706 201.869 69.6706 197.531ZM80.0486 197.531C80.0486 199.459 80.7459 201.173 82.1403 202.672C83.5348 204.172 85.1975 204.922 87.1283 204.922C89.0054 204.922 90.6413 204.172 92.0357 202.672C93.4838 201.173 94.2079 199.459 94.2079 197.531V190.943C94.2079 189.122 93.4838 187.462 92.0357 185.962C90.6413 184.463 89.0054 183.713 87.1283 183.713C85.1975 183.713 83.5348 184.463 82.1403 185.962C80.7459 187.408 80.0486 189.069 80.0486 190.943V197.531Z" fill="#1D1D1B"/>
<path d="M111.991 209.983V178.33C111.991 177.366 112.447 176.59 113.359 176.001C114.324 175.411 115.558 175.117 117.06 175.117C118.4 175.117 119.5 175.411 120.358 176.001C121.27 176.59 121.726 177.366 121.726 178.33V181.624C122.584 179.75 123.925 178.116 125.748 176.724C127.572 175.331 129.529 174.635 131.621 174.635H134.115C135.08 174.635 135.939 175.09 136.689 176.001C137.494 176.911 137.896 177.955 137.896 179.134C137.896 180.366 137.494 181.437 136.689 182.347C135.939 183.258 135.08 183.713 134.115 183.713H131.621C129.154 183.713 126.982 184.811 125.105 187.007C123.281 189.203 122.369 192.068 122.369 195.603V209.983C122.369 210.787 121.833 211.536 120.76 212.233C119.688 212.929 118.454 213.277 117.06 213.277C115.611 213.277 114.405 212.956 113.439 212.313C112.474 211.617 111.991 210.84 111.991 209.983Z" fill="#1D1D1B"/>
<path d="M143.122 209.983V178.33C143.122 177.366 143.578 176.59 144.489 176.001C145.455 175.411 146.715 175.117 148.27 175.117C149.558 175.117 150.63 175.411 151.488 176.001C152.4 176.59 152.856 177.366 152.856 178.33V180.74C155.162 176.67 158.702 174.635 163.476 174.635C165.728 174.635 167.739 175.385 169.509 176.884C171.333 178.33 172.674 180.258 173.532 182.669C174.873 180.044 176.616 178.063 178.761 176.724C180.96 175.331 183.266 174.635 185.68 174.635C189.541 174.635 192.894 176.108 195.736 179.053C198.579 181.999 200 185.962 200 190.943V209.983C200 210.787 199.464 211.536 198.391 212.233C197.372 212.929 196.165 213.277 194.771 213.277C193.43 213.277 192.223 212.929 191.15 212.233C190.131 211.536 189.622 210.787 189.622 209.983V190.943C189.622 188.694 188.978 186.926 187.691 185.641C186.404 184.302 184.875 183.633 183.105 183.633C181.389 183.633 179.887 184.302 178.6 185.641C177.367 186.926 176.75 188.667 176.75 190.863V210.063C176.75 211.135 176.24 211.938 175.221 212.474C174.202 213.009 172.969 213.277 171.521 213.277C170.18 213.277 168.973 213.009 167.9 212.474C166.881 211.884 166.372 211.081 166.372 210.063V190.943C166.372 188.801 165.701 187.06 164.361 185.721C163.073 184.382 161.545 183.713 159.775 183.713C158.059 183.713 156.584 184.356 155.35 185.641C154.117 186.926 153.5 188.694 153.5 190.943V209.983C153.5 210.787 152.963 211.536 151.891 212.233C150.872 212.929 149.665 213.277 148.27 213.277C146.822 213.277 145.589 212.956 144.57 212.313C143.604 211.617 143.122 210.84 143.122 209.983Z" fill="#1D1D1B"/>
<path fill-rule="evenodd" clip-rule="evenodd" d="M77.5 80C89.9264 80 100 89.8806 100 102.069L100 140.138C100 142.271 98.2371 144 96.0625 144L58.9375 144C56.7629 144 55 142.271 55 140.138L55 102.069C55 89.8806 65.0736 80 77.5 80Z" fill="#A7A7A7"/>
<path fill-rule="evenodd" clip-rule="evenodd" d="M84.7223 129.417L85 129H70L70.2263 129.4C70.7767 130.374 71.7868 131.815 73.0386 132.99C74.2847 134.16 75.8084 135.102 77.3781 134.991C78.9286 134.882 80.4781 133.91 81.7698 132.774C83.0662 131.634 84.1331 130.301 84.7223 129.417Z" fill="#1D1D1B"/>
<path d="M64.5 120C58.1487 120 53 114.851 53 108.5C53 102.149 58.1487 97 64.5 97C70.8513 97 76 102.149 76 108.5C76 114.851 70.8513 120 64.5 120Z" fill="white"/>
<path d="M64.5 115C60.9101 115 58 112.09 58 108.5C58 104.91 60.9101 102 64.5 102C68.0899 102 71 104.91 71 108.5C71 112.09 68.0899 115 64.5 115Z" fill="#1D1D1B"/>
<path d="M91.5 120C85.1487 120 80 114.851 80 108.5C80 102.149 85.1487 97 91.5 97C97.8513 97 103 102.149 103 108.5C103 114.851 97.8513 120 91.5 120Z" fill="white"/>
<path d="M91.5 115C87.9101 115 85 112.09 85 108.5C85 104.91 87.9101 102 91.5 102C95.0899 102 98 104.91 98 108.5C98 112.09 95.0899 115 91.5 115Z" fill="#1D1D1B"/>
</svg>
