<svg width="169" height="180" viewBox="0 0 169 180" fill="none" xmlns="http://www.w3.org/2000/svg">
<path d="M1.15257 5.33828C1.15257 4.30216 1.37743 3.40118 1.82715 2.63535C2.32185 1.82448 3.01892 1.41904 3.91836 1.41904H32.4532C33.3527 1.41904 34.0272 1.82448 34.477 2.63535C34.9717 3.40118 35.219 4.30216 35.219 5.33828C35.219 6.41945 34.9717 7.36548 34.477 8.17636C33.9823 8.94219 33.3077 9.3251 32.4532 9.3251H22.6043V48.0446C22.6043 48.9005 22.1546 49.5762 21.2551 50.0718C20.4007 50.5673 19.3888 50.8151 18.2195 50.8151C17.0053 50.8151 15.9709 50.5673 15.1164 50.0718C14.262 49.5762 13.8347 48.9005 13.8347 48.0446V9.3251H3.91836C3.06389 9.3251 2.38931 8.94219 1.89461 8.17636C1.39992 7.41053 1.15257 6.4645 1.15257 5.33828Z" fill="#1D1D1B"/>
<path d="M40.0976 48.0446V2.70293C40.0976 1.89205 40.4799 1.23884 41.2444 0.743304C42.0539 0.247768 43.1108 0 44.4149 0C45.6292 0 46.6636 0.247768 47.518 0.743304C48.3725 1.23884 48.7997 1.89205 48.7997 2.70293V23.4479C49.4743 22.0063 50.5537 20.79 52.0377 19.799C53.5218 18.8079 55.2757 18.3123 57.2995 18.3123C60.4026 18.3123 63.1009 19.6638 65.3945 22.3667C67.733 25.0697 68.9023 28.2906 68.9023 32.0297V48.0446C68.9023 48.9005 68.4526 49.5762 67.5531 50.0718C66.6987 50.5673 65.6868 50.8151 64.5175 50.8151C63.3932 50.8151 62.3813 50.5673 61.4819 50.0718C60.6274 49.5762 60.2002 48.9005 60.2002 48.0446V32.0297C60.2002 30.498 59.6156 29.1015 58.4463 27.8402C57.277 26.5788 55.9053 25.9481 54.3313 25.9481C52.8472 25.9481 51.543 26.5112 50.4187 27.6374C49.3394 28.7637 48.7997 30.2277 48.7997 32.0297V48.0446C48.7997 48.7203 48.35 49.351 47.4506 49.9366C46.5961 50.5222 45.5842 50.8151 44.4149 50.8151C43.2007 50.8151 42.1663 50.5448 41.3119 50.0042C40.5024 49.4185 40.0976 48.7653 40.0976 48.0446Z" fill="#1D1D1B"/>
<path d="M74.8666 37.5707V31.827C74.8666 28.133 76.3057 24.957 79.1839 22.2992C82.0621 19.6413 85.5475 18.3123 89.6399 18.3123C93.4626 18.3123 96.7231 19.5287 99.4214 21.9613C102.165 24.3489 103.536 27.3672 103.536 31.0161C103.536 32.3676 103.356 33.4938 102.997 34.3948C102.682 35.2507 102.165 35.8588 101.445 36.2192C100.771 36.5796 100.141 36.8049 99.5563 36.895C98.9717 36.9851 98.2071 37.0301 97.2627 37.0301H83.5687V38.0437C83.5687 39.9808 84.2882 41.5575 85.7274 42.7738C87.1665 43.9451 89.0778 44.5307 91.4613 44.5307C93.1702 44.5307 94.8567 44.1028 96.5207 43.2469C98.1847 42.3909 99.264 41.963 99.7587 41.963C100.703 41.963 101.49 42.4134 102.12 43.3144C102.749 44.1704 103.064 45.0038 103.064 45.8146C103.064 47.076 101.917 48.3374 99.6238 49.5987C97.3752 50.815 94.5644 51.4232 91.1915 51.4232C86.3795 51.4232 82.4444 50.1618 79.3863 47.6391C76.3731 45.0713 74.8666 41.7152 74.8666 37.5707ZM83.5687 31.8946H93.4176C94.1372 31.8946 94.6319 31.7819 94.9017 31.5567C95.2165 31.2864 95.3739 30.7909 95.3739 30.0701C95.3739 28.4934 94.7893 27.2095 93.62 26.2184C92.4957 25.2273 91.1015 24.7318 89.4376 24.7318C87.8635 24.7318 86.4919 25.2273 85.3226 26.2184C84.1533 27.1644 83.5687 28.4258 83.5687 30.0025V31.8946Z" fill="#1D1D1B"/>
<path d="M4.39057 112.401V68.4779C4.39057 67.622 4.77283 66.9463 5.53736 66.4507C6.30189 65.9552 7.20133 65.7074 8.23569 65.7074H21.2551C30.2946 65.7074 34.8143 69.6717 34.8143 77.6003C34.8143 83.0963 32.9029 86.6777 29.0803 88.3445C31.3739 89.2454 33.1053 90.5293 34.2746 92.1961C35.4439 93.8179 36.0285 96.2055 36.0285 99.3589V100.778C36.0285 105.778 34.8143 109.427 32.3858 111.725C29.9573 113.977 26.6743 115.103 22.5368 115.103H8.23569C7.11139 115.103 6.18946 114.833 5.4699 114.293C4.75035 113.752 4.39057 113.121 4.39057 112.401ZM13.0927 107.4H20.7155C25.0778 107.4 27.2589 104.945 27.2589 100.035V98.9535C27.2589 96.4307 26.6968 94.6062 25.5725 93.48C24.4931 92.3538 22.8741 91.7907 20.7155 91.7907H13.0927V107.4ZM13.0927 84.8982H20.648C22.4019 84.8982 23.7286 84.3802 24.6281 83.344C25.5725 82.3079 26.0447 80.8889 26.0447 79.0869C26.0447 77.33 25.55 75.956 24.5606 74.965C23.6162 73.9288 22.2895 73.4108 20.5806 73.4108H13.0927V84.8982Z" fill="#1D1D1B"/>
<path d="M99.0551 112.333V66.9913C99.0551 66.1805 99.4374 65.5272 100.202 65.0317C101.011 64.5362 102.046 64.2884 103.305 64.2884C104.564 64.2884 105.621 64.5362 106.476 65.0317C107.33 65.5272 107.757 66.1805 107.757 66.9913V95.3045L120.439 83.344C120.979 82.8936 121.564 82.6683 122.193 82.6683C123.138 82.6683 124.082 83.1188 125.027 84.0198C125.971 84.9207 126.443 85.8668 126.443 86.8578C126.443 87.4435 126.196 87.9841 125.701 88.4796L117.741 95.7099L127.657 109.9C127.972 110.351 128.13 110.824 128.13 111.319C128.13 112.31 127.567 113.279 126.443 114.225C125.364 115.171 124.285 115.644 123.205 115.644C122.306 115.644 121.586 115.261 121.047 114.495L111.94 101.048L107.757 104.9V112.333C107.757 113.009 107.308 113.639 106.408 114.225C105.509 114.811 104.474 115.103 103.305 115.103C102.091 115.103 101.079 114.833 100.269 114.293C99.4599 113.707 99.0551 113.054 99.0551 112.333Z" fill="#1D1D1B"/>
<path d="M0.950195 133.51C0.950195 132.564 1.55732 131.753 2.77157 131.077C3.98582 130.356 5.24504 129.996 6.54923 129.996C8.16823 129.996 9.13514 130.581 9.44994 131.753L20.1084 168.377L25.8423 144.862C26.2471 143.24 27.6862 142.429 30.1596 142.429C32.5881 142.429 34.0048 143.24 34.4095 144.862L40.1435 168.377L50.8019 131.753C51.1167 130.581 52.0836 129.996 53.7026 129.996C55.0068 129.996 56.266 130.356 57.4803 131.077C58.6945 131.753 59.3016 132.564 59.3016 133.51C59.3016 133.78 59.2567 134.05 59.1667 134.321L45.81 176.824C45.1354 178.806 43.2241 179.797 40.076 179.797C38.7268 179.797 37.5126 179.55 36.4333 179.054C35.3539 178.513 34.7018 177.77 34.477 176.824L30.1596 158.579L25.7748 176.824C25.55 177.77 24.8979 178.513 23.8186 179.054C22.7392 179.55 21.525 179.797 20.1758 179.797C18.7817 179.797 17.5449 179.55 16.4656 179.054C15.3863 178.513 14.7117 177.77 14.4419 176.824L1.08511 134.321C0.995167 134.05 0.950195 133.78 0.950195 133.51Z" fill="#1D1D1B"/>
<path d="M59.3696 166.147V160.606C59.3696 156.912 60.8087 153.714 63.6869 151.011C66.5652 148.263 70.0055 146.889 74.0081 146.889C77.9206 146.889 81.3385 148.241 84.2617 150.944C87.1849 153.646 88.6465 156.867 88.6465 160.606V166.147C88.6465 169.796 87.1849 173.017 84.2617 175.81C81.3385 178.603 77.9206 180 74.0081 180C70.0955 180 66.6776 178.603 63.7544 175.81C60.8312 173.017 59.3696 169.796 59.3696 166.147ZM68.0717 166.147C68.0717 167.769 68.6564 169.211 69.8256 170.472C70.9949 171.734 72.3891 172.364 74.0081 172.364C75.5821 172.364 76.9537 171.734 78.123 170.472C79.3373 169.211 79.9444 167.769 79.9444 166.147V160.606C79.9444 159.075 79.3373 157.678 78.123 156.417C76.9537 155.156 75.5821 154.525 74.0081 154.525C72.3891 154.525 70.9949 155.156 69.8256 156.417C68.6564 157.633 68.0717 159.03 68.0717 160.606V166.147Z" fill="#1D1D1B"/>
<path d="M94.8558 176.621V149.997C94.8558 149.187 95.2381 148.533 96.0026 148.038C96.8121 147.542 97.8465 147.295 99.1057 147.295C100.23 147.295 101.152 147.542 101.871 148.038C102.636 148.533 103.018 149.187 103.018 149.997V152.768C103.738 151.191 104.862 149.817 106.391 148.646C107.92 147.475 109.562 146.889 111.316 146.889H113.407C114.216 146.889 114.936 147.272 115.566 148.038C116.24 148.804 116.577 149.682 116.577 150.673C116.577 151.709 116.24 152.61 115.566 153.376C114.936 154.142 114.216 154.525 113.407 154.525H111.316C109.247 154.525 107.426 155.448 105.852 157.295C104.322 159.142 103.558 161.553 103.558 164.526V176.621C103.558 177.297 103.108 177.928 102.209 178.513C101.309 179.099 100.275 179.392 99.1057 179.392C97.8915 179.392 96.8796 179.122 96.0701 178.581C95.2606 177.995 94.8558 177.342 94.8558 176.621Z" fill="#1D1D1B"/>
<path d="M120.959 176.621V149.997C120.959 149.187 121.341 148.533 122.106 148.038C122.915 147.542 123.972 147.295 125.276 147.295C126.356 147.295 127.255 147.542 127.975 148.038C128.739 148.533 129.121 149.187 129.121 149.997V152.025C131.055 148.601 134.023 146.889 138.026 146.889C139.915 146.889 141.601 147.52 143.085 148.781C144.614 149.997 145.739 151.619 146.458 153.646C147.583 151.439 149.044 149.772 150.843 148.646C152.687 147.475 154.621 146.889 156.644 146.889C159.882 146.889 162.693 148.128 165.077 150.606C167.46 153.083 168.652 156.417 168.652 160.606V176.621C168.652 177.297 168.202 177.928 167.303 178.513C166.448 179.099 165.437 179.392 164.267 179.392C163.143 179.392 162.131 179.099 161.232 178.513C160.377 177.928 159.95 177.297 159.95 176.621V160.606C159.95 158.714 159.41 157.228 158.331 156.147C157.252 155.02 155.97 154.457 154.486 154.457C153.047 154.457 151.787 155.02 150.708 156.147C149.674 157.228 149.157 158.692 149.157 160.539V176.689C149.157 177.59 148.729 178.266 147.875 178.716C147.02 179.167 145.986 179.392 144.772 179.392C143.648 179.392 142.636 179.167 141.736 178.716C140.882 178.221 140.454 177.545 140.454 176.689V160.606C140.454 158.805 139.892 157.34 138.768 156.214C137.689 155.088 136.407 154.525 134.923 154.525C133.484 154.525 132.247 155.065 131.213 156.147C130.178 157.228 129.661 158.714 129.661 160.606V176.621C129.661 177.297 129.211 177.928 128.312 178.513C127.458 179.099 126.446 179.392 125.276 179.392C124.062 179.392 123.028 179.122 122.173 178.581C121.364 177.995 120.959 177.342 120.959 176.621Z" fill="#1D1D1B"/>
<path fill-rule="evenodd" clip-rule="evenodd" d="M65.795 67.0807C76.2919 67.0807 84.8012 75.3657 84.8012 85.5858L84.8012 117.507C84.8012 119.295 83.3121 120.745 81.4751 120.745L50.1149 120.745C48.278 120.745 46.7888 119.295 46.7888 117.507L46.7888 85.5858C46.7888 75.3657 55.2982 67.0807 65.795 67.0807Z" fill="#5BAFE4"/>
<path fill-rule="evenodd" clip-rule="evenodd" d="M72.2755 108.758L72.5032 108.447H60.2051L60.3906 108.746C60.8419 109.471 61.6701 110.546 62.6964 111.422C63.718 112.293 64.9673 112.995 66.2542 112.913C67.5254 112.831 68.7958 112.107 69.8548 111.26C70.9178 110.41 71.7925 109.417 72.2755 108.758Z" fill="#1D1D1B"/>
<path d="M54.6149 100.621C49.0577 100.621 44.5528 96.3665 44.5528 91.118C44.5528 85.8696 49.0577 81.6149 54.6149 81.6149C60.172 81.6149 64.677 85.8696 64.677 91.118C64.677 96.3665 60.172 100.621 54.6149 100.621Z" fill="white"/>
<path d="M54.615 97.2671C51.5277 97.2671 49.025 94.7643 49.025 91.677C49.025 88.5897 51.5277 86.087 54.615 86.087C57.7023 86.087 60.2051 88.5897 60.2051 91.677C60.2051 94.7643 57.7023 97.2671 54.615 97.2671Z" fill="#1D1D1B"/>
<path d="M77.5342 100.621C72.2858 100.621 68.0311 96.3665 68.0311 91.1181C68.0311 85.8697 72.2858 81.615 77.5342 81.615C82.7827 81.615 87.0374 85.8697 87.0374 91.1181C87.0374 96.3665 82.7827 100.621 77.5342 100.621Z" fill="white"/>
<path d="M78.0933 97.2672C75.006 97.2672 72.5032 94.7644 72.5032 91.6771C72.5032 88.5898 75.006 86.087 78.0933 86.087C81.1806 86.087 83.6833 88.5898 83.6833 91.6771C83.6833 94.7644 81.1806 97.2672 78.0933 97.2672Z" fill="#1D1D1B"/>
</svg>
