<svg width="169" height="180" viewBox="0 0 169 180" fill="none" xmlns="http://www.w3.org/2000/svg">
<path d="M0.95384 5.33828C0.95384 4.30216 1.1787 3.40118 1.62842 2.63535C2.12312 1.82448 2.82019 1.41904 3.71963 1.41904H32.2545C33.1539 1.41904 33.8285 1.82448 34.2782 2.63535C34.7729 3.40118 35.0203 4.30216 35.0203 5.33828C35.0203 6.41945 34.7729 7.36548 34.2782 8.17636C33.7835 8.94219 33.109 9.3251 32.2545 9.3251H22.4056V48.0446C22.4056 48.9005 21.9559 49.5762 21.0564 50.0718C20.2019 50.5673 19.1901 50.8151 18.0208 50.8151C16.8065 50.8151 15.7722 50.5673 14.9177 50.0718C14.0632 49.5762 13.636 48.9005 13.636 48.0446V9.3251H3.71963C2.86516 9.3251 2.19058 8.94219 1.69588 8.17636C1.20119 7.41053 0.95384 6.4645 0.95384 5.33828Z" fill="#1D1D1B"/>
<path d="M39.8989 48.0446V2.70293C39.8989 1.89205 40.2812 1.23884 41.0457 0.743304C41.8552 0.247768 42.912 0 44.2162 0C45.4305 0 46.4648 0.247768 47.3193 0.743304C48.1738 1.23884 48.601 1.89205 48.601 2.70293V23.4479C49.2756 22.0063 50.3549 20.79 51.839 19.799C53.3231 18.8079 55.077 18.3123 57.1008 18.3123C60.2038 18.3123 62.9022 19.6638 65.1957 22.3667C67.5343 25.0697 68.7036 28.2906 68.7036 32.0297V48.0446C68.7036 48.9005 68.2539 49.5762 67.3544 50.0718C66.4999 50.5673 65.4881 50.8151 64.3188 50.8151C63.1945 50.8151 62.1826 50.5673 61.2832 50.0718C60.4287 49.5762 60.0015 48.9005 60.0015 48.0446V32.0297C60.0015 30.498 59.4168 29.1015 58.2475 27.8402C57.0783 26.5788 55.7066 25.9481 54.1326 25.9481C52.6485 25.9481 51.3443 26.5112 50.22 27.6374C49.1407 28.7637 48.601 30.2277 48.601 32.0297V48.0446C48.601 48.7203 48.1513 49.351 47.2518 49.9366C46.3974 50.5222 45.3855 50.8151 44.2162 50.8151C43.002 50.8151 41.9676 50.5448 41.1131 50.0042C40.3036 49.4185 39.8989 48.7653 39.8989 48.0446Z" fill="#1D1D1B"/>
<path d="M74.6678 37.5707V31.827C74.6678 28.133 76.1069 24.957 78.9852 22.2992C81.8634 19.6413 85.3487 18.3123 89.4412 18.3123C93.2638 18.3123 96.5243 19.5287 99.2227 21.9613C101.966 24.3489 103.338 27.3672 103.338 31.0161C103.338 32.3676 103.158 33.4938 102.798 34.3948C102.483 35.2507 101.966 35.8588 101.246 36.2192C100.572 36.5796 99.9422 36.8049 99.3576 36.895C98.7729 36.9851 98.0084 37.0301 97.064 37.0301H83.37V38.0437C83.37 39.9808 84.0895 41.5575 85.5286 42.7738C86.9677 43.9451 88.8791 44.5307 91.2626 44.5307C92.9715 44.5307 94.658 44.1028 96.322 43.2469C97.9859 42.3909 99.0653 41.963 99.56 41.963C100.504 41.963 101.291 42.4134 101.921 43.3144C102.551 44.1704 102.865 45.0038 102.865 45.8146C102.865 47.076 101.719 48.3374 99.425 49.5987C97.1764 50.815 94.3657 51.4232 90.9928 51.4232C86.1807 51.4232 82.2457 50.1618 79.1875 47.6391C76.1744 45.0713 74.6678 41.7152 74.6678 37.5707ZM83.37 31.8946H93.2189C93.9384 31.8946 94.4331 31.7819 94.703 31.5567C95.0178 31.2864 95.1752 30.7909 95.1752 30.0701C95.1752 28.4934 94.5905 27.2095 93.4212 26.2184C92.2969 25.2273 90.9028 24.7318 89.2388 24.7318C87.6648 24.7318 86.2931 25.2273 85.1239 26.2184C83.9546 27.1644 83.37 28.4258 83.37 30.0025V31.8946Z" fill="#1D1D1B"/>
<path d="M4.19184 112.401V68.4779C4.19184 67.622 4.5741 66.9463 5.33863 66.4507C6.10316 65.9552 7.0026 65.7074 8.03696 65.7074H21.0564C30.0958 65.7074 34.6155 69.6717 34.6155 77.6003C34.6155 83.0963 32.7042 86.6777 28.8816 88.3445C31.1752 89.2454 32.9066 90.5293 34.0759 92.1961C35.2451 93.8179 35.8298 96.2055 35.8298 99.3589V100.778C35.8298 105.778 34.6155 109.427 32.187 111.725C29.7585 113.977 26.4756 115.103 22.3381 115.103H8.03696C6.91266 115.103 5.99073 114.833 5.27117 114.293C4.55162 113.752 4.19184 113.121 4.19184 112.401ZM12.894 107.4H20.5167C24.879 107.4 27.0602 104.945 27.0602 100.035V98.9535C27.0602 96.4307 26.498 94.6062 25.3737 93.48C24.2944 92.3538 22.6754 91.7907 20.5167 91.7907H12.894V107.4ZM12.894 84.8982H20.4493C22.2032 84.8982 23.5299 84.3802 24.4293 83.344C25.3737 82.3079 25.846 80.8889 25.846 79.0869C25.846 77.33 25.3513 75.956 24.3619 74.965C23.4175 73.9288 22.0908 73.4108 20.3818 73.4108H12.894V84.8982Z" fill="#1D1D1B"/>
<path d="M98.8564 112.333V66.9913C98.8564 66.1805 99.2386 65.5272 100.003 65.0317C100.813 64.5362 101.847 64.2884 103.106 64.2884C104.365 64.2884 105.422 64.5362 106.277 65.0317C107.131 65.5272 107.558 66.1805 107.558 66.9913V95.3045L120.241 83.344C120.78 82.8936 121.365 82.6683 121.995 82.6683C122.939 82.6683 123.883 83.1188 124.828 84.0198C125.772 84.9207 126.244 85.8668 126.244 86.8578C126.244 87.4435 125.997 87.9841 125.502 88.4796L117.542 95.7099L127.459 109.9C127.774 110.351 127.931 110.824 127.931 111.319C127.931 112.31 127.369 113.279 126.244 114.225C125.165 115.171 124.086 115.644 123.006 115.644C122.107 115.644 121.387 115.261 120.848 114.495L111.741 101.048L107.558 104.9V112.333C107.558 113.009 107.109 113.639 106.209 114.225C105.31 114.811 104.276 115.103 103.106 115.103C101.892 115.103 100.88 114.833 100.071 114.293C99.2611 113.707 98.8564 113.054 98.8564 112.333Z" fill="#1D1D1B"/>
<path d="M0.751465 133.51C0.751465 132.564 1.35859 131.753 2.57284 131.077C3.78709 130.356 5.04631 129.996 6.3505 129.996C7.9695 129.996 8.93641 130.581 9.25121 131.753L19.9096 168.377L25.6436 144.862C26.0483 143.24 27.4874 142.429 29.9609 142.429C32.3894 142.429 33.806 143.24 34.2108 144.862L39.9447 168.377L50.6031 131.753C50.918 130.581 51.8849 129.996 53.5039 129.996C54.808 129.996 56.0673 130.356 57.2815 131.077C58.4958 131.753 59.1029 132.564 59.1029 133.51C59.1029 133.78 59.0579 134.05 58.968 134.321L45.6112 176.824C44.9366 178.806 43.0253 179.797 39.8773 179.797C38.5281 179.797 37.3139 179.55 36.2345 179.054C35.1552 178.513 34.5031 177.77 34.2782 176.824L29.9609 158.579L25.5761 176.824C25.3513 177.77 24.6992 178.513 23.6198 179.054C22.5405 179.55 21.3262 179.797 19.9771 179.797C18.5829 179.797 17.3462 179.55 16.2669 179.054C15.1875 178.513 14.513 177.77 14.2431 176.824L0.886381 134.321C0.796437 134.05 0.751465 133.78 0.751465 133.51Z" fill="#1D1D1B"/>
<path d="M59.1709 166.147V160.606C59.1709 156.912 60.61 153.714 63.4882 151.011C66.3664 148.263 69.8068 146.889 73.8093 146.889C77.7219 146.889 81.1398 148.241 84.063 150.944C86.9862 153.646 88.4478 156.867 88.4478 160.606V166.147C88.4478 169.796 86.9862 173.017 84.063 175.81C81.1398 178.603 77.7219 180 73.8093 180C69.8967 180 66.4789 178.603 63.5557 175.81C60.6325 173.017 59.1709 169.796 59.1709 166.147ZM67.873 166.147C67.873 167.769 68.4576 169.211 69.6269 170.472C70.7962 171.734 72.1903 172.364 73.8093 172.364C75.3834 172.364 76.755 171.734 77.9243 170.472C79.1385 169.211 79.7457 167.769 79.7457 166.147V160.606C79.7457 159.075 79.1385 157.678 77.9243 156.417C76.755 155.156 75.3834 154.525 73.8093 154.525C72.1903 154.525 70.7962 155.156 69.6269 156.417C68.4576 157.633 67.873 159.03 67.873 160.606V166.147Z" fill="#1D1D1B"/>
<path d="M94.6571 176.621V149.997C94.6571 149.187 95.0394 148.533 95.8039 148.038C96.6134 147.542 97.6478 147.295 98.907 147.295C100.031 147.295 100.953 147.542 101.673 148.038C102.437 148.533 102.82 149.187 102.82 149.997V152.768C103.539 151.191 104.663 149.817 106.192 148.646C107.722 147.475 109.363 146.889 111.117 146.889H113.208C114.018 146.889 114.737 147.272 115.367 148.038C116.041 148.804 116.379 149.682 116.379 150.673C116.379 151.709 116.041 152.61 115.367 153.376C114.737 154.142 114.018 154.525 113.208 154.525H111.117C109.048 154.525 107.227 155.448 105.653 157.295C104.124 159.142 103.359 161.553 103.359 164.526V176.621C103.359 177.297 102.91 177.928 102.01 178.513C101.111 179.099 100.076 179.392 98.907 179.392C97.6927 179.392 96.6809 179.122 95.8714 178.581C95.0619 177.995 94.6571 177.342 94.6571 176.621Z" fill="#1D1D1B"/>
<path d="M120.76 176.621V149.997C120.76 149.187 121.143 148.533 121.907 148.038C122.717 147.542 123.773 147.295 125.078 147.295C126.157 147.295 127.056 147.542 127.776 148.038C128.54 148.533 128.923 149.187 128.923 149.997V152.025C130.857 148.601 133.825 146.889 137.827 146.889C139.716 146.889 141.403 147.52 142.887 148.781C144.416 149.997 145.54 151.619 146.26 153.646C147.384 151.439 148.845 149.772 150.644 148.646C152.488 147.475 154.422 146.889 156.446 146.889C159.684 146.889 162.495 148.128 164.878 150.606C167.262 153.083 168.453 156.417 168.453 160.606V176.621C168.453 177.297 168.004 177.928 167.104 178.513C166.25 179.099 165.238 179.392 164.069 179.392C162.944 179.392 161.932 179.099 161.033 178.513C160.178 177.928 159.751 177.297 159.751 176.621V160.606C159.751 158.714 159.212 157.228 158.132 156.147C157.053 155.02 155.771 154.457 154.287 154.457C152.848 154.457 151.589 155.02 150.509 156.147C149.475 157.228 148.958 158.692 148.958 160.539V176.689C148.958 177.59 148.531 178.266 147.676 178.716C146.822 179.167 145.787 179.392 144.573 179.392C143.449 179.392 142.437 179.167 141.537 178.716C140.683 178.221 140.256 177.545 140.256 176.689V160.606C140.256 158.805 139.694 157.34 138.569 156.214C137.49 155.088 136.208 154.525 134.724 154.525C133.285 154.525 132.048 155.065 131.014 156.147C129.98 157.228 129.462 158.714 129.462 160.606V176.621C129.462 177.297 129.013 177.928 128.113 178.513C127.259 179.099 126.247 179.392 125.078 179.392C123.863 179.392 122.829 179.122 121.975 178.581C121.165 177.995 120.76 177.342 120.76 176.621Z" fill="#1D1D1B"/>
<path fill-rule="evenodd" clip-rule="evenodd" d="M65.5961 67.0807C76.0929 67.0807 84.6023 75.5383 84.6023 85.9713L84.6023 118.558C84.6023 120.383 83.1131 121.863 81.2762 121.863L49.9159 121.863C48.079 121.863 46.5898 120.383 46.5898 118.558L46.5898 85.9713C46.5898 75.5383 55.0992 67.0807 65.5961 67.0807Z" fill="#A7A7A7"/>
<path fill-rule="evenodd" clip-rule="evenodd" d="M72.0768 108.758L72.3045 108.447H60.0063L60.1919 108.746C60.6431 109.471 61.4713 110.546 62.4976 111.422C63.5193 112.293 64.7686 112.995 66.0555 112.913C67.3267 112.831 68.5971 112.107 69.6561 111.26C70.719 110.41 71.5937 109.417 72.0768 108.758Z" fill="#1D1D1B"/>
<path d="M54.4159 101.739C48.8588 101.739 44.3538 97.2342 44.3538 91.677C44.3538 86.1199 48.8588 81.6149 54.4159 81.6149C59.9731 81.6149 64.478 86.1199 64.478 91.677C64.478 97.2342 59.9731 101.739 54.4159 101.739Z" fill="white"/>
<path d="M54.4163 97.2671C51.329 97.2671 48.8262 94.7643 48.8262 91.677C48.8262 88.5897 51.329 86.087 54.4163 86.087C57.5036 86.087 60.0063 88.5897 60.0063 91.677C60.0063 94.7643 57.5036 97.2671 54.4163 97.2671Z" fill="#1D1D1B"/>
<path d="M77.3353 101.739C72.0869 101.739 67.8322 97.2342 67.8322 91.677C67.8322 86.1199 72.0869 81.6149 77.3353 81.6149C82.5837 81.6149 86.8384 86.1199 86.8384 91.677C86.8384 97.2342 82.5837 101.739 77.3353 101.739Z" fill="white"/>
<path d="M76.7766 97.2671C73.6893 97.2671 71.1866 94.7643 71.1866 91.677C71.1866 88.5897 73.6893 86.087 76.7766 86.087C79.8639 86.087 82.3667 88.5897 82.3667 91.677C82.3667 94.7643 79.8639 97.2671 76.7766 97.2671Z" fill="#1D1D1B"/>
</svg>
