<svg width="84" height="90" viewBox="0 0 84 90" fill="none" xmlns="http://www.w3.org/2000/svg">
<path d="M0.101187 2.66914C0.101187 2.15108 0.213618 1.70059 0.438479 1.31768C0.685826 0.912239 1.03436 0.70952 1.48408 0.70952H15.7515C16.2012 0.70952 16.5385 0.912239 16.7634 1.31768C17.0107 1.70059 17.1344 2.15108 17.1344 2.66914C17.1344 3.20973 17.0107 3.68274 16.7634 4.08818C16.516 4.47109 16.1787 4.66255 15.7515 4.66255H10.8271V24.0223C10.8271 24.4502 10.6022 24.7881 10.1525 25.0359C9.72524 25.2836 9.2193 25.4075 8.63466 25.4075C8.02754 25.4075 7.51036 25.2836 7.08312 25.0359C6.65589 24.7881 6.44227 24.4502 6.44227 24.0223V4.66255H1.48408C1.05685 4.66255 0.719555 4.47109 0.472208 4.08818C0.224861 3.70526 0.101187 3.23225 0.101187 2.66914Z" fill="#1D1D1B"/>
<path d="M19.5737 24.0223V1.35147C19.5737 0.946026 19.7648 0.619421 20.1471 0.371652C20.5519 0.123884 21.0803 0 21.7324 0C22.3395 0 22.8567 0.123884 23.2839 0.371652C23.7112 0.619421 23.9248 0.946026 23.9248 1.35147V11.724C24.2621 11.0032 24.8017 10.395 25.5438 9.89947C26.2858 9.40394 27.1628 9.15617 28.1746 9.15617C29.7262 9.15617 31.0754 9.8319 32.2221 11.1834C33.3914 12.5348 33.9761 14.1453 33.9761 16.0148V24.0223C33.9761 24.4502 33.7512 24.7881 33.3015 25.0359C32.8742 25.2836 32.3683 25.4075 31.7837 25.4075C31.2215 25.4075 30.7156 25.2836 30.2658 25.0359C29.8386 24.7881 29.625 24.4502 29.625 24.0223V16.0148C29.625 15.249 29.3327 14.5508 28.748 13.9201C28.1634 13.2894 27.4776 12.9741 26.6906 12.9741C25.9485 12.9741 25.2964 13.2556 24.7343 13.8187C24.1946 14.3818 23.9248 15.1139 23.9248 16.0148V24.0223C23.9248 24.3601 23.6999 24.6755 23.2502 24.9683C22.823 25.2611 22.317 25.4075 21.7324 25.4075C21.1253 25.4075 20.6081 25.2724 20.1808 25.0021C19.7761 24.7093 19.5737 24.3827 19.5737 24.0223Z" fill="#1D1D1B"/>
<path d="M36.9582 18.7854V15.9135C36.9582 14.0665 37.6777 12.4785 39.1169 11.1496C40.556 9.82064 42.2986 9.15617 44.3449 9.15617C46.2562 9.15617 47.8864 9.76433 49.2356 10.9806C50.6072 12.1744 51.2931 13.6836 51.2931 15.5081C51.2931 16.1838 51.2031 16.7469 51.0232 17.1974C50.8658 17.6253 50.6073 17.9294 50.2475 18.1096C49.9102 18.2898 49.5954 18.4024 49.3031 18.4475C49.0107 18.4925 48.6285 18.5151 48.1563 18.5151H41.3092V19.0219C41.3092 19.9904 41.669 20.7788 42.3886 21.3869C43.1081 21.9726 44.0638 22.2654 45.2556 22.2654C46.11 22.2654 46.9533 22.0514 47.7852 21.6234C48.6172 21.1955 49.1569 20.9815 49.4042 20.9815C49.8765 20.9815 50.27 21.2067 50.5848 21.6572C50.8996 22.0852 51.057 22.5019 51.057 22.9073C51.057 23.538 50.4836 24.1687 49.3368 24.7994C48.2125 25.4075 46.8071 25.7116 45.1206 25.7116C42.7146 25.7116 40.7471 25.0809 39.218 23.8196C37.7115 22.5357 36.9582 20.8576 36.9582 18.7854ZM41.3092 15.9473H46.2337C46.5935 15.9473 46.8408 15.891 46.9757 15.7783C47.1331 15.6432 47.2118 15.3954 47.2118 15.035C47.2118 14.2467 46.9195 13.6047 46.3349 13.1092C45.7727 12.6137 45.0757 12.3659 44.2437 12.3659C43.4567 12.3659 42.7708 12.6137 42.1862 13.1092C41.6016 13.5822 41.3092 14.2129 41.3092 15.0013V15.9473Z" fill="#1D1D1B"/>
<path d="M1.72019 56.2003V34.239C1.72019 33.811 1.91132 33.4731 2.29358 33.2254C2.67585 32.9776 3.12557 32.8537 3.64275 32.8537H10.1525C14.6722 32.8537 16.932 34.8359 16.932 38.8002C16.932 41.5481 15.9764 43.3388 14.0651 44.1722C15.2118 44.6227 16.0776 45.2647 16.6622 46.0981C17.2468 46.9089 17.5392 48.1027 17.5392 49.6794V50.389C17.5392 52.8892 16.932 54.7137 15.7178 55.8624C14.5035 56.9886 12.862 57.5517 10.7933 57.5517H3.64275C3.0806 57.5517 2.61963 57.4166 2.25985 57.1463C1.90008 56.876 1.72019 56.5606 1.72019 56.2003ZM6.07125 53.7001H9.88264C12.0638 53.7001 13.1544 52.4725 13.1544 50.0173V49.4767C13.1544 48.2154 12.8733 47.3031 12.3111 46.74C11.7715 46.1769 10.962 45.8953 9.88264 45.8953H6.07125V53.7001ZM6.07125 42.4491H9.84891C10.7259 42.4491 11.3892 42.1901 11.8389 41.672C12.3111 41.154 12.5472 40.4444 12.5472 39.5435C12.5472 38.665 12.2999 37.978 11.8052 37.4825C11.333 36.9644 10.6697 36.7054 9.81518 36.7054H6.07125V42.4491Z" fill="#1D1D1B"/>
<path d="M49.0525 56.1665V33.4957C49.0525 33.0902 49.2436 32.7636 49.6259 32.5159C50.0306 32.2681 50.5478 32.1442 51.1774 32.1442C51.807 32.1442 52.3354 32.2681 52.7627 32.5159C53.1899 32.7636 53.4035 33.0902 53.4035 33.4957V47.6523L59.7446 41.672C60.0144 41.4468 60.3068 41.3342 60.6216 41.3342C61.0938 41.3342 61.566 41.5594 62.0382 42.0099C62.5104 42.4604 62.7465 42.9334 62.7465 43.4289C62.7465 43.7217 62.6228 43.992 62.3755 44.2398L58.3954 47.855L63.3536 54.9502C63.511 55.1754 63.5897 55.4119 63.5897 55.6597C63.5897 56.1552 63.3086 56.6395 62.7465 57.1125C62.2068 57.5855 61.6672 57.822 61.1275 57.822C60.6778 57.822 60.318 57.6306 60.0482 57.2476L55.4947 50.5241L53.4035 52.4499V56.1665C53.4035 56.5043 53.1787 56.8197 52.7289 57.1125C52.2792 57.4053 51.762 57.5517 51.1774 57.5517C50.5703 57.5517 50.0643 57.4166 49.6596 57.1463C49.2548 56.8535 49.0525 56.5269 49.0525 56.1665Z" fill="#1D1D1B"/>
<path d="M0 66.7548C0 66.2818 0.303562 65.8764 0.910687 65.5385C1.51781 65.1781 2.14742 64.9979 2.79952 64.9979C3.60902 64.9979 4.09247 65.2907 4.24987 65.8764L9.57908 84.1887L12.4461 72.431C12.6484 71.6201 13.368 71.2146 14.6047 71.2146C15.819 71.2146 16.5273 71.6201 16.7297 72.431L19.5966 84.1887L24.9258 65.8764C25.0832 65.2907 25.5667 64.9979 26.3762 64.9979C27.0283 64.9979 27.6579 65.1781 28.265 65.5385C28.8722 65.8764 29.1757 66.2818 29.1757 66.7548C29.1757 66.89 29.1532 67.0251 29.1083 67.1603L22.4299 88.412C22.0926 89.4031 21.1369 89.8986 19.5629 89.8986C18.8883 89.8986 18.2812 89.7748 17.7415 89.527C17.2019 89.2567 16.8758 88.885 16.7634 88.412L14.6047 79.2896L12.4123 88.412C12.2999 88.885 11.9738 89.2567 11.4342 89.527C10.8945 89.7748 10.2874 89.8986 9.61281 89.8986C8.91574 89.8986 8.29737 89.7748 7.7577 89.527C7.21804 89.2567 6.88075 88.885 6.74583 88.412L0.0674583 67.1603C0.0224861 67.0251 0 66.89 0 66.7548Z" fill="#1D1D1B"/>
<path d="M29.2097 83.0737V80.3032C29.2097 78.4562 29.9293 76.857 31.3684 75.5055C32.8075 74.1316 34.5277 73.4446 36.5289 73.4446C38.4852 73.4446 40.1942 74.1203 41.6558 75.4718C43.1174 76.8232 43.8482 78.4337 43.8482 80.3032V83.0737C43.8482 84.8982 43.1174 86.5087 41.6558 87.9052C40.1942 89.3017 38.4852 90 36.5289 90C34.5726 90 32.8637 89.3017 31.4021 87.9052C29.9405 86.5087 29.2097 84.8982 29.2097 83.0737ZM33.5608 83.0737C33.5608 83.8846 33.8531 84.6054 34.4377 85.2361C35.0224 85.8668 35.7194 86.1821 36.5289 86.1821C37.3159 86.1821 38.0018 85.8668 38.5864 85.2361C39.1935 84.6054 39.4971 83.8846 39.4971 83.0737V80.3032C39.4971 79.5374 39.1935 78.8392 38.5864 78.2085C38.0018 77.5778 37.3159 77.2624 36.5289 77.2624C35.7194 77.2624 35.0224 77.5778 34.4377 78.2085C33.8531 78.8166 33.5608 79.5149 33.5608 80.3032V83.0737Z" fill="#1D1D1B"/>
<path d="M46.9528 88.3107V74.9987C46.9528 74.5933 47.1439 74.2667 47.5262 74.0189C47.931 73.7712 48.4481 73.6473 49.0778 73.6473C49.6399 73.6473 50.1009 73.7712 50.4606 74.0189C50.8429 74.2667 51.034 74.5933 51.034 74.9987V76.384C51.3938 75.5956 51.956 74.9087 52.7205 74.323C53.485 73.7374 54.3058 73.4446 55.1827 73.4446H56.2283C56.6331 73.4446 56.9929 73.636 57.3077 74.0189C57.645 74.4018 57.8136 74.8411 57.8136 75.3366C57.8136 75.8547 57.645 76.3052 57.3077 76.6881C56.9929 77.071 56.6331 77.2624 56.2283 77.2624H55.1827C54.1484 77.2624 53.2377 77.7242 52.4507 78.6477C51.6861 79.5712 51.3039 80.7763 51.3039 82.2629V88.3107C51.3039 88.6485 51.079 88.9639 50.6293 89.2567C50.1796 89.5495 49.6624 89.6959 49.0778 89.6959C48.4706 89.6959 47.9647 89.5608 47.5599 89.2905C47.1552 88.9977 46.9528 88.6711 46.9528 88.3107Z" fill="#1D1D1B"/>
<path d="M60.0044 88.3107V74.9987C60.0044 74.5933 60.1956 74.2667 60.5778 74.0189C60.9826 73.7712 61.511 73.6473 62.1631 73.6473C62.7028 73.6473 63.1525 73.7712 63.5123 74.0189C63.8945 74.2667 64.0856 74.5933 64.0856 74.9987V76.0123C65.0525 74.3005 66.5366 73.4446 68.5379 73.4446C69.4823 73.4446 70.3255 73.7599 71.0676 74.3906C71.8321 74.9987 72.3943 75.8096 72.754 76.8232C73.3162 75.7195 74.047 74.8861 74.9464 74.323C75.8684 73.7374 76.8353 73.4446 77.8471 73.4446C79.4661 73.4446 80.8715 74.064 82.0633 75.3028C83.255 76.5417 83.8509 78.2085 83.8509 80.3032V88.3107C83.8509 88.6485 83.6261 88.9639 83.1764 89.2567C82.7491 89.5495 82.2432 89.6959 81.6585 89.6959C81.0964 89.6959 80.5904 89.5495 80.1407 89.2567C79.7135 88.9639 79.4999 88.6485 79.4999 88.3107V80.3032C79.4999 79.3572 79.23 78.6139 78.6904 78.0733C78.1507 77.5102 77.5098 77.2287 76.7678 77.2287C76.0483 77.2287 75.4186 77.5102 74.879 78.0733C74.3618 78.6139 74.1032 79.346 74.1032 80.2695V88.3445C74.1032 88.7949 73.8896 89.1328 73.4624 89.3581C73.0351 89.5833 72.5179 89.6959 71.9108 89.6959C71.3487 89.6959 70.8427 89.5833 70.393 89.3581C69.9658 89.1103 69.7521 88.7724 69.7521 88.3445V80.3032C69.7521 79.4023 69.4711 78.6702 68.9089 78.1071C68.3693 77.544 67.7284 77.2624 66.9864 77.2624C66.2668 77.2624 65.6484 77.5327 65.1313 78.0733C64.6141 78.6139 64.3555 79.3572 64.3555 80.3032V88.3107C64.3555 88.6485 64.1306 88.9639 63.6809 89.2567C63.2537 89.5495 62.7477 89.6959 62.1631 89.6959C61.556 89.6959 61.0388 89.5608 60.6115 89.2905C60.2068 88.9977 60.0044 88.6711 60.0044 88.3107Z" fill="#1D1D1B"/>
<path fill-rule="evenodd" clip-rule="evenodd" d="M32.7019 33.5403C37.7959 33.5403 41.9255 37.6828 41.9255 42.7929L41.9255 58.7535C41.9255 59.6477 41.2028 60.3726 40.3113 60.3726L25.0924 60.3726C24.2009 60.3726 23.4783 59.6477 23.4783 58.7535L23.4783 42.7929C23.4783 37.6828 27.6078 33.5403 32.7019 33.5403Z" fill="#FD5F60"/>
<path fill-rule="evenodd" clip-rule="evenodd" d="M35.6626 54.379L35.7764 54.2236H29.6274L29.7202 54.3728C29.9458 54.7357 30.3599 55.2728 30.873 55.7108C31.3839 56.1467 32.0085 56.4975 32.6519 56.4564C33.2876 56.4157 33.9227 56.0536 34.4522 55.6302C34.9837 55.2052 35.4211 54.7086 35.6626 54.379Z" fill="#1D1D1B"/>
<path d="M27.1118 50.3106C24.4876 50.3106 22.3602 48.1832 22.3602 45.559C22.3602 42.9348 24.4876 40.8075 27.1118 40.8075C29.736 40.8075 31.8633 42.9348 31.8633 45.559C31.8633 48.1832 29.736 50.3106 27.1118 50.3106Z" fill="white"/>
<path d="M26.8323 48.6335C25.2887 48.6335 24.0373 47.3821 24.0373 45.8385C24.0373 44.2948 25.2887 43.0435 26.8323 43.0435C28.376 43.0435 29.6274 44.2948 29.6274 45.8385C29.6274 47.3821 28.376 48.6335 26.8323 48.6335Z" fill="#1D1D1B"/>
<path d="M38.5714 50.3106C35.7928 50.3106 33.5403 48.1832 33.5403 45.559C33.5403 42.9348 35.7928 40.8075 38.5714 40.8075C41.3499 40.8075 43.6024 42.9348 43.6024 45.559C43.6024 48.1832 41.3499 50.3106 38.5714 50.3106Z" fill="white"/>
<path d="M38.5714 48.6336C37.0278 48.6336 35.7764 47.3822 35.7764 45.8385C35.7764 44.2949 37.0278 43.0435 38.5714 43.0435C40.1151 43.0435 41.3665 44.2949 41.3665 45.8385C41.3665 47.3822 40.1151 48.6336 38.5714 48.6336Z" fill="#1D1D1B"/>
</svg>
