<svg width="169" height="180" viewBox="0 0 169 180" fill="none" xmlns="http://www.w3.org/2000/svg">
<path d="M1.0532 5.33828C1.0532 4.30216 1.27807 3.40118 1.72779 2.63535C2.22248 1.82448 2.91955 1.41904 3.819 1.41904H32.3539C33.2533 1.41904 33.9279 1.82448 34.3776 2.63535C34.8723 3.40118 35.1196 4.30216 35.1196 5.33828C35.1196 6.41945 34.8723 7.36548 34.3776 8.17636C33.8829 8.94219 33.2083 9.3251 32.3539 9.3251H22.5049V48.0446C22.5049 48.9005 22.0552 49.5762 21.1558 50.0718C20.3013 50.5673 19.2894 50.8151 18.1202 50.8151C16.9059 50.8151 15.8715 50.5673 15.0171 50.0718C14.1626 49.5762 13.7354 48.9005 13.7354 48.0446V9.3251H3.819C2.96452 9.3251 2.28994 8.94219 1.79525 8.17636C1.30055 7.41053 1.0532 6.4645 1.0532 5.33828Z" fill="#1D1D1B"/>
<path d="M39.9983 48.0446V2.70293C39.9983 1.89205 40.3805 1.23884 41.145 0.743304C41.9545 0.247768 43.0114 0 44.3156 0C45.5298 0 46.5642 0.247768 47.4187 0.743304C48.2731 1.23884 48.7004 1.89205 48.7004 2.70293V23.4479C49.375 22.0063 50.4543 20.79 51.9384 19.799C53.4225 18.8079 55.1764 18.3123 57.2001 18.3123C60.3032 18.3123 63.0015 19.6638 65.2951 22.3667C67.6337 25.0697 68.8029 28.2906 68.8029 32.0297V48.0446C68.8029 48.9005 68.3532 49.5762 67.4538 50.0718C66.5993 50.5673 65.5874 50.8151 64.4182 50.8151C63.2938 50.8151 62.282 50.5673 61.3825 50.0718C60.5281 49.5762 60.1008 48.9005 60.1008 48.0446V32.0297C60.1008 30.498 59.5162 29.1015 58.3469 27.8402C57.1776 26.5788 55.806 25.9481 54.232 25.9481C52.7479 25.9481 51.4437 26.5112 50.3194 27.6374C49.24 28.7637 48.7004 30.2277 48.7004 32.0297V48.0446C48.7004 48.7203 48.2506 49.351 47.3512 49.9366C46.4967 50.5222 45.4849 50.8151 44.3156 50.8151C43.1013 50.8151 42.067 50.5448 41.2125 50.0042C40.403 49.4185 39.9983 48.7653 39.9983 48.0446Z" fill="#1D1D1B"/>
<path d="M74.7672 37.5707V31.827C74.7672 28.133 76.2063 24.957 79.0845 22.2992C81.9628 19.6413 85.4481 18.3123 89.5406 18.3123C93.3632 18.3123 96.6237 19.5287 99.322 21.9613C102.065 24.3489 103.437 27.3672 103.437 31.0161C103.437 32.3676 103.257 33.4938 102.897 34.3948C102.583 35.2507 102.065 35.8588 101.346 36.2192C100.671 36.5796 100.042 36.8049 99.4569 36.895C98.8723 36.9851 98.1078 37.0301 97.1634 37.0301H83.4693V38.0437C83.4693 39.9808 84.1889 41.5575 85.628 42.7738C87.0671 43.9451 88.9784 44.5307 91.3619 44.5307C93.0709 44.5307 94.7573 44.1028 96.4213 43.2469C98.0853 42.3909 99.1646 41.963 99.6593 41.963C100.604 41.963 101.391 42.4134 102.02 43.3144C102.65 44.1704 102.965 45.0038 102.965 45.8146C102.965 47.076 101.818 48.3374 99.5244 49.5987C97.2758 50.815 94.465 51.4232 91.0921 51.4232C86.2801 51.4232 82.345 50.1618 79.2869 47.6391C76.2738 45.0713 74.7672 41.7152 74.7672 37.5707ZM83.4693 31.8946H93.3182C94.0378 31.8946 94.5325 31.7819 94.8023 31.5567C95.1171 31.2864 95.2745 30.7909 95.2745 30.0701C95.2745 28.4934 94.6899 27.2095 93.5206 26.2184C92.3963 25.2273 91.0022 24.7318 89.3382 24.7318C87.7642 24.7318 86.3925 25.2273 85.2232 26.2184C84.054 27.1644 83.4693 28.4258 83.4693 30.0025V31.8946Z" fill="#1D1D1B"/>
<path d="M4.2912 112.401V68.4779C4.2912 67.622 4.67347 66.9463 5.43799 66.4507C6.20252 65.9552 7.10197 65.7074 8.13633 65.7074H21.1558C30.1952 65.7074 34.7149 69.6717 34.7149 77.6003C34.7149 83.0963 32.8036 86.6777 28.9809 88.3445C31.2745 89.2454 33.006 90.5293 34.1752 92.1961C35.3445 93.8179 35.9291 96.2055 35.9291 99.3589V100.778C35.9291 105.778 34.7149 109.427 32.2864 111.725C29.8579 113.977 26.5749 115.103 22.4375 115.103H8.13633C7.01202 115.103 6.09009 114.833 5.37054 114.293C4.65098 113.752 4.2912 113.121 4.2912 112.401ZM12.9933 107.4H20.6161C24.9784 107.4 27.1596 104.945 27.1596 100.035V98.9535C27.1596 96.4307 26.5974 94.6062 25.4731 93.48C24.3938 92.3538 22.7748 91.7907 20.6161 91.7907H12.9933V107.4ZM12.9933 84.8982H20.5487C22.3026 84.8982 23.6292 84.3802 24.5287 83.344C25.4731 82.3079 25.9453 80.8889 25.9453 79.0869C25.9453 77.33 25.4506 75.956 24.4612 74.965C23.5168 73.9288 22.1901 73.4108 20.4812 73.4108H12.9933V84.8982Z" fill="#1D1D1B"/>
<path d="M98.9557 112.333V66.9913C98.9557 66.1805 99.338 65.5272 100.103 65.0317C100.912 64.5362 101.946 64.2884 103.206 64.2884C104.465 64.2884 105.522 64.5362 106.376 65.0317C107.231 65.5272 107.658 66.1805 107.658 66.9913V95.3045L120.34 83.344C120.88 82.8936 121.464 82.6683 122.094 82.6683C123.038 82.6683 123.983 83.1188 124.927 84.0198C125.872 84.9207 126.344 85.8668 126.344 86.8578C126.344 87.4435 126.096 87.9841 125.602 88.4796L117.642 95.7099L127.558 109.9C127.873 110.351 128.03 110.824 128.03 111.319C128.03 112.31 127.468 113.279 126.344 114.225C125.264 115.171 124.185 115.644 123.106 115.644C122.206 115.644 121.487 115.261 120.947 114.495L111.84 101.048L107.658 104.9V112.333C107.658 113.009 107.208 113.639 106.309 114.225C105.409 114.811 104.375 115.103 103.206 115.103C101.991 115.103 100.979 114.833 100.17 114.293C99.3605 113.707 98.9557 113.054 98.9557 112.333Z" fill="#1D1D1B"/>
<path d="M0.85083 133.51C0.85083 132.564 1.45795 131.753 2.6722 131.077C3.88645 130.356 5.14567 129.996 6.44987 129.996C8.06887 129.996 9.03577 130.581 9.35058 131.753L20.009 168.377L25.7429 144.862C26.1477 143.24 27.5868 142.429 30.0603 142.429C32.4888 142.429 33.9054 143.24 34.3101 144.862L40.0441 168.377L50.7025 131.753C51.0173 130.581 51.9842 129.996 53.6032 129.996C54.9074 129.996 56.1666 130.356 57.3809 131.077C58.5951 131.753 59.2023 132.564 59.2023 133.51C59.2023 133.78 59.1573 134.05 59.0673 134.321L45.7106 176.824C45.036 178.806 43.1247 179.797 39.9766 179.797C38.6275 179.797 37.4132 179.55 36.3339 179.054C35.2546 178.513 34.6025 177.77 34.3776 176.824L30.0603 158.579L25.6755 176.824C25.4506 177.77 24.7985 178.513 23.7192 179.054C22.6399 179.55 21.4256 179.797 20.0764 179.797C18.6823 179.797 17.4456 179.55 16.3662 179.054C15.2869 178.513 14.6123 177.77 14.3425 176.824L0.985747 134.321C0.895802 134.05 0.85083 133.78 0.85083 133.51Z" fill="#1D1D1B"/>
<path d="M59.2702 166.147V160.606C59.2702 156.912 60.7094 153.714 63.5876 151.011C66.4658 148.263 69.9062 146.889 73.9087 146.889C77.8213 146.889 81.2392 148.241 84.1624 150.944C87.0855 153.646 88.5471 156.867 88.5471 160.606V166.147C88.5471 169.796 87.0855 173.017 84.1624 175.81C81.2392 178.603 77.8213 180 73.9087 180C69.9961 180 66.5782 178.603 63.655 175.81C60.7318 173.017 59.2702 169.796 59.2702 166.147ZM67.9724 166.147C67.9724 167.769 68.557 169.211 69.7263 170.472C70.8955 171.734 72.2897 172.364 73.9087 172.364C75.4827 172.364 76.8544 171.734 78.0236 170.472C79.2379 169.211 79.845 167.769 79.845 166.147V160.606C79.845 159.075 79.2379 157.678 78.0236 156.417C76.8544 155.156 75.4827 154.525 73.9087 154.525C72.2897 154.525 70.8955 155.156 69.7263 156.417C68.557 157.633 67.9724 159.03 67.9724 160.606V166.147Z" fill="#1D1D1B"/>
<path d="M94.7565 176.621V149.997C94.7565 149.187 95.1387 148.533 95.9033 148.038C96.7128 147.542 97.7471 147.295 99.0063 147.295C100.131 147.295 101.053 147.542 101.772 148.038C102.537 148.533 102.919 149.187 102.919 149.997V152.768C103.638 151.191 104.763 149.817 106.292 148.646C107.821 147.475 109.462 146.889 111.216 146.889H113.307C114.117 146.889 114.837 147.272 115.466 148.038C116.141 148.804 116.478 149.682 116.478 150.673C116.478 151.709 116.141 152.61 115.466 153.376C114.837 154.142 114.117 154.525 113.307 154.525H111.216C109.148 154.525 107.326 155.448 105.752 157.295C104.223 159.142 103.459 161.553 103.459 164.526V176.621C103.459 177.297 103.009 177.928 102.109 178.513C101.21 179.099 100.176 179.392 99.0063 179.392C97.7921 179.392 96.7802 179.122 95.9707 178.581C95.1612 177.995 94.7565 177.342 94.7565 176.621Z" fill="#1D1D1B"/>
<path d="M120.86 176.621V149.997C120.86 149.187 121.242 148.533 122.006 148.038C122.816 147.542 123.873 147.295 125.177 147.295C126.256 147.295 127.156 147.542 127.875 148.038C128.64 148.533 129.022 149.187 129.022 149.997V152.025C130.956 148.601 133.924 146.889 137.927 146.889C139.815 146.889 141.502 147.52 142.986 148.781C144.515 149.997 145.639 151.619 146.359 153.646C147.483 151.439 148.945 149.772 150.744 148.646C152.588 147.475 154.521 146.889 156.545 146.889C159.783 146.889 162.594 148.128 164.977 150.606C167.361 153.083 168.553 156.417 168.553 160.606V176.621C168.553 177.297 168.103 177.928 167.204 178.513C166.349 179.099 165.337 179.392 164.168 179.392C163.044 179.392 162.032 179.099 161.132 178.513C160.278 177.928 159.851 177.297 159.851 176.621V160.606C159.851 158.714 159.311 157.228 158.232 156.147C157.152 155.02 155.871 154.457 154.386 154.457C152.947 154.457 151.688 155.02 150.609 156.147C149.574 157.228 149.057 158.692 149.057 160.539V176.689C149.057 177.59 148.63 178.266 147.776 178.716C146.921 179.167 145.887 179.392 144.672 179.392C143.548 179.392 142.536 179.167 141.637 178.716C140.782 178.221 140.355 177.545 140.355 176.689V160.606C140.355 158.805 139.793 157.34 138.669 156.214C137.589 155.088 136.308 154.525 134.824 154.525C133.384 154.525 132.148 155.065 131.113 156.147C130.079 157.228 129.562 158.714 129.562 160.606V176.621C129.562 177.297 129.112 177.928 128.213 178.513C127.358 179.099 126.346 179.392 125.177 179.392C123.963 179.392 122.928 179.122 122.074 178.581C121.264 177.995 120.86 177.342 120.86 176.621Z" fill="#1D1D1B"/>
<path fill-rule="evenodd" clip-rule="evenodd" d="M66.2546 67.0807C76.4427 67.0807 84.7018 75.5383 84.7018 85.9713L84.7018 118.558C84.7018 120.383 83.2564 121.863 81.4735 121.863L51.0356 121.863C49.2527 121.863 47.8074 120.383 47.8074 118.558L47.8074 85.9713C47.8074 75.5383 56.0665 67.0807 66.2546 67.0807Z" fill="#FFDC5B"/>
<path fill-rule="evenodd" clip-rule="evenodd" d="M72.1759 108.758L72.4036 108.447H60.1055L60.291 108.746C60.7423 109.471 61.5705 110.546 62.5968 111.421C63.6184 112.293 64.8677 112.995 66.1546 112.913C67.4258 112.831 68.6962 112.107 69.7552 111.26C70.8182 110.41 71.6929 109.417 72.1759 108.758Z" fill="#1D1D1B"/>
<path d="M55.0743 101.739C49.8259 101.739 45.5712 97.2342 45.5712 91.677C45.5712 86.1199 49.8259 81.6149 55.0743 81.6149C60.3227 81.6149 64.5774 86.1199 64.5774 91.677C64.5774 97.2342 60.3227 101.739 55.0743 101.739Z" fill="white"/>
<path d="M54.5152 97.2671C51.4279 97.2671 48.9251 94.7643 48.9251 91.677C48.9251 88.5897 51.4279 86.087 54.5152 86.087C57.6025 86.087 60.1052 88.5897 60.1052 91.677C60.1052 94.7643 57.6025 97.2671 54.5152 97.2671Z" fill="#1D1D1B"/>
<path d="M77.9936 101.739C72.4364 101.739 67.9314 97.2342 67.9314 91.677C67.9314 86.1199 72.4364 81.6149 77.9936 81.6149C83.5507 81.6149 88.0557 86.1199 88.0557 91.677C88.0557 97.2342 83.5507 101.739 77.9936 101.739Z" fill="white"/>
<path d="M77.9934 97.2671C74.9061 97.2671 72.4034 94.7643 72.4034 91.677C72.4034 88.5897 74.9061 86.087 77.9934 86.087C81.0807 86.087 83.5835 88.5897 83.5835 91.677C83.5835 94.7643 81.0807 97.2671 77.9934 97.2671Z" fill="#1D1D1B"/>
</svg>
