<svg width="91" height="197" viewBox="0 0 91 197" fill="none" xmlns="http://www.w3.org/2000/svg">
<path fill-rule="evenodd" clip-rule="evenodd" d="M51.038 174.652C53.9059 163.457 58.5007 129.31 50.8529 92.1323C43.8974 58.3199 19.3001 38.2868 9.38712 33.1684C0.959372 28.8169 -2.34506 18.4573 2.00645 10.0295C6.35798 1.60178 16.7176 -1.70266 25.1454 2.64886C41.9738 11.3379 74.9779 38.9406 84.4962 85.2116C93.3223 128.117 88.3074 167.577 84.3112 183.176C81.9572 192.364 72.6006 197.904 63.4124 195.55C54.2243 193.196 48.6841 183.84 51.038 174.652Z" fill="#5BAFE4"/>
<path d="M80.4796 180.861C75.0808 180.861 70.7043 176.484 70.7043 171.086C70.7043 165.687 75.0808 161.31 80.4796 161.31C85.8783 161.31 90.2549 165.687 90.2549 171.086C90.2549 176.484 85.8783 180.861 80.4796 180.861Z" fill="white"/>
<path d="M80.4801 176.644C77.4102 176.644 74.9216 174.156 74.9216 171.086C74.9216 168.016 77.4102 165.527 80.4801 165.527C83.5499 165.527 86.0386 168.016 86.0386 171.086C86.0386 174.156 83.5499 176.644 80.4801 176.644Z" fill="#1D1D1B"/>
<path d="M57.0958 180.861C51.697 180.861 47.3205 176.484 47.3205 171.086C47.3205 165.687 51.697 161.31 57.0958 161.31C62.4945 161.31 66.8711 165.687 66.8711 171.086C66.8711 176.484 62.4945 180.861 57.0958 180.861Z" fill="white"/>
<path d="M57.0958 176.644C54.0259 176.644 51.5373 174.156 51.5373 171.086C51.5373 168.016 54.0259 165.527 57.0958 165.527C60.1657 165.527 62.6543 168.016 62.6543 171.086C62.6543 174.156 60.1657 176.644 57.0958 176.644Z" fill="#1D1D1B"/>
<path fill-rule="evenodd" clip-rule="evenodd" d="M74.4202 186.09C74.6065 186.237 74.6386 186.506 74.492 186.693C73.1411 188.409 70.8006 190.513 68.1727 191.133C66.844 191.447 65.4355 191.382 64.0614 190.689C62.6928 189.998 61.3994 188.705 60.2545 186.635C60.1397 186.428 60.2149 186.166 60.4224 186.052C60.6299 185.937 60.8911 186.012 61.0059 186.219C62.0936 188.186 63.2761 189.331 64.4483 189.922C65.6149 190.511 66.812 190.572 67.9753 190.297C70.3314 189.741 72.5205 187.809 73.8173 186.162C73.9639 185.975 74.2339 185.943 74.4202 186.09Z" fill="#1D1D1B"/>
<path fill-rule="evenodd" clip-rule="evenodd" d="M27.1391 11.8392C27.1714 12.3123 26.8141 12.7221 26.341 12.7545C24.3731 12.8891 21.5548 13.7366 19.5102 15.7922C17.5124 17.8008 16.1425 21.0734 17.2073 26.3249C17.3015 26.7897 17.0011 27.2429 16.5363 27.3371C16.0716 27.4314 15.6184 27.131 15.5241 26.6662C14.362 20.9346 15.8337 17.0532 18.2926 14.5811C20.7047 12.156 23.9582 11.1961 26.2238 11.0411C26.6969 11.0087 27.1067 11.366 27.1391 11.8392Z" fill="#4596CA"/>
<path fill-rule="evenodd" clip-rule="evenodd" d="M46.5937 28.3058C46.5251 28.775 46.0891 29.0999 45.6199 29.0313C43.6681 28.7461 40.7342 28.9775 38.3007 30.5535C35.9228 32.0934 33.8909 35.0017 33.8193 40.3596C33.813 40.8338 33.4234 41.213 32.9492 41.2067C32.475 41.2004 32.0958 40.8108 32.1021 40.3366C32.1802 34.4889 34.4406 31.0072 37.3672 29.112C40.2382 27.2527 43.6212 27.0036 45.8682 27.332C46.3374 27.4005 46.6623 27.8365 46.5937 28.3058Z" fill="#4596CA"/>
<path fill-rule="evenodd" clip-rule="evenodd" d="M61.9095 45.967C61.766 46.419 61.2832 46.6691 60.8312 46.5256C58.9513 45.9286 56.0186 45.6826 53.3623 46.8444C50.7667 47.9797 48.2913 50.5212 47.3545 55.797C47.2716 56.264 46.8258 56.5753 46.3589 56.4924C45.892 56.4095 45.5806 55.9637 45.6636 55.4968C46.686 49.7386 49.4796 46.6682 52.6741 45.271C55.8079 43.9003 59.1866 44.2015 61.351 44.8887C61.803 45.0323 62.0531 45.515 61.9095 45.967Z" fill="#4596CA"/>
<path fill-rule="evenodd" clip-rule="evenodd" d="M72.1668 68.1986C71.9234 68.6056 71.3961 68.7382 70.9891 68.4948C69.2962 67.4824 66.4982 66.5702 63.6462 67.0916C60.8594 67.601 57.8669 69.5068 55.7447 74.427C55.5568 74.8625 55.0516 75.0632 54.6161 74.8754C54.1806 74.6875 53.9799 74.1823 54.1677 73.7468C56.484 68.3768 59.9075 66.0292 63.3374 65.4022C66.7021 64.7871 69.9216 65.8554 71.8705 67.0209C72.2775 67.2643 72.4102 67.7915 72.1668 68.1986Z" fill="#4596CA"/>
<path fill-rule="evenodd" clip-rule="evenodd" d="M78.8306 92.5194C78.4899 92.8493 77.9463 92.8405 77.6164 92.4998C76.2442 91.0828 73.7788 89.4757 70.8892 89.2391C68.0657 89.0079 64.6812 90.0719 61.3548 94.2728C61.0604 94.6446 60.5203 94.7073 60.1485 94.4129C59.7767 94.1185 59.714 93.5784 60.0084 93.2066C63.6389 88.6217 67.5543 87.2429 71.0294 87.5275C74.4384 87.8066 77.2704 89.6738 78.8501 91.3051C79.18 91.6458 79.1713 92.1894 78.8306 92.5194Z" fill="#4596CA"/>
<path fill-rule="evenodd" clip-rule="evenodd" d="M80.8073 115.079C80.3959 115.315 79.8712 115.172 79.6352 114.761C78.654 113.05 76.6598 110.886 73.9173 109.945C71.2375 109.026 67.6953 109.225 63.4374 112.478C63.0606 112.766 62.5217 112.694 62.2338 112.317C61.9459 111.94 62.0179 111.401 62.3948 111.113C67.0419 107.563 71.1762 107.19 74.4744 108.321C77.7099 109.43 79.9953 111.937 81.125 113.907C81.361 114.318 81.2187 114.843 80.8073 115.079Z" fill="#4596CA"/>
<path fill-rule="evenodd" clip-rule="evenodd" d="M81.2365 136.117C80.8251 136.353 80.3004 136.21 80.0644 135.799C79.0832 134.088 77.089 131.924 74.3465 130.983C71.6667 130.064 68.1245 130.263 63.8666 133.516C63.4898 133.804 62.9509 133.732 62.663 133.355C62.3751 132.978 62.4471 132.439 62.824 132.151C67.4711 128.601 71.6054 128.228 74.9036 129.359C78.1391 130.468 80.4245 132.975 81.5542 134.945C81.7902 135.356 81.6479 135.881 81.2365 136.117Z" fill="#4596CA"/>
<path d="M60.8449 186.213L73.9399 186.213C72.8666 187.644 70.0329 190.549 67.2851 190.721C64.5372 190.892 61.8467 187.787 60.8449 186.213Z" fill="#1D1D1B"/>
<path fill-rule="evenodd" clip-rule="evenodd" d="M74.3691 185.998L74.1115 186.341C73.5649 187.07 72.5752 188.168 71.3724 189.108C70.1742 190.044 68.7367 190.845 67.2983 190.935C65.8421 191.026 64.4286 190.25 63.2726 189.286C62.1113 188.318 61.1742 187.13 60.6636 186.328L60.4537 185.998L74.3691 185.998ZM73.4987 186.427L61.2457 186.427C61.7649 187.175 62.5766 188.147 63.5475 188.956C64.6742 189.896 65.9799 190.587 67.2715 190.506C68.5809 190.425 69.9343 189.687 71.1081 188.77C72.1 187.995 72.9439 187.107 73.4987 186.427Z" fill="#1D1D1B"/>
</svg>
