<svg width="44" height="239" viewBox="0 0 44 239" fill="none" xmlns="http://www.w3.org/2000/svg">
<path fill-rule="evenodd" clip-rule="evenodd" d="M22.5008 0.0117035C31.9856 0.0117035 39.6746 7.70071 39.6746 17.1856V221.555C39.6746 231.039 31.9856 238.728 22.5008 238.728C13.0159 238.728 5.3269 231.039 5.3269 221.555V17.1856C5.3269 7.70071 13.0159 0.0117035 22.5008 0.0117035Z" fill="#FD5F60"/>
<path d="M10.3792 36.7362C4.98049 36.7362 0.603935 32.3596 0.603935 26.9609C0.603935 21.5621 4.98049 17.1856 10.3792 17.1856C15.778 17.1856 20.1545 21.5621 20.1545 26.9609C20.1545 32.3596 15.778 36.7362 10.3792 36.7362Z" fill="white"/>
<path d="M10.379 32.5194C7.30912 32.5194 4.82049 30.0308 4.82049 26.9609C4.82049 23.891 7.30912 21.4024 10.379 21.4024C13.4489 21.4024 15.9375 23.891 15.9375 26.9609C15.9375 30.0308 13.4489 32.5194 10.379 32.5194Z" fill="#1D1D1B"/>
<path d="M33.5638 36.7362C28.1651 36.7362 23.7885 32.3596 23.7885 26.9609C23.7885 21.5621 28.1651 17.1856 33.5638 17.1856C38.9626 17.1856 43.3391 21.5621 43.3391 26.9609C43.3391 32.3596 38.9626 36.7362 33.5638 36.7362Z" fill="white"/>
<path d="M33.5638 32.5194C30.4939 32.5194 28.0053 30.0308 28.0053 26.9609C28.0053 23.891 30.4939 21.4024 33.5638 21.4024C36.6337 21.4024 39.1223 23.891 39.1223 26.9609C39.1223 30.0308 36.6337 32.5194 33.5638 32.5194Z" fill="#1D1D1B"/>
<path d="M14.7726 42.9464L27.8677 42.9464C26.7943 44.3775 23.9606 47.2828 21.2128 47.4545C18.465 47.6262 15.7744 44.5206 14.7726 42.9464Z" fill="#1D1D1B"/>
<path fill-rule="evenodd" clip-rule="evenodd" d="M28.2969 42.7317L28.0393 43.0752C27.4927 43.804 26.5029 44.9022 25.3002 45.8419C24.1019 46.7781 22.6645 47.5789 21.226 47.6688C19.7699 47.7598 18.3563 46.984 17.2003 46.0201C16.039 45.0517 15.1019 43.8639 14.5913 43.0616L14.3814 42.7317L28.2969 42.7317ZM27.4265 43.161L15.1734 43.161C15.6927 43.9084 16.5044 44.8807 17.4753 45.6903C18.602 46.6298 19.9076 47.321 21.1993 47.2402C22.5087 47.1584 23.862 46.4207 25.0358 45.5036C26.0277 44.7286 26.8716 43.8412 27.4265 43.161Z" fill="#1D1D1B"/>
<path fill-rule="evenodd" clip-rule="evenodd" d="M13.5692 219.113C13.9344 218.811 14.4757 218.861 14.7783 219.227C16.0366 220.746 18.3702 222.539 21.2328 222.998C24.03 223.447 27.4867 222.649 31.1283 218.718C31.4506 218.37 31.9939 218.349 32.3418 218.671C32.6897 218.994 32.7104 219.537 32.3881 219.885C28.4136 224.175 24.4032 225.247 20.9606 224.694C17.5834 224.152 14.9044 222.071 13.4557 220.322C13.1532 219.957 13.204 219.416 13.5692 219.113Z" fill="#DC4748"/>
<path fill-rule="evenodd" clip-rule="evenodd" d="M13.5692 197.646C13.9344 197.343 14.4757 197.394 14.7783 197.759C16.0366 199.278 18.3702 201.071 21.2328 201.531C24.03 201.98 27.4867 201.181 31.1283 197.25C31.4506 196.903 31.9939 196.882 32.3418 197.204C32.6897 197.526 32.7104 198.07 32.3881 198.418C28.4136 202.708 24.4032 203.779 20.9606 203.227C17.5834 202.684 14.9044 200.604 13.4557 198.855C13.1532 198.49 13.204 197.948 13.5692 197.646Z" fill="#DC4748"/>
<path fill-rule="evenodd" clip-rule="evenodd" d="M13.5692 176.178C13.9344 175.876 14.4757 175.927 14.7783 176.292C16.0366 177.811 18.3702 179.604 21.2328 180.064C24.03 180.513 27.4867 179.714 31.1283 175.783C31.4506 175.435 31.9939 175.414 32.3418 175.737C32.6897 176.059 32.7104 176.602 32.3881 176.95C28.4136 181.24 24.4032 182.312 20.9606 181.759C17.5834 181.217 14.9044 179.136 13.4557 177.388C13.1532 177.022 13.204 176.481 13.5692 176.178Z" fill="#DC4748"/>
<path fill-rule="evenodd" clip-rule="evenodd" d="M13.5692 154.711C13.9344 154.409 14.4757 154.459 14.7783 154.825C16.0366 156.344 18.3702 158.137 21.2328 158.596C24.03 159.045 27.4867 158.247 31.1283 154.316C31.4506 153.968 31.9939 153.947 32.3418 154.269C32.6897 154.592 32.7104 155.135 32.3881 155.483C28.4136 159.773 24.4032 160.845 20.9606 160.292C17.5834 159.75 14.9044 157.669 13.4557 155.92C13.1532 155.555 13.204 155.014 13.5692 154.711Z" fill="#DC4748"/>
<path fill-rule="evenodd" clip-rule="evenodd" d="M13.5692 130.668C13.9344 130.365 14.4757 130.416 14.7783 130.781C16.0366 132.3 18.3702 134.093 21.2328 134.553C24.03 135.002 27.4867 134.203 31.1283 130.272C31.4506 129.924 31.9939 129.904 32.3418 130.226C32.6897 130.548 32.7104 131.092 32.3881 131.44C28.4136 135.73 24.4032 136.801 20.9606 136.249C17.5834 135.706 14.9044 133.626 13.4557 131.877C13.1532 131.512 13.204 130.97 13.5692 130.668Z" fill="#DC4748"/>
<path fill-rule="evenodd" clip-rule="evenodd" d="M13.5692 104.907C13.9344 104.604 14.4757 104.655 14.7783 105.02C16.0366 106.539 18.3702 108.332 21.2328 108.792C24.03 109.241 27.4867 108.442 31.1283 104.512C31.4506 104.164 31.9939 104.143 32.3418 104.465C32.6897 104.788 32.7104 105.331 32.3881 105.679C28.4136 109.969 24.4032 111.04 20.9606 110.488C17.5834 109.946 14.9044 107.865 13.4557 106.116C13.1532 105.751 13.204 105.209 13.5692 104.907Z" fill="#DC4748"/>
<path fill-rule="evenodd" clip-rule="evenodd" d="M13.5692 79.1461C13.9344 78.8436 14.4757 78.8944 14.7783 79.2596C16.0366 80.7786 18.3702 82.5717 21.2328 83.0313C24.03 83.4804 27.4867 82.6816 31.1283 78.7508C31.4506 78.4029 31.9939 78.3822 32.3418 78.7045C32.6897 79.0268 32.7104 79.5701 32.3881 79.918C28.4136 84.2081 24.4032 85.2797 20.9606 84.727C17.5834 84.1847 14.9044 82.1039 13.4557 80.3552C13.1532 79.99 13.204 79.4487 13.5692 79.1461Z" fill="#DC4748"/>
</svg>
