<svg width="142" height="237" viewBox="0 0 142 237" fill="none" xmlns="http://www.w3.org/2000/svg">
<path fill-rule="evenodd" clip-rule="evenodd" d="M118.657 0.0514199C128.114 -0.676034 136.37 6.4006 137.097 15.8575C139.046 41.1945 126.474 94.0525 67.6876 124.129C47.4957 134.46 38.9184 150.512 36.0493 167.32C33.055 184.861 36.4852 202.83 40.521 213.572C43.8567 222.451 39.3631 232.353 30.4841 235.688C21.6052 239.024 11.7032 234.53 8.3675 225.652C2.6714 210.49 -2.03451 186.296 2.19134 161.54C6.54243 136.05 20.5416 109.668 52.0431 93.5512C96.6433 70.7325 103.907 32.2254 102.851 18.4919C102.123 9.03494 109.2 0.778872 118.657 0.0514199Z" fill="#FFDC5B"/>
<path fill-rule="evenodd" clip-rule="evenodd" d="M17.1123 222.873C17.4038 222.499 17.9434 222.432 18.3174 222.724C19.8731 223.936 22.5378 225.185 25.4323 225.018C28.2606 224.855 31.4645 223.332 34.1752 218.709C34.4151 218.3 34.9412 218.163 35.3503 218.403C35.7594 218.643 35.8965 219.169 35.6566 219.578C32.6981 224.623 29.0121 226.532 25.5312 226.733C22.1164 226.93 19.0525 225.474 17.2616 224.078C16.8875 223.787 16.8207 223.247 17.1123 222.873Z" fill="#EBC63E"/>
<path fill-rule="evenodd" clip-rule="evenodd" d="M9.26985 195.738C9.61249 195.41 10.1561 195.422 10.4839 195.765C11.8476 197.19 14.3035 198.812 17.1916 199.065C20.0138 199.313 23.4045 198.27 26.7558 194.089C27.0524 193.718 27.5928 193.659 27.9628 193.956C28.3329 194.252 28.3924 194.793 28.0958 195.163C24.4382 199.726 20.5146 201.081 17.0413 200.776C13.634 200.477 10.8131 198.593 9.24312 196.952C8.91524 196.61 8.92721 196.066 9.26985 195.738Z" fill="#EBC63E"/>
<path fill-rule="evenodd" clip-rule="evenodd" d="M9.63737 164.256C10.0593 164.04 10.5769 164.207 10.7933 164.629C11.6935 166.384 13.5842 168.639 16.2798 169.707C18.9137 170.75 22.4613 170.717 26.8666 167.667C27.2565 167.397 27.7915 167.494 28.0614 167.884C28.3314 168.274 28.2342 168.809 27.8443 169.079C23.0363 172.408 18.889 172.587 15.6473 171.303C12.4672 170.044 10.3015 167.433 9.26519 165.412C9.04876 164.99 9.21539 164.473 9.63737 164.256Z" fill="#EBC63E"/>
<path fill-rule="evenodd" clip-rule="evenodd" d="M19.8142 135.906C20.2836 135.839 20.7188 136.165 20.7861 136.634C21.0662 138.586 22.1201 141.334 24.3215 143.221C26.4727 145.064 29.8378 146.188 34.996 144.737C35.4525 144.609 35.9267 144.875 36.0551 145.331C36.1835 145.788 35.9175 146.262 35.461 146.39C29.8313 147.974 25.8515 146.794 23.204 144.525C20.6068 142.299 19.4085 139.126 19.0861 136.878C19.0188 136.408 19.3447 135.973 19.8142 135.906Z" fill="#EBC63E"/>
<path fill-rule="evenodd" clip-rule="evenodd" d="M37.4175 113.151C37.8869 113.083 38.322 113.409 38.3894 113.879C38.6694 115.831 39.7234 118.579 41.9248 120.466C44.0759 122.309 47.4411 123.433 52.5992 121.982C53.0558 121.853 53.53 122.119 53.6584 122.576C53.7868 123.032 53.5208 123.507 53.0643 123.635C47.4345 125.219 43.4547 124.038 40.8073 121.77C38.2101 119.544 37.0118 116.37 36.6894 114.122C36.622 113.653 36.948 113.218 37.4175 113.151Z" fill="#EBC63E"/>
<path fill-rule="evenodd" clip-rule="evenodd" d="M67.7059 92.7511C68.1694 92.8512 68.464 93.3082 68.3638 93.7717C67.9473 95.6997 67.9796 98.6425 69.3873 101.177C70.7628 103.654 73.5269 105.878 78.8676 106.312C79.3403 106.35 79.6924 106.765 79.654 107.237C79.6156 107.71 79.2013 108.062 78.7286 108.024C72.8996 107.55 69.5788 105.059 67.8859 102.011C66.2251 99.0207 66.2056 95.6287 66.6852 93.409C66.7854 92.9455 67.2423 92.6509 67.7059 92.7511Z" fill="#EBC63E"/>
<path fill-rule="evenodd" clip-rule="evenodd" d="M89.3598 75.5019C89.8234 75.402 90.2802 75.6969 90.38 76.1605C90.7954 78.0888 92.0381 80.7565 94.3655 82.4853C96.6398 84.1746 100.075 85.0612 105.12 83.2546C105.566 83.0947 106.058 83.327 106.218 83.7735C106.377 84.22 106.145 84.7116 105.699 84.8714C100.193 86.8432 96.1405 85.943 93.3415 83.864C90.5956 81.8244 89.1793 78.7421 88.7011 76.5222C88.6013 76.0585 88.8962 75.6018 89.3598 75.5019Z" fill="#EBC63E"/>
<path fill-rule="evenodd" clip-rule="evenodd" d="M102.961 51.9624C103.423 51.8558 103.884 52.1439 103.991 52.606C104.435 54.528 105.716 57.1772 108.069 58.8716C110.368 60.5274 113.816 61.3635 118.833 59.4831C119.277 59.3167 119.772 59.5418 119.939 59.9858C120.105 60.4299 119.88 60.9248 119.436 61.0913C113.96 63.1436 109.894 62.303 107.065 60.2652C104.29 58.2661 102.828 55.2049 102.318 52.9922C102.211 52.5301 102.499 52.0691 102.961 51.9624Z" fill="#EBC63E"/>
<path d="M106.994 31.5732C101.595 31.5732 97.2184 27.1966 97.2184 21.7979C97.2184 16.3991 101.595 12.0226 106.994 12.0226C112.392 12.0226 116.769 16.3991 116.769 21.7979C116.769 27.1966 112.392 31.5732 106.994 31.5732Z" fill="white"/>
<path d="M106.994 27.3564C103.924 27.3564 101.435 24.8678 101.435 21.7979C101.435 18.7281 103.924 16.2394 106.994 16.2394C110.064 16.2394 112.552 18.7281 112.552 21.7979C112.552 24.8678 110.064 27.3564 106.994 27.3564Z" fill="#1D1D1B"/>
<path d="M131.466 32.8612C126.068 32.8612 121.691 28.4846 121.691 23.0859C121.691 17.6871 126.068 13.3106 131.466 13.3106C136.865 13.3106 141.242 17.6871 141.242 23.0859C141.242 28.4846 136.865 32.8612 131.466 32.8612Z" fill="white"/>
<path d="M131.466 28.6444C128.397 28.6444 125.908 26.1557 125.908 23.0859C125.908 20.016 128.397 17.5274 131.466 17.5274C134.536 17.5274 137.025 20.016 137.025 23.0859C137.025 26.1557 134.536 28.6444 131.466 28.6444Z" fill="#1D1D1B"/>
<path d="M126.985 10.1661L113.963 8.78409C115.182 7.4742 118.306 4.88423 121.057 5.00344C123.807 5.12265 126.155 8.49487 126.985 10.1661Z" fill="#1D1D1B"/>
<path fill-rule="evenodd" clip-rule="evenodd" d="M113.513 8.95224L113.806 8.63787C114.426 7.97082 115.526 6.98321 116.822 6.17567C118.112 5.37115 119.626 4.72655 121.066 4.78896C122.523 4.85213 123.847 5.77273 124.895 6.8533C125.948 7.93879 126.754 9.21883 127.177 10.0706L127.351 10.4208L113.513 8.95224ZM114.424 8.61715L126.609 9.91027C126.171 9.11226 125.467 8.05973 124.587 7.15219C123.566 6.09906 122.34 5.27394 121.047 5.2179C119.736 5.1611 118.313 5.75188 117.049 6.54001C115.981 7.20594 115.048 7.99934 114.424 8.61715Z" fill="#1D1D1B"/>
</svg>
