<svg width="142" height="237" viewBox="0 0 142 237" fill="none" xmlns="http://www.w3.org/2000/svg">
<path fill-rule="evenodd" clip-rule="evenodd" d="M118.972 0.0514199C128.429 -0.676034 136.685 6.4006 137.412 15.8575C139.361 41.1945 126.789 94.0525 68.0026 124.129C47.8107 134.46 39.2334 150.512 36.3643 167.32C33.37 184.861 36.8002 202.83 40.8359 213.572C44.1717 222.451 39.678 232.353 30.7991 235.688C21.9201 239.024 12.0182 234.53 8.68244 225.652C2.98634 210.49 -1.71956 186.296 2.50629 161.54C6.85737 136.05 20.8566 109.668 52.358 93.5512C96.9583 70.7325 104.222 32.2254 103.166 18.4919C102.438 9.03494 109.515 0.778872 118.972 0.0514199Z" fill="#5BAFE4"/>
<path fill-rule="evenodd" clip-rule="evenodd" d="M17.4272 222.873C17.7188 222.499 18.2583 222.432 18.6324 222.724C20.188 223.936 22.8528 225.185 25.7472 225.018C28.5755 224.855 31.7794 223.332 34.4901 218.709C34.73 218.3 35.2562 218.163 35.6652 218.403C36.0743 218.643 36.2115 219.169 35.9716 219.578C33.013 224.623 29.327 226.532 25.8461 226.733C22.4313 226.93 19.3675 225.474 17.5765 224.078C17.2025 223.787 17.1356 223.247 17.4272 222.873Z" fill="#4596CA"/>
<path fill-rule="evenodd" clip-rule="evenodd" d="M9.58479 195.738C9.92743 195.41 10.471 195.422 10.7989 195.765C12.1626 197.19 14.6184 198.812 17.5066 199.065C20.3287 199.313 23.7194 198.27 27.0707 194.089C27.3673 193.719 27.9077 193.659 28.2778 193.956C28.6478 194.252 28.7073 194.793 28.4107 195.163C24.7531 199.726 20.8296 201.081 17.3563 200.776C13.9489 200.477 11.1281 198.593 9.55806 196.952C9.23018 196.61 9.24215 196.066 9.58479 195.738Z" fill="#4596CA"/>
<path fill-rule="evenodd" clip-rule="evenodd" d="M9.95231 164.256C10.3743 164.04 10.8918 164.207 11.1082 164.629C12.0084 166.384 13.8992 168.639 16.5947 169.707C19.2286 170.75 22.7763 170.717 27.1816 167.667C27.5715 167.397 28.1064 167.494 28.3764 167.884C28.6464 168.274 28.5491 168.809 28.1593 169.079C23.3512 172.408 19.204 172.587 15.9623 171.303C12.7822 170.044 10.6165 167.433 9.58013 165.412C9.3637 164.99 9.53033 164.473 9.95231 164.256Z" fill="#4596CA"/>
<path fill-rule="evenodd" clip-rule="evenodd" d="M20.1291 135.906C20.5986 135.839 21.0337 136.165 21.101 136.634C21.3811 138.586 22.4351 141.334 24.6365 143.221C26.7876 145.064 30.1527 146.188 35.3109 144.737C35.7674 144.609 36.2416 144.875 36.3701 145.331C36.4985 145.788 36.2325 146.262 35.776 146.39C30.1462 147.974 26.1664 146.794 23.5189 144.525C20.9217 142.299 19.7235 139.126 19.4011 136.878C19.3337 136.408 19.6597 135.973 20.1291 135.906Z" fill="#4596CA"/>
<path fill-rule="evenodd" clip-rule="evenodd" d="M37.7324 113.151C38.2018 113.083 38.637 113.409 38.7043 113.879C38.9844 115.831 40.0384 118.579 42.2398 120.466C44.3909 122.309 47.756 123.433 52.9142 121.982C53.3707 121.853 53.8449 122.119 53.9733 122.576C54.1017 123.032 53.8357 123.507 53.3792 123.635C47.7495 125.219 43.7697 124.038 41.1222 121.77C38.525 119.544 37.3268 116.37 37.0043 114.122C36.937 113.653 37.263 113.218 37.7324 113.151Z" fill="#4596CA"/>
<path fill-rule="evenodd" clip-rule="evenodd" d="M68.0208 92.7511C68.4844 92.8512 68.779 93.3082 68.6788 93.7718C68.2622 95.6997 68.2945 98.6425 69.7022 101.177C71.0777 103.654 73.8418 105.878 79.1826 106.312C79.6553 106.35 80.0073 106.765 79.9689 107.237C79.9305 107.71 79.5162 108.062 79.0435 108.024C73.2145 107.55 69.8937 105.059 68.2008 102.011C66.5401 99.0207 66.5205 95.6287 67.0001 93.409C67.1003 92.9455 67.5573 92.6509 68.0208 92.7511Z" fill="#4596CA"/>
<path fill-rule="evenodd" clip-rule="evenodd" d="M89.6747 75.5019C90.1383 75.402 90.5951 75.6969 90.695 76.1605C91.1103 78.0888 92.353 80.7565 94.6805 82.4853C96.9547 84.1746 100.39 85.0612 105.435 83.2546C105.881 83.0947 106.373 83.327 106.533 83.7735C106.692 84.22 106.46 84.7115 106.014 84.8714C100.508 86.8432 96.4555 85.943 93.6564 83.8639C90.9106 81.8243 89.4942 78.7421 89.0161 76.5221C88.9162 76.0585 89.2111 75.6017 89.6747 75.5019Z" fill="#4596CA"/>
<path fill-rule="evenodd" clip-rule="evenodd" d="M103.276 51.9624C103.738 51.8557 104.199 52.1438 104.306 52.6059C104.75 54.5279 106.031 57.1771 108.384 58.8716C110.683 60.5273 114.131 61.3634 119.148 59.483C119.592 59.3166 120.087 59.5417 120.254 59.9858C120.42 60.4299 120.195 60.9248 119.751 61.0912C114.275 63.1435 110.209 62.3029 107.38 60.2651C104.605 58.266 103.143 55.2048 102.633 52.9922C102.526 52.5301 102.814 52.069 103.276 51.9624Z" fill="#4596CA"/>
<path d="M107.309 31.5732C101.91 31.5732 97.5334 27.1966 97.5334 21.7979C97.5334 16.3991 101.91 12.0226 107.309 12.0226C112.707 12.0226 117.084 16.3991 117.084 21.7979C117.084 27.1966 112.707 31.5732 107.309 31.5732Z" fill="white"/>
<path d="M107.309 27.3563C104.239 27.3563 101.75 24.8677 101.75 21.7978C101.75 18.728 104.239 16.2393 107.309 16.2393C110.379 16.2393 112.867 18.728 112.867 21.7978C112.867 24.8677 110.379 27.3563 107.309 27.3563Z" fill="#1D1D1B"/>
<path d="M131.781 32.8612C126.383 32.8612 122.006 28.4846 122.006 23.0859C122.006 17.6871 126.383 13.3106 131.781 13.3106C137.18 13.3106 141.557 17.6871 141.557 23.0859C141.557 28.4846 137.18 32.8612 131.781 32.8612Z" fill="white"/>
<path d="M131.781 28.6444C128.711 28.6444 126.223 26.1558 126.223 23.0859C126.223 20.016 128.711 17.5274 131.781 17.5274C134.851 17.5274 137.34 20.016 137.34 23.0859C137.34 26.1558 134.851 28.6444 131.781 28.6444Z" fill="#1D1D1B"/>
<path d="M127.3 10.1661L114.278 8.7841C115.496 7.47422 118.621 4.88425 121.372 5.00346C124.122 5.12267 126.47 8.49488 127.3 10.1661Z" fill="#1D1D1B"/>
<path fill-rule="evenodd" clip-rule="evenodd" d="M113.828 8.95226L114.121 8.63788C114.741 7.97084 115.841 6.98322 117.137 6.17569C118.427 5.37116 119.941 4.72657 121.381 4.78897C122.838 4.85215 124.162 5.77274 125.21 6.85332C126.263 7.9388 127.069 9.21884 127.492 10.0706L127.666 10.4208L113.828 8.95226ZM114.739 8.61716L126.924 9.91028C126.486 9.11228 125.782 8.05974 124.902 7.15221C123.881 6.09907 122.655 5.27395 121.362 5.21792C120.051 5.16111 118.628 5.7519 117.364 6.54002C116.296 7.20595 115.363 7.99935 114.739 8.61716Z" fill="#1D1D1B"/>
</svg>
